<?xml version="1.0" encoding="UTF-8"?>
<!DOCTYPE svg PUBLIC "-//W3C//DTD SVG 1.1//EN" "http://www.w3.org/Graphics/SVG/1.1/DTD/svg11.dtd">
<svg xmlns="http://www.w3.org/2000/svg" version="1.1" width="1077px" height="1008px" style="shape-rendering:geometricPrecision; text-rendering:geometricPrecision; image-rendering:optimizeQuality; fill-rule:evenodd; clip-rule:evenodd" xmlns:xlink="http://www.w3.org/1999/xlink">
<g><path style="opacity:0.974" fill="#fefefe" d="M 453.5,117.5 C 476.549,117.781 496.049,126.114 512,142.5C 517.536,149.227 519.869,156.893 519,165.5C 515.981,175.619 509.148,181.453 498.5,183C 475.897,185.464 455.897,179.464 438.5,165C 428.283,156.345 424.449,145.511 427,132.5C 428.779,128.388 431.612,125.222 435.5,123C 441.34,120.213 447.34,118.38 453.5,117.5 Z"/></g>
<g><path style="opacity:0.959" fill="#fefefe" d="M 695.5,146.5 C 711.936,145.254 725.769,150.587 737,162.5C 742.825,169.601 743.825,177.267 740,185.5C 738.062,188.106 735.562,189.939 732.5,191C 713.045,194.85 697.211,189.016 685,173.5C 678,160.192 681.5,151.192 695.5,146.5 Z"/></g>
<g><path style="opacity:0.982" fill="#fefefe" d="M 540.5,197.5 C 575.318,195.829 603.151,208.829 624,236.5C 632.729,249.929 634.729,264.262 630,279.5C 622.328,292.593 610.828,299.426 595.5,300C 561.522,300.263 535.022,286.429 516,258.5C 505.201,240.926 506.035,224.093 518.5,208C 525.125,202.856 532.459,199.356 540.5,197.5 Z"/></g>
<g><path style="opacity:1" fill="#18d311" d="M 692.5,215.5 C 715.038,213.526 733.872,220.859 749,237.5C 756.972,246.715 759.972,257.382 758,269.5C 754.855,278.332 748.688,283.832 739.5,286C 711.045,289.522 689.545,279.022 675,254.5C 667.337,235.172 673.171,222.172 692.5,215.5 Z"/></g>
<g><path style="opacity:0.962" fill="#fefefe" d="M 867.5,243.5 C 885.597,243.104 898.43,251.104 906,267.5C 908.007,285.146 900.174,291.979 882.5,288C 864.826,283.103 855.992,271.603 856,253.5C 858.185,248.14 862.019,244.807 867.5,243.5 Z"/></g>
<g><path style="opacity:1" fill="#18d311" d="M 817.5,266.5 C 841.399,267.216 858.232,278.55 868,300.5C 874.896,315.835 873.896,330.502 865,344.5C 857.452,351.264 848.619,353.764 838.5,352C 816.938,345.437 803.104,331.27 797,309.5C 792.817,294.385 796.317,281.552 807.5,271C 810.815,269.17 814.149,267.67 817.5,266.5 Z"/></g>
<g><path style="opacity:0.985" fill="#fefefe" d="M 242.5,305.5 C 264.055,303.62 285.055,306.12 305.5,313C 316.691,317.201 325.858,324.034 333,333.5C 339.448,345.242 338.781,356.575 331,367.5C 319.205,380.485 304.705,388.985 287.5,393C 264.972,398.158 242.306,398.825 219.5,395C 206.748,392.455 195.081,387.455 184.5,380C 168.715,366.713 166.548,351.546 178,334.5C 189.065,323.214 202.232,315.381 217.5,311C 225.877,308.722 234.21,306.889 242.5,305.5 Z"/></g>
<g><path style="opacity:1" fill="#0dd208" d="M 653.5,337.5 C 656.427,336.243 658.761,334.243 660.5,331.5C 666.851,324.983 674.518,320.483 683.5,318C 722.659,310.387 755.492,321.553 782,351.5C 808.046,381.73 815.713,416.063 805,454.5C 794.631,479.855 775.798,494.355 748.5,498C 715.738,499.7 688.238,488.533 666,464.5C 639.462,435.547 630.462,401.881 639,363.5C 642.043,353.739 646.876,345.073 653.5,337.5 Z"/></g>
<g><path style="opacity:0.986" fill="#fefefe" d="M 482.5,318.5 C 508.276,315.942 531.61,322.109 552.5,337C 574.385,357.139 577.219,379.639 561,404.5C 547.294,420.106 530.127,429.606 509.5,433C 481.51,438.27 455.843,432.936 432.5,417C 410.876,398.22 407.043,376.387 421,351.5C 431.819,337.669 445.652,328.169 462.5,323C 469.259,321.285 475.925,319.785 482.5,318.5 Z"/></g>
<g><path style="opacity:0.816" fill="#85e676" d="M 660.5,331.5 C 658.761,334.243 656.427,336.243 653.5,337.5C 655.239,334.757 657.573,332.757 660.5,331.5 Z"/></g>
<g><path style="opacity:1" fill="#16d310" d="M 868.5,377.5 C 884.086,376.213 897.253,381.213 908,392.5C 915.384,400.594 920.717,409.928 924,420.5C 925.467,427.777 925.801,435.111 925,442.5C 922.05,456.287 913.55,463.287 899.5,463.5C 889.698,463.4 881.032,460.233 873.5,454C 856.2,439.901 848.366,421.734 850,399.5C 851.744,388.294 857.91,380.961 868.5,377.5 Z"/></g>
<g><path style="opacity:0.962" fill="#fefefe" d="M 960.5,400.5 C 965.742,400.023 970.742,400.856 975.5,403C 993.016,415.527 999.849,432.36 996,453.5C 990.184,462.336 982.684,463.836 973.5,458C 955.544,444.458 949.377,426.958 955,405.5C 956.73,403.598 958.563,401.931 960.5,400.5 Z"/></g>
<g><path style="opacity:0.989" fill="#fefefe" d="M 538.5,482.5 C 566.041,479.843 589.208,488.509 608,508.5C 625.454,533.923 628.12,560.923 616,589.5C 592.295,636.606 554.129,657.439 501.5,652C 465.482,642.814 446.482,619.647 444.5,582.5C 448.39,538.772 470.39,507.939 510.5,490C 519.716,486.532 529.049,484.032 538.5,482.5 Z"/></g>
<g><path style="opacity:0.982" fill="#fefefe" d="M 868.5,491.5 C 890.235,492.453 906.402,502.453 917,521.5C 929.289,543.517 931.622,566.517 924,590.5C 910.883,618.465 890.383,625.632 862.5,612C 838.33,593.206 827.496,568.373 830,537.5C 831.533,518.662 840.366,504.496 856.5,495C 860.543,493.509 864.543,492.342 868.5,491.5 Z"/></g>
<g><path style="opacity:0.986" fill="#fefefe" d="M 730.5,546.5 C 758.943,545.137 780.11,556.804 794,581.5C 805.877,606.541 806.543,631.875 796,657.5C 778.877,689.146 753.044,699.979 718.5,690C 694.415,677.887 680.249,658.387 676,631.5C 671.952,601.29 681.452,576.456 704.5,557C 712.599,551.807 721.266,548.307 730.5,546.5 Z"/></g>
<g><path style="opacity:0.974" fill="#fefefe" d="M 969.5,601.5 C 984.746,602.905 996.246,610.239 1004,623.5C 1013.37,639.392 1016.37,656.392 1013,674.5C 1008.92,690.454 998.751,697.287 982.5,695C 965.757,687.715 954.923,675.215 950,657.5C 945.654,644.462 945.654,631.462 950,618.5C 953.331,608.991 959.831,603.324 969.5,601.5 Z"/></g>
<g><path style="opacity:0.989" fill="#fefefe" d="M 343.5,672.5 C 363.448,670.485 381.448,675.318 397.5,687C 412.063,702.811 416.897,721.311 412,742.5C 406.638,764.895 396.305,784.562 381,801.5C 356.804,829.018 326.97,847.518 291.5,857C 269.354,863.041 248.02,861.041 227.5,851C 208.918,837.624 201.418,819.457 205,796.5C 208.787,774.93 217.454,755.597 231,738.5C 260.091,702.203 297.591,680.203 343.5,672.5 Z"/></g>
<g><path style="opacity:0.985" fill="#fefefe" d="M 753.5,767.5 C 774.074,765.369 789.24,773.369 799,791.5C 811.325,819.645 811.658,847.978 800,876.5C 792.386,895.115 779.219,907.948 760.5,915C 742.859,918.343 728.692,912.843 718,898.5C 708.373,883.671 703.539,867.338 703.5,849.5C 703.61,820.798 713.944,796.631 734.5,777C 740.378,772.727 746.712,769.561 753.5,767.5 Z"/></g>
</svg>
