<svg width="1440" height="960" viewBox="0 0 1440 960" fill="none" xmlns="http://www.w3.org/2000/svg">
<path fill-rule="evenodd" clip-rule="evenodd" d="M-27.7162 728.592C-27.813 728.592 -27.8916 728.67 -27.8916 728.767C-27.8916 728.864 -27.813 728.943 -27.7162 728.943H24.5717L-7.22757 731.697H-27.7172C-27.814 731.697 -27.8925 731.776 -27.8925 731.873C-27.8925 731.969 -27.814 732.048 -27.7172 732.048H-11.2765L-27.7333 733.473C-27.8298 733.482 -27.9012 733.567 -27.8929 733.663C-27.8845 733.76 -27.7995 733.831 -27.703 733.823L-7.21241 732.048H69.9053L38.1681 735.14H-27.7172C-27.814 735.14 -27.8925 735.219 -27.8925 735.316C-27.8925 735.412 -27.814 735.491 -27.7172 735.491H34.5685L-1.24768 738.981H-27.7172C-27.814 738.981 -27.8925 739.059 -27.8925 739.156C-27.8925 739.253 -27.814 739.332 -27.7172 739.332H-4.84732L-27.7351 741.562C-27.8315 741.571 -27.9021 741.657 -27.8927 741.753C-27.8833 741.85 -27.7975 741.92 -27.7011 741.911L-1.23063 739.332H85.6859L50.1112 743.293H-27.7172C-27.814 743.293 -27.8925 743.372 -27.8925 743.468C-27.8925 743.565 -27.814 743.644 -27.7172 743.644H46.9615L6.31424 748.17H-27.7172C-27.814 748.17 -27.8925 748.249 -27.8925 748.346C-27.8925 748.442 -27.814 748.521 -27.7172 748.521H3.16457L-27.7376 751.962C-27.8338 751.973 -27.9032 752.06 -27.8924 752.156C-27.8817 752.252 -27.795 752.321 -27.6987 752.311L6.33369 748.521H105.481L65.3611 753.733H-27.7172C-27.814 753.733 -27.8925 753.812 -27.8925 753.908C-27.8925 754.005 -27.814 754.084 -27.7172 754.084H62.6613L16.1092 760.132H-27.7172C-27.814 760.132 -27.8925 760.21 -27.8925 760.307C-27.8925 760.404 -27.814 760.482 -27.7172 760.482H13.4094L-27.7407 765.828C-27.8368 765.841 -27.9045 765.929 -27.8921 766.025C-27.8796 766.121 -27.7916 766.189 -27.6955 766.176L16.1319 760.482H131.059L85.5869 767.571H-27.7172C-27.814 767.571 -27.8925 767.65 -27.8925 767.746C-27.8925 767.843 -27.814 767.922 -27.7172 767.922H83.337L29.4128 776.328H-27.7172C-27.814 776.328 -27.8925 776.407 -27.8925 776.503C-27.8925 776.6 -27.814 776.679 -27.7172 776.679H27.1629L-27.7432 785.238C-27.8389 785.253 -27.9044 785.343 -27.8895 785.438C-27.8745 785.534 -27.7849 785.6 -27.6892 785.585L29.44 776.679H165.584L113.69 786.79H-27.7172C-27.814 786.79 -27.8925 786.868 -27.8925 786.965C-27.8925 787.062 -27.814 787.141 -27.7172 787.141H111.89L48.4152 799.508H-27.7172C-27.814 799.508 -27.8925 799.587 -27.8925 799.684C-27.8925 799.78 -27.814 799.859 -27.7172 799.859H46.6151L-27.7497 814.348C-27.8448 814.367 -27.9068 814.459 -27.8883 814.554C-27.8698 814.649 -27.7777 814.711 -27.6827 814.693L48.4491 799.859H214.767L155.339 815.296H-27.7172C-27.814 815.296 -27.8925 815.374 -27.8925 815.471C-27.8925 815.568 -27.814 815.646 -27.7172 815.646H153.989L77.8695 835.418H-27.7172C-27.814 835.418 -27.8925 835.497 -27.8925 835.594C-27.8925 835.691 -27.814 835.769 -27.7172 835.769H76.5193L-24.2497 861.944H-27.7172C-27.814 861.944 -27.8925 862.023 -27.8925 862.12C-27.8925 862.216 -27.814 862.295 -27.7172 862.295H-25.6L-27.7622 862.857C-27.856 862.881 -27.9122 862.977 -27.8879 863.07C-27.8635 863.164 -27.7678 863.22 -27.6741 863.196L-24.2049 862.295H222.617L129.629 898.515H-27.7172C-27.814 898.515 -27.8925 898.594 -27.8925 898.691C-27.8925 898.788 -27.814 898.866 -27.7172 898.866H128.729L-27.458 959.704C-27.4626 959.706 -27.4672 959.707 -27.4716 959.709C-27.5564 959.747 -27.5973 959.846 -27.5632 959.933C-27.5346 960.007 -27.4619 960.05 -27.3871 960.044H345.737C345.741 960.045 345.745 960.045 345.75 960.045C345.753 960.045 345.757 960.045 345.761 960.044H718.888C718.892 960.045 718.896 960.045 718.9 960.045C718.904 960.045 718.908 960.045 718.912 960.044H1092.04C1092.05 960.045 1092.06 960.045 1092.07 960.044H1465.19C1465.21 960.046 1465.22 960.044 1465.24 960.041C1465.25 960.039 1465.26 960.036 1465.27 960.032C1465.33 960.006 1465.38 959.943 1465.38 959.869C1465.38 959.789 1465.33 959.721 1465.25 959.7L1309.34 898.866H1466.81C1466.9 898.866 1466.98 898.788 1466.98 898.691C1466.98 898.594 1466.9 898.515 1466.81 898.515H1308.44L1215.61 862.295H1462.44L1466.76 863.42C1466.86 863.444 1466.95 863.388 1466.98 863.294C1467 863.2 1466.95 863.104 1466.85 863.08L1463.83 862.295H1466.81C1466.9 862.295 1466.98 862.216 1466.98 862.12C1466.98 862.023 1466.9 861.944 1466.81 861.944H1462.48L1361.83 835.769H1466.81C1466.9 835.769 1466.98 835.691 1466.98 835.594C1466.98 835.497 1466.9 835.418 1466.81 835.418H1360.48L1284.45 815.646H1466.81C1466.9 815.646 1466.98 815.568 1466.98 815.471C1466.98 815.374 1466.9 815.296 1466.81 815.296H1283.1L1223.74 799.859H1390.06L1466.77 814.819C1466.87 814.837 1466.96 814.775 1466.98 814.68C1467 814.585 1466.94 814.493 1466.84 814.475L1391.89 799.859H1466.81C1466.9 799.859 1466.98 799.78 1466.98 799.684C1466.98 799.587 1466.9 799.508 1466.81 799.508H1390.1L1326.68 787.141H1466.81C1466.9 787.141 1466.98 787.062 1466.98 786.965C1466.98 786.868 1466.9 786.79 1466.81 786.79H1324.88L1273.03 776.679H1409.19L1466.78 785.663C1466.88 785.678 1466.97 785.612 1466.98 785.517C1467 785.421 1466.93 785.331 1466.84 785.316L1411.46 776.679H1466.81C1466.9 776.679 1466.98 776.6 1466.98 776.503C1466.98 776.407 1466.9 776.328 1466.81 776.328H1409.21L1355.32 767.922H1466.81C1466.9 767.922 1466.98 767.843 1466.98 767.746C1466.98 767.65 1466.9 767.571 1466.81 767.571H1353.07L1307.63 760.482H1422.55L1466.79 766.233C1466.88 766.245 1466.97 766.178 1466.98 766.082C1466.99 765.986 1466.93 765.898 1466.83 765.885L1425.27 760.482H1466.81C1466.9 760.482 1466.98 760.404 1466.98 760.307C1466.98 760.21 1466.9 760.132 1466.81 760.132H1422.57L1376.05 754.084H1466.81C1466.9 754.084 1466.98 754.005 1466.98 753.908C1466.98 753.812 1466.9 753.733 1466.81 753.733H1373.35L1333.25 748.521H1432.4L1466.79 752.353C1466.88 752.364 1466.97 752.294 1466.98 752.198C1466.99 752.102 1466.92 752.015 1466.83 752.004L1435.56 748.521H1466.81C1466.9 748.521 1466.98 748.442 1466.98 748.346C1466.98 748.249 1466.9 748.17 1466.81 748.17H1432.41L1391.79 743.644H1466.81C1466.9 743.644 1466.98 743.565 1466.98 743.468C1466.98 743.372 1466.9 743.293 1466.81 743.293H1388.64L1353.09 739.332H1440.02L1466.79 741.941C1466.89 741.951 1466.97 741.88 1466.98 741.784C1466.99 741.687 1466.92 741.602 1466.83 741.592L1443.63 739.332H1466.81C1466.9 739.332 1466.98 739.253 1466.98 739.156C1466.98 739.059 1466.9 738.981 1466.81 738.981H1440.03L1404.23 735.491H1466.81C1466.9 735.491 1466.98 735.412 1466.98 735.316C1466.98 735.219 1466.9 735.14 1466.81 735.14H1400.63L1368.91 732.048H1446.03L1466.79 733.847C1466.89 733.856 1466.97 733.784 1466.98 733.688C1466.99 733.591 1466.92 733.506 1466.82 733.498L1450.09 732.048H1466.81C1466.9 732.048 1466.98 731.969 1466.98 731.873C1466.98 731.776 1466.9 731.697 1466.81 731.697H1446.04L1414.25 728.943H1466.81C1466.9 728.943 1466.98 728.864 1466.98 728.767C1466.98 728.67 1466.9 728.592 1466.81 728.592H-27.7162ZM1359.09 835.418L1283.06 815.646H1096.06L1146.73 835.418H1359.09ZM1145.77 835.418L1095.1 815.646H907.688L933.003 835.418H1145.77ZM933.452 835.769H1146.67L1213.75 861.944H966.964L933.452 835.769ZM932.433 835.418L907.118 815.646H719.396L719.352 835.418H932.433ZM719.351 835.769H932.882L966.395 861.944H719.293L719.351 835.769ZM719.001 835.418L719.045 815.646H531.325L505.923 835.418H719.001ZM505.472 835.769H719L718.942 861.944H471.844L505.472 835.769ZM505.352 835.418L530.754 815.646H343.343L292.583 835.418H505.352ZM291.682 835.769H504.901L471.273 861.944H224.484L291.682 835.769ZM291.616 835.418L342.377 815.646H155.384L79.2646 835.418H291.616ZM77.9144 835.769H290.716L223.517 861.944H-22.8546L77.9144 835.769ZM1147.63 835.769H1360.44L1461.09 861.944H1214.72L1147.63 835.769ZM156.734 815.296H343.277L382.907 799.859H216.162L156.734 815.296ZM344.243 815.296H531.205L551.037 799.859H383.873L344.243 815.296ZM531.776 815.296H719.046L719.08 799.859H551.608L531.776 815.296ZM719.397 815.296H906.669L886.905 799.859H719.431L719.397 815.296ZM907.239 815.296H1094.2L1054.63 799.859H887.475L907.239 815.296ZM1095.16 815.296H1281.71L1222.35 799.859H1055.6L1095.16 815.296ZM1388.26 799.508L1324.84 787.141H1174.84L1222.4 799.508H1388.26ZM1221 799.508L1173.44 787.141H1023L1054.7 799.508H1221ZM1053.74 799.508L1022.04 787.141H871.191L887.026 799.508H1053.74ZM886.456 799.508L870.622 787.141H719.459L719.432 799.508H886.456ZM719.081 799.508L719.109 787.141H567.948L552.059 799.508H719.081ZM551.487 799.508L567.377 787.141H416.525L384.774 799.508H551.487ZM383.808 799.508L415.559 787.141H265.126L217.512 799.508H383.808ZM216.117 799.508L263.73 787.141H113.724L50.2492 799.508H216.117ZM130.596 898.515L223.583 862.295H470.822L424.288 898.515H130.596ZM424.859 898.515L471.393 862.295H718.941L718.861 898.515H424.859ZM719.212 898.515L719.292 862.295H966.844L1013.22 898.515H719.212ZM1013.79 898.515L967.413 862.295H1214.65L1307.48 898.515H1013.79ZM1323.05 786.79L1271.2 776.679H1134.61L1173.49 786.79H1323.05ZM1172.09 786.79L1133.21 776.679H996.191L1022.1 786.79H1172.09ZM1021.14 786.79L995.227 776.679H857.797L870.742 786.79H1021.14ZM870.172 786.79L857.227 776.679H719.483L719.46 786.79H870.172ZM719.109 786.79L719.132 776.679H581.389L568.398 786.79H719.109ZM567.827 786.79L580.818 776.679H443.383L417.425 786.79H567.827ZM416.459 786.79L442.417 776.679H305.402L266.476 786.79H416.459ZM265.081 786.79L304.007 776.679H167.418L115.524 786.79H265.081ZM167.384 776.328H31.6899L85.6141 767.922H210.527L167.384 776.328ZM305.357 776.328H169.218L212.361 767.922H337.719L305.357 776.328ZM443.317 776.328H306.752L339.114 767.922H464.899L443.317 776.328ZM444.284 776.328H581.268L592.068 767.922H465.865L444.284 776.328ZM581.839 776.328H719.133L719.151 767.922H592.639L581.839 776.328ZM719.483 776.328H856.778L846.015 767.922H719.502L719.483 776.328ZM857.348 776.328H994.328L972.783 767.922H846.585L857.348 776.328ZM1131.87 776.328H995.292L973.748 767.922H1099.54L1131.87 776.328ZM1269.4 776.328H1133.26L1100.93 767.922H1226.29L1269.4 776.328ZM1406.94 776.328H1271.23L1228.12 767.922H1353.05L1406.94 776.328ZM1410.19 728.943H1337.05L1365.31 731.697H1441.98L1410.19 728.943L1410.19 728.943ZM1333.44 728.943H1259.85L1284.57 731.697H1361.7L1333.44 728.943ZM1256.68 728.943H1182.64L1203.83 731.697H1281.4L1256.68 728.943ZM1179.92 728.943H1105.44L1123.1 731.697H1201.11L1179.92 728.943ZM1103.16 728.943H1028.24L1042.37 731.697H1120.82L1103.16 728.943ZM1026.41 728.943H951.045L961.637 731.697H1040.54L1026.41 728.943ZM949.651 728.943H873.849L880.909 731.697H960.243L949.651 728.943ZM872.885 728.943H796.679L800.206 731.697H879.944L872.885 728.943ZM796.109 728.943H719.589L719.583 731.697H799.636L796.109 728.943ZM719.238 728.943H642.718L639.179 731.697H719.232L719.238 728.943ZM642.147 728.943H565.935L558.863 731.697H638.608L642.147 728.943ZM564.969 728.943H489.177L478.572 731.697H557.897L564.969 728.943ZM487.782 728.943H412.416L398.278 731.697H477.177L487.782 728.943ZM410.582 728.943H335.657L317.987 731.697H396.444L410.582 728.943ZM333.38 728.943H258.906L237.703 731.697H315.709L333.38 728.943ZM256.184 728.943H182.149L157.412 731.697H234.98L256.184 728.943ZM178.98 728.943H105.392L77.1216 731.697H154.243L178.98 728.943ZM101.776 728.943H28.6357L28.6344 728.943L-3.16348 731.697H73.5049L101.776 728.943ZM18.8316 760.132L65.3838 754.084H172.104L133.309 760.132H18.8316ZM68.0836 753.733H174.354L207.789 748.521H108.203L68.0836 753.733ZM135.586 760.132L174.381 754.084H281.548L250.509 760.132H135.586ZM176.631 753.733H283.348L310.099 748.521H210.066L176.631 753.733ZM252.343 760.132L283.382 754.084H390.993L367.71 760.132H252.343ZM285.182 753.733H392.343L412.409 748.521H311.933L285.182 753.733ZM369.105 760.132L392.388 754.084H500.424L484.898 760.132H369.105ZM393.738 753.733H501.325L514.706 748.521H413.804L393.738 753.733ZM485.864 760.132L501.391 754.084H609.847L602.077 760.132H485.864ZM502.291 753.733H610.297L616.993 748.521H515.672L502.291 753.733ZM602.648 760.132L610.418 754.084H719.182L719.169 760.132H602.648ZM610.868 753.733H719.183L719.194 748.521H617.565L610.868 753.733ZM719.519 760.132L719.533 754.084H828.298L836.041 760.132H719.519ZM719.534 753.733H827.849L821.176 748.521H719.545L719.534 753.733ZM836.611 760.132L828.868 754.084H937.318L952.818 760.132H836.611ZM828.419 753.733H936.42L923.062 748.521H821.746L828.419 753.733ZM953.783 760.132L938.283 754.084H1046.33L1069.58 760.132H953.783ZM937.384 753.733H1044.98L1024.94 748.521H924.026L937.384 753.733ZM1070.98 760.132L1047.72 754.084H1155.33L1186.35 760.132H1070.98ZM1046.37 753.733H1153.53L1126.81 748.521H1026.33L1046.37 753.733ZM1188.18 760.132L1157.17 754.084H1264.34L1303.11 760.132H1188.18ZM1155.37 753.733H1262.09L1228.68 748.521H1128.64L1155.37 753.733ZM1305.38 760.132L1266.61 754.084H1373.33L1419.85 760.132H1305.38ZM1264.36 753.733H1370.63L1330.53 748.521H1230.95L1264.36 753.733ZM1350.8 767.571L1305.36 760.482H1189.98L1226.33 767.571H1350.8ZM1224.49 767.571L1188.14 760.482H1072.33L1099.58 767.571H1224.49ZM1098.19 767.571L1070.93 760.482H954.682L972.849 767.571H1098.19ZM971.885 767.571L953.717 760.482H837.06L846.136 767.571H971.885ZM845.566 767.571L836.49 760.482H719.519L719.503 767.571H845.566ZM719.152 767.571L719.168 760.482H602.197L593.09 767.571H719.152ZM592.519 767.571L601.626 760.482H484.964L466.765 767.571H592.519ZM465.799 767.571L483.998 760.482H367.755L340.465 767.571H465.799ZM339.07 767.571L366.36 760.482H250.543L214.161 767.571H339.07ZM212.328 767.571L248.709 760.482H133.336L87.864 767.571H212.328ZM-26.4653 959.694L129.695 898.866H423.837L345.689 959.694H-26.4653ZM346.26 959.694L424.408 898.866H718.86L718.725 959.694H346.26ZM719.076 959.694L719.211 898.866H1013.67L1091.55 959.694H719.076ZM1092.12 959.694L1014.24 898.866H1308.38L1464.27 959.694H1092.12ZM1397.02 735.14L1365.29 732.048H1287.72L1315.47 735.14H1397.02ZM1312.3 735.14L1284.55 732.048H1206.53L1230.32 735.14H1312.3ZM1233.02 735.491H1315.45L1346.77 738.981H1259.86L1233.02 735.491ZM1227.6 735.14L1203.81 732.048H1125.35L1145.17 735.14H1227.6ZM1147.42 735.491H1230.3L1257.14 738.981H1169.79L1147.42 735.491ZM1142.9 735.14L1123.07 732.048H1044.17L1060.03 735.14H1142.9ZM1061.82 735.491H1145.14L1167.52 738.981H1079.72L1061.82 735.491ZM1058.19 735.14L1042.34 732.048H962.986L974.877 735.14H1058.19ZM976.226 735.491H1059.99L1077.89 738.981H989.645L976.226 735.491ZM973.483 735.14L961.592 732.048H881.808L889.733 735.14H973.483ZM890.632 735.491H974.832L988.252 738.981H899.576L890.632 735.491ZM888.769 735.14L880.843 732.048H800.655L804.614 735.14H888.769ZM805.063 735.491H889.667L898.611 738.981H809.531L805.063 735.491ZM804.044 735.14L800.085 732.048H719.582L719.575 735.14H804.044ZM719.574 735.491H804.493L808.961 738.981H719.566L719.574 735.491ZM719.224 735.14L719.231 732.048H638.728L634.755 735.14H719.224ZM634.305 735.491H719.223L719.216 738.981H629.821L634.305 735.491ZM634.184 735.14L638.157 732.048H557.963L550.024 735.14H634.184ZM549.123 735.491H633.734L629.25 738.981H540.164L549.123 735.491ZM549.057 735.14L556.996 732.048H477.222L465.317 735.14H549.057ZM463.967 735.491H548.157L539.198 738.981H450.532L463.967 735.491ZM463.922 735.14L475.827 732.048H396.478L380.607 735.14H463.922ZM378.807 735.491H462.572L449.136 738.981H360.896L378.807 735.491ZM378.773 735.14L394.644 732.048H315.737L295.9 735.14H378.773ZM293.65 735.491H376.973L359.062 738.981H271.263L293.65 735.491ZM293.623 735.14L313.46 732.048H235.003L211.2 735.14H293.623ZM208.5 735.491H291.373L268.986 738.981H181.637L208.5 735.491ZM208.477 735.14L232.281 732.048H154.263L126.493 735.14H208.477ZM123.343 735.491H205.778L178.915 738.981H92.0047L123.343 735.491ZM123.324 735.14L151.094 732.048H73.522L41.7848 735.14H123.324ZM38.1852 735.491H120.174L88.8355 738.981H2.36901L38.1852 735.491ZM1318.62 735.491H1400.62L1436.42 738.981H1349.94L1318.62 735.491ZM1429.25 748.17L1388.62 743.644H1295.74L1330.56 748.17H1429.25ZM1327.84 748.17L1293.02 743.644H1199.69L1228.7 748.17H1327.84ZM1226.43 748.17L1197.41 743.644H1103.63L1126.84 748.17H1226.43ZM1125.01 748.17L1101.8 743.644H1007.58L1024.98 748.17H1125.01ZM1023.59 748.17L1006.18 743.644H911.527L923.128 748.17H1023.59ZM922.163 748.17L910.562 743.644H815.501L821.297 748.17H922.163ZM820.727 748.17L814.932 743.644H719.556L719.546 748.17H820.727ZM719.195 748.17L719.205 743.644H623.83L618.015 748.17H719.195ZM617.444 748.17L623.259 743.644H528.193L516.572 748.17H617.444ZM515.606 748.17L527.227 743.644H432.58L415.154 748.17H515.606ZM413.759 748.17L431.185 743.644H336.964L313.733 748.17H413.759ZM311.899 748.17L335.13 743.644H241.351L212.316 748.17H311.899ZM210.039 748.17L239.074 743.644H145.745L110.903 748.17H210.039ZM108.181 748.17L143.022 743.644H50.1307L9.48336 748.17H108.181ZM145.722 743.293H53.2803L88.855 739.332H176.215L145.722 743.293ZM148.444 743.293H241.324L266.736 739.332H178.938L148.444 743.293ZM243.601 743.293H336.93L357.262 739.332H269.014L243.601 743.293ZM338.764 743.293H432.535L447.786 739.332H359.096L338.764 743.293ZM433.93 743.293H528.127L538.297 739.332H449.181L433.93 743.293ZM529.093 743.293H623.71L628.8 739.332H539.264L529.093 743.293ZM624.281 743.293H719.206L719.215 739.332H629.371L624.281 743.293ZM719.557 743.293H814.482L809.41 739.332H719.566L719.557 743.293ZM815.052 743.293H909.663L899.51 739.332H809.98L815.052 743.293ZM910.628 743.293H1004.83L989.601 739.332H900.475L910.628 743.293ZM1006.23 743.293H1100L1079.69 739.332H990.994L1006.23 743.293ZM1101.83 743.293H1195.16L1169.77 739.332H1081.52L1101.83 743.293ZM1197.44 743.293H1290.32L1259.84 739.332H1172.04L1197.44 743.293ZM1385.48 743.293H1293.04L1262.56 739.332H1349.92L1385.48 743.293Z" fill="url(#paint0_linear_2177_4538)"/>
<path fill-rule="evenodd" clip-rule="evenodd" d="M-27.7162 728.592C-27.813 728.592 -27.8916 728.67 -27.8916 728.767C-27.8916 728.864 -27.813 728.943 -27.7162 728.943H24.5717L-7.22757 731.697H-27.7172C-27.814 731.697 -27.8925 731.776 -27.8925 731.873C-27.8925 731.969 -27.814 732.048 -27.7172 732.048H-11.2765L-27.7333 733.473C-27.8298 733.482 -27.9012 733.567 -27.8929 733.663C-27.8845 733.76 -27.7995 733.831 -27.703 733.823L-7.21241 732.048H69.9053L38.1681 735.14H-27.7172C-27.814 735.14 -27.8925 735.219 -27.8925 735.316C-27.8925 735.412 -27.814 735.491 -27.7172 735.491H34.5685L-1.24768 738.981H-27.7172C-27.814 738.981 -27.8925 739.059 -27.8925 739.156C-27.8925 739.253 -27.814 739.332 -27.7172 739.332H-4.84732L-27.7351 741.562C-27.8315 741.571 -27.9021 741.657 -27.8927 741.753C-27.8833 741.85 -27.7975 741.92 -27.7011 741.911L-1.23063 739.332H85.6859L50.1112 743.293H-27.7172C-27.814 743.293 -27.8925 743.372 -27.8925 743.468C-27.8925 743.565 -27.814 743.644 -27.7172 743.644H46.9615L6.31424 748.17H-27.7172C-27.814 748.17 -27.8925 748.249 -27.8925 748.346C-27.8925 748.442 -27.814 748.521 -27.7172 748.521H3.16457L-27.7376 751.962C-27.8338 751.973 -27.9032 752.06 -27.8924 752.156C-27.8817 752.252 -27.795 752.321 -27.6987 752.311L6.33369 748.521H105.481L65.3611 753.733H-27.7172C-27.814 753.733 -27.8925 753.812 -27.8925 753.908C-27.8925 754.005 -27.814 754.084 -27.7172 754.084H62.6613L16.1092 760.132H-27.7172C-27.814 760.132 -27.8925 760.21 -27.8925 760.307C-27.8925 760.404 -27.814 760.482 -27.7172 760.482H13.4094L-27.7407 765.828C-27.8368 765.841 -27.9045 765.929 -27.8921 766.025C-27.8796 766.121 -27.7916 766.189 -27.6955 766.176L16.1319 760.482H131.059L85.5869 767.571H-27.7172C-27.814 767.571 -27.8925 767.65 -27.8925 767.746C-27.8925 767.843 -27.814 767.922 -27.7172 767.922H83.337L29.4128 776.328H-27.7172C-27.814 776.328 -27.8925 776.407 -27.8925 776.503C-27.8925 776.6 -27.814 776.679 -27.7172 776.679H27.1629L-27.7432 785.238C-27.8389 785.253 -27.9044 785.343 -27.8895 785.438C-27.8745 785.534 -27.7849 785.6 -27.6892 785.585L29.44 776.679H165.584L113.69 786.79H-27.7172C-27.814 786.79 -27.8925 786.868 -27.8925 786.965C-27.8925 787.062 -27.814 787.141 -27.7172 787.141H111.89L48.4152 799.508H-27.7172C-27.814 799.508 -27.8925 799.587 -27.8925 799.684C-27.8925 799.78 -27.814 799.859 -27.7172 799.859H46.6151L-27.7497 814.348C-27.8448 814.367 -27.9068 814.459 -27.8883 814.554C-27.8698 814.649 -27.7777 814.711 -27.6827 814.693L48.4491 799.859H214.767L155.339 815.296H-27.7172C-27.814 815.296 -27.8925 815.374 -27.8925 815.471C-27.8925 815.568 -27.814 815.646 -27.7172 815.646H153.989L77.8695 835.418H-27.7172C-27.814 835.418 -27.8925 835.497 -27.8925 835.594C-27.8925 835.691 -27.814 835.769 -27.7172 835.769H76.5193L-24.2497 861.944H-27.7172C-27.814 861.944 -27.8925 862.023 -27.8925 862.12C-27.8925 862.216 -27.814 862.295 -27.7172 862.295H-25.6L-27.7622 862.857C-27.856 862.881 -27.9122 862.977 -27.8879 863.07C-27.8635 863.164 -27.7678 863.22 -27.6741 863.196L-24.2049 862.295H222.617L129.629 898.515H-27.7172C-27.814 898.515 -27.8925 898.594 -27.8925 898.691C-27.8925 898.788 -27.814 898.866 -27.7172 898.866H128.729L-27.458 959.704C-27.4626 959.706 -27.4672 959.707 -27.4716 959.709C-27.5564 959.747 -27.5973 959.846 -27.5632 959.933C-27.5346 960.007 -27.4619 960.05 -27.3871 960.044H345.737C345.741 960.045 345.745 960.045 345.75 960.045C345.753 960.045 345.757 960.045 345.761 960.044H718.888C718.892 960.045 718.896 960.045 718.9 960.045C718.904 960.045 718.908 960.045 718.912 960.044H1092.04C1092.05 960.045 1092.06 960.045 1092.07 960.044H1465.19C1465.21 960.046 1465.22 960.044 1465.24 960.041C1465.25 960.039 1465.26 960.036 1465.27 960.032C1465.33 960.006 1465.38 959.943 1465.38 959.869C1465.38 959.789 1465.33 959.721 1465.25 959.7L1309.34 898.866H1466.81C1466.9 898.866 1466.98 898.788 1466.98 898.691C1466.98 898.594 1466.9 898.515 1466.81 898.515H1308.44L1215.61 862.295H1462.44L1466.76 863.42C1466.86 863.444 1466.95 863.388 1466.98 863.294C1467 863.2 1466.95 863.104 1466.85 863.08L1463.83 862.295H1466.81C1466.9 862.295 1466.98 862.216 1466.98 862.12C1466.98 862.023 1466.9 861.944 1466.81 861.944H1462.48L1361.83 835.769H1466.81C1466.9 835.769 1466.98 835.691 1466.98 835.594C1466.98 835.497 1466.9 835.418 1466.81 835.418H1360.48L1284.45 815.646H1466.81C1466.9 815.646 1466.98 815.568 1466.98 815.471C1466.98 815.374 1466.9 815.296 1466.81 815.296H1283.1L1223.74 799.859H1390.06L1466.77 814.819C1466.87 814.837 1466.96 814.775 1466.98 814.68C1467 814.585 1466.94 814.493 1466.84 814.475L1391.89 799.859H1466.81C1466.9 799.859 1466.98 799.78 1466.98 799.684C1466.98 799.587 1466.9 799.508 1466.81 799.508H1390.1L1326.68 787.141H1466.81C1466.9 787.141 1466.98 787.062 1466.98 786.965C1466.98 786.868 1466.9 786.79 1466.81 786.79H1324.88L1273.03 776.679H1409.19L1466.78 785.663C1466.88 785.678 1466.97 785.612 1466.98 785.517C1467 785.421 1466.93 785.331 1466.84 785.316L1411.46 776.679H1466.81C1466.9 776.679 1466.98 776.6 1466.98 776.503C1466.98 776.407 1466.9 776.328 1466.81 776.328H1409.21L1355.32 767.922H1466.81C1466.9 767.922 1466.98 767.843 1466.98 767.746C1466.98 767.65 1466.9 767.571 1466.81 767.571H1353.07L1307.63 760.482H1422.55L1466.79 766.233C1466.88 766.245 1466.97 766.178 1466.98 766.082C1466.99 765.986 1466.93 765.898 1466.83 765.885L1425.27 760.482H1466.81C1466.9 760.482 1466.98 760.404 1466.98 760.307C1466.98 760.21 1466.9 760.132 1466.81 760.132H1422.57L1376.05 754.084H1466.81C1466.9 754.084 1466.98 754.005 1466.98 753.908C1466.98 753.812 1466.9 753.733 1466.81 753.733H1373.35L1333.25 748.521H1432.4L1466.79 752.353C1466.88 752.364 1466.97 752.294 1466.98 752.198C1466.99 752.102 1466.92 752.015 1466.83 752.004L1435.56 748.521H1466.81C1466.9 748.521 1466.98 748.442 1466.98 748.346C1466.98 748.249 1466.9 748.17 1466.81 748.17H1432.41L1391.79 743.644H1466.81C1466.9 743.644 1466.98 743.565 1466.98 743.468C1466.98 743.372 1466.9 743.293 1466.81 743.293H1388.64L1353.09 739.332H1440.02L1466.79 741.941C1466.89 741.951 1466.97 741.88 1466.98 741.784C1466.99 741.687 1466.92 741.602 1466.83 741.592L1443.63 739.332H1466.81C1466.9 739.332 1466.98 739.253 1466.98 739.156C1466.98 739.059 1466.9 738.981 1466.81 738.981H1440.03L1404.23 735.491H1466.81C1466.9 735.491 1466.98 735.412 1466.98 735.316C1466.98 735.219 1466.9 735.14 1466.81 735.14H1400.63L1368.91 732.048H1446.03L1466.79 733.847C1466.89 733.856 1466.97 733.784 1466.98 733.688C1466.99 733.591 1466.92 733.506 1466.82 733.498L1450.09 732.048H1466.81C1466.9 732.048 1466.98 731.969 1466.98 731.873C1466.98 731.776 1466.9 731.697 1466.81 731.697H1446.04L1414.25 728.943H1466.81C1466.9 728.943 1466.98 728.864 1466.98 728.767C1466.98 728.67 1466.9 728.592 1466.81 728.592H-27.7162ZM1359.09 835.418L1283.06 815.646H1096.06L1146.73 835.418H1359.09ZM1145.77 835.418L1095.1 815.646H907.688L933.003 835.418H1145.77ZM933.452 835.769H1146.67L1213.75 861.944H966.964L933.452 835.769ZM932.433 835.418L907.118 815.646H719.396L719.352 835.418H932.433ZM719.351 835.769H932.882L966.395 861.944H719.293L719.351 835.769ZM719.001 835.418L719.045 815.646H531.325L505.923 835.418H719.001ZM505.472 835.769H719L718.942 861.944H471.844L505.472 835.769ZM505.352 835.418L530.754 815.646H343.343L292.583 835.418H505.352ZM291.682 835.769H504.901L471.273 861.944H224.484L291.682 835.769ZM291.616 835.418L342.377 815.646H155.384L79.2646 835.418H291.616ZM77.9144 835.769H290.716L223.517 861.944H-22.8546L77.9144 835.769ZM1147.63 835.769H1360.44L1461.09 861.944H1214.72L1147.63 835.769ZM156.734 815.296H343.277L382.907 799.859H216.162L156.734 815.296ZM344.243 815.296H531.205L551.037 799.859H383.873L344.243 815.296ZM531.776 815.296H719.046L719.08 799.859H551.608L531.776 815.296ZM719.397 815.296H906.669L886.905 799.859H719.431L719.397 815.296ZM907.239 815.296H1094.2L1054.63 799.859H887.475L907.239 815.296ZM1095.16 815.296H1281.71L1222.35 799.859H1055.6L1095.16 815.296ZM1388.26 799.508L1324.84 787.141H1174.84L1222.4 799.508H1388.26ZM1221 799.508L1173.44 787.141H1023L1054.7 799.508H1221ZM1053.74 799.508L1022.04 787.141H871.191L887.026 799.508H1053.74ZM886.456 799.508L870.622 787.141H719.459L719.432 799.508H886.456ZM719.081 799.508L719.109 787.141H567.948L552.059 799.508H719.081ZM551.487 799.508L567.377 787.141H416.525L384.774 799.508H551.487ZM383.808 799.508L415.559 787.141H265.126L217.512 799.508H383.808ZM216.117 799.508L263.73 787.141H113.724L50.2492 799.508H216.117ZM130.596 898.515L223.583 862.295H470.822L424.288 898.515H130.596ZM424.859 898.515L471.393 862.295H718.941L718.861 898.515H424.859ZM719.212 898.515L719.292 862.295H966.844L1013.22 898.515H719.212ZM1013.79 898.515L967.413 862.295H1214.65L1307.48 898.515H1013.79ZM1323.05 786.79L1271.2 776.679H1134.61L1173.49 786.79H1323.05ZM1172.09 786.79L1133.21 776.679H996.191L1022.1 786.79H1172.09ZM1021.14 786.79L995.227 776.679H857.797L870.742 786.79H1021.14ZM870.172 786.79L857.227 776.679H719.483L719.46 786.79H870.172ZM719.109 786.79L719.132 776.679H581.389L568.398 786.79H719.109ZM567.827 786.79L580.818 776.679H443.383L417.425 786.79H567.827ZM416.459 786.79L442.417 776.679H305.402L266.476 786.79H416.459ZM265.081 786.79L304.007 776.679H167.418L115.524 786.79H265.081ZM167.384 776.328H31.6899L85.6141 767.922H210.527L167.384 776.328ZM305.357 776.328H169.218L212.361 767.922H337.719L305.357 776.328ZM443.317 776.328H306.752L339.114 767.922H464.899L443.317 776.328ZM444.284 776.328H581.268L592.068 767.922H465.865L444.284 776.328ZM581.839 776.328H719.133L719.151 767.922H592.639L581.839 776.328ZM719.483 776.328H856.778L846.015 767.922H719.502L719.483 776.328ZM857.348 776.328H994.328L972.783 767.922H846.585L857.348 776.328ZM1131.87 776.328H995.292L973.748 767.922H1099.54L1131.87 776.328ZM1269.4 776.328H1133.26L1100.93 767.922H1226.29L1269.4 776.328ZM1406.94 776.328H1271.23L1228.12 767.922H1353.05L1406.94 776.328ZM1410.19 728.943H1337.05L1365.31 731.697H1441.98L1410.19 728.943L1410.19 728.943ZM1333.44 728.943H1259.85L1284.57 731.697H1361.7L1333.44 728.943ZM1256.68 728.943H1182.64L1203.83 731.697H1281.4L1256.68 728.943ZM1179.92 728.943H1105.44L1123.1 731.697H1201.11L1179.92 728.943ZM1103.16 728.943H1028.24L1042.37 731.697H1120.82L1103.16 728.943ZM1026.41 728.943H951.045L961.637 731.697H1040.54L1026.41 728.943ZM949.651 728.943H873.849L880.909 731.697H960.243L949.651 728.943ZM872.885 728.943H796.679L800.206 731.697H879.944L872.885 728.943ZM796.109 728.943H719.589L719.583 731.697H799.636L796.109 728.943ZM719.238 728.943H642.718L639.179 731.697H719.232L719.238 728.943ZM642.147 728.943H565.935L558.863 731.697H638.608L642.147 728.943ZM564.969 728.943H489.177L478.572 731.697H557.897L564.969 728.943ZM487.782 728.943H412.416L398.278 731.697H477.177L487.782 728.943ZM410.582 728.943H335.657L317.987 731.697H396.444L410.582 728.943ZM333.38 728.943H258.906L237.703 731.697H315.709L333.38 728.943ZM256.184 728.943H182.149L157.412 731.697H234.98L256.184 728.943ZM178.98 728.943H105.392L77.1216 731.697H154.243L178.98 728.943ZM101.776 728.943H28.6357L28.6344 728.943L-3.16348 731.697H73.5049L101.776 728.943ZM18.8316 760.132L65.3838 754.084H172.104L133.309 760.132H18.8316ZM68.0836 753.733H174.354L207.789 748.521H108.203L68.0836 753.733ZM135.586 760.132L174.381 754.084H281.548L250.509 760.132H135.586ZM176.631 753.733H283.348L310.099 748.521H210.066L176.631 753.733ZM252.343 760.132L283.382 754.084H390.993L367.71 760.132H252.343ZM285.182 753.733H392.343L412.409 748.521H311.933L285.182 753.733ZM369.105 760.132L392.388 754.084H500.424L484.898 760.132H369.105ZM393.738 753.733H501.325L514.706 748.521H413.804L393.738 753.733ZM485.864 760.132L501.391 754.084H609.847L602.077 760.132H485.864ZM502.291 753.733H610.297L616.993 748.521H515.672L502.291 753.733ZM602.648 760.132L610.418 754.084H719.182L719.169 760.132H602.648ZM610.868 753.733H719.183L719.194 748.521H617.565L610.868 753.733ZM719.519 760.132L719.533 754.084H828.298L836.041 760.132H719.519ZM719.534 753.733H827.849L821.176 748.521H719.545L719.534 753.733ZM836.611 760.132L828.868 754.084H937.318L952.818 760.132H836.611ZM828.419 753.733H936.42L923.062 748.521H821.746L828.419 753.733ZM953.783 760.132L938.283 754.084H1046.33L1069.58 760.132H953.783ZM937.384 753.733H1044.98L1024.94 748.521H924.026L937.384 753.733ZM1070.98 760.132L1047.72 754.084H1155.33L1186.35 760.132H1070.98ZM1046.37 753.733H1153.53L1126.81 748.521H1026.33L1046.37 753.733ZM1188.18 760.132L1157.17 754.084H1264.34L1303.11 760.132H1188.18ZM1155.37 753.733H1262.09L1228.68 748.521H1128.64L1155.37 753.733ZM1305.38 760.132L1266.61 754.084H1373.33L1419.85 760.132H1305.38ZM1264.36 753.733H1370.63L1330.53 748.521H1230.95L1264.36 753.733ZM1350.8 767.571L1305.36 760.482H1189.98L1226.33 767.571H1350.8ZM1224.49 767.571L1188.14 760.482H1072.33L1099.58 767.571H1224.49ZM1098.19 767.571L1070.93 760.482H954.682L972.849 767.571H1098.19ZM971.885 767.571L953.717 760.482H837.06L846.136 767.571H971.885ZM845.566 767.571L836.49 760.482H719.519L719.503 767.571H845.566ZM719.152 767.571L719.168 760.482H602.197L593.09 767.571H719.152ZM592.519 767.571L601.626 760.482H484.964L466.765 767.571H592.519ZM465.799 767.571L483.998 760.482H367.755L340.465 767.571H465.799ZM339.07 767.571L366.36 760.482H250.543L214.161 767.571H339.07ZM212.328 767.571L248.709 760.482H133.336L87.864 767.571H212.328ZM-26.4653 959.694L129.695 898.866H423.837L345.689 959.694H-26.4653ZM346.26 959.694L424.408 898.866H718.86L718.725 959.694H346.26ZM719.076 959.694L719.211 898.866H1013.67L1091.55 959.694H719.076ZM1092.12 959.694L1014.24 898.866H1308.38L1464.27 959.694H1092.12ZM1397.02 735.14L1365.29 732.048H1287.72L1315.47 735.14H1397.02ZM1312.3 735.14L1284.55 732.048H1206.53L1230.32 735.14H1312.3ZM1233.02 735.491H1315.45L1346.77 738.981H1259.86L1233.02 735.491ZM1227.6 735.14L1203.81 732.048H1125.35L1145.17 735.14H1227.6ZM1147.42 735.491H1230.3L1257.14 738.981H1169.79L1147.42 735.491ZM1142.9 735.14L1123.07 732.048H1044.17L1060.03 735.14H1142.9ZM1061.82 735.491H1145.14L1167.52 738.981H1079.72L1061.82 735.491ZM1058.19 735.14L1042.34 732.048H962.986L974.877 735.14H1058.19ZM976.226 735.491H1059.99L1077.89 738.981H989.645L976.226 735.491ZM973.483 735.14L961.592 732.048H881.808L889.733 735.14H973.483ZM890.632 735.491H974.832L988.252 738.981H899.576L890.632 735.491ZM888.769 735.14L880.843 732.048H800.655L804.614 735.14H888.769ZM805.063 735.491H889.667L898.611 738.981H809.531L805.063 735.491ZM804.044 735.14L800.085 732.048H719.582L719.575 735.14H804.044ZM719.574 735.491H804.493L808.961 738.981H719.566L719.574 735.491ZM719.224 735.14L719.231 732.048H638.728L634.755 735.14H719.224ZM634.305 735.491H719.223L719.216 738.981H629.821L634.305 735.491ZM634.184 735.14L638.157 732.048H557.963L550.024 735.14H634.184ZM549.123 735.491H633.734L629.25 738.981H540.164L549.123 735.491ZM549.057 735.14L556.996 732.048H477.222L465.317 735.14H549.057ZM463.967 735.491H548.157L539.198 738.981H450.532L463.967 735.491ZM463.922 735.14L475.827 732.048H396.478L380.607 735.14H463.922ZM378.807 735.491H462.572L449.136 738.981H360.896L378.807 735.491ZM378.773 735.14L394.644 732.048H315.737L295.9 735.14H378.773ZM293.65 735.491H376.973L359.062 738.981H271.263L293.65 735.491ZM293.623 735.14L313.46 732.048H235.003L211.2 735.14H293.623ZM208.5 735.491H291.373L268.986 738.981H181.637L208.5 735.491ZM208.477 735.14L232.281 732.048H154.263L126.493 735.14H208.477ZM123.343 735.491H205.778L178.915 738.981H92.0047L123.343 735.491ZM123.324 735.14L151.094 732.048H73.522L41.7848 735.14H123.324ZM38.1852 735.491H120.174L88.8355 738.981H2.36901L38.1852 735.491ZM1318.62 735.491H1400.62L1436.42 738.981H1349.94L1318.62 735.491ZM1429.25 748.17L1388.62 743.644H1295.74L1330.56 748.17H1429.25ZM1327.84 748.17L1293.02 743.644H1199.69L1228.7 748.17H1327.84ZM1226.43 748.17L1197.41 743.644H1103.63L1126.84 748.17H1226.43ZM1125.01 748.17L1101.8 743.644H1007.58L1024.98 748.17H1125.01ZM1023.59 748.17L1006.18 743.644H911.527L923.128 748.17H1023.59ZM922.163 748.17L910.562 743.644H815.501L821.297 748.17H922.163ZM820.727 748.17L814.932 743.644H719.556L719.546 748.17H820.727ZM719.195 748.17L719.205 743.644H623.83L618.015 748.17H719.195ZM617.444 748.17L623.259 743.644H528.193L516.572 748.17H617.444ZM515.606 748.17L527.227 743.644H432.58L415.154 748.17H515.606ZM413.759 748.17L431.185 743.644H336.964L313.733 748.17H413.759ZM311.899 748.17L335.13 743.644H241.351L212.316 748.17H311.899ZM210.039 748.17L239.074 743.644H145.745L110.903 748.17H210.039ZM108.181 748.17L143.022 743.644H50.1307L9.48336 748.17H108.181ZM145.722 743.293H53.2803L88.855 739.332H176.215L145.722 743.293ZM148.444 743.293H241.324L266.736 739.332H178.938L148.444 743.293ZM243.601 743.293H336.93L357.262 739.332H269.014L243.601 743.293ZM338.764 743.293H432.535L447.786 739.332H359.096L338.764 743.293ZM433.93 743.293H528.127L538.297 739.332H449.181L433.93 743.293ZM529.093 743.293H623.71L628.8 739.332H539.264L529.093 743.293ZM624.281 743.293H719.206L719.215 739.332H629.371L624.281 743.293ZM719.557 743.293H814.482L809.41 739.332H719.566L719.557 743.293ZM815.052 743.293H909.663L899.51 739.332H809.98L815.052 743.293ZM910.628 743.293H1004.83L989.601 739.332H900.475L910.628 743.293ZM1006.23 743.293H1100L1079.69 739.332H990.994L1006.23 743.293ZM1101.83 743.293H1195.16L1169.77 739.332H1081.52L1101.83 743.293ZM1197.44 743.293H1290.32L1259.84 739.332H1172.04L1197.44 743.293ZM1385.48 743.293H1293.04L1262.56 739.332H1349.92L1385.48 743.293Z" fill="url(#paint1_linear_2177_4538)"/>
<g style="mix-blend-mode:screen" filter="url(#filter0_f_2177_4538)">
<path d="M601.582 712.793C757.203 272.678 1092.21 63.7168 1176.24 5.73408L105.011 337.356L262.574 1278.22C492.985 1225.25 454.523 1128.69 601.582 712.793Z" fill="url(#paint2_radial_2177_4538)" fill-opacity="0.3"/>
</g>
<circle cx="673.677" cy="431.962" r="1.50268" transform="rotate(-180 673.677 431.962)" fill="#6042FF" fill-opacity="0.15"/>
<circle cx="721.759" cy="419.941" r="1.50268" transform="rotate(-180 721.759 419.941)" fill="#6042FF" fill-opacity="0.6"/>
<circle cx="509.455" cy="428.339" r="1.50268" transform="rotate(-180 509.455 428.339)" fill="#6042FF" fill-opacity="0.3"/>
<circle cx="485.111" cy="575.641" r="2.2537" transform="rotate(-180 485.111 575.641)" fill="#6042FF" fill-opacity="0.3"/>
<circle cx="584.655" cy="603.049" r="2.2537" transform="rotate(-180 584.655 603.049)" fill="#6042FF" fill-opacity="0.3"/>
<circle cx="622.339" cy="424.699" r="2.2537" transform="rotate(-180 622.339 424.699)" fill="#6042FF" fill-opacity="0.15"/>
<circle cx="522.168" cy="627.043" r="2.2537" transform="rotate(-180 522.168 627.043)" fill="#6042FF" fill-opacity="0.1"/>
<circle cx="572.847" cy="584.113" r="2.2537" transform="rotate(-180 572.847 584.113)" fill="#6042FF" fill-opacity="0.15"/>
<circle cx="521.894" cy="479.223" r="2.2537" transform="rotate(-180 521.894 479.223)" fill="#6042FF" fill-opacity="0.1"/>
<circle cx="479.052" cy="449.373" r="2.2537" transform="rotate(-180 479.052 449.373)" fill="#6042FF" fill-opacity="0.3"/>
<circle cx="568.247" cy="382.627" r="2.2537" transform="rotate(-180 568.247 382.627)" fill="#6042FF" fill-opacity="0.7"/>
<circle cx="801.143" cy="661.602" r="0.751028" transform="rotate(-180 801.143 661.602)" fill="#6042FF" fill-opacity="0.15"/>
<circle cx="732.862" cy="627.497" r="0.751028" transform="rotate(-180 732.862 627.497)" fill="#6042FF" fill-opacity="0.3"/>
<circle cx="806.82" cy="568.7" r="0.751028" transform="rotate(-180 806.82 568.7)" fill="#6042FF" fill-opacity="0.1"/>
<circle cx="629.618" cy="501.765" r="0.751028" transform="rotate(-180 629.618 501.765)" fill="#6042FF" fill-opacity="0.3"/>
<circle cx="794.614" cy="603.981" r="0.751028" transform="rotate(-180 794.614 603.981)" fill="#6042FF" fill-opacity="0.6"/>
<circle cx="579.677" cy="613.685" r="0.751028" transform="rotate(-180 579.677 613.685)" fill="#6042FF" fill-opacity="0.1"/>
<circle cx="557.202" cy="408.753" r="0.751028" transform="rotate(-180 557.202 408.753)" fill="#6042FF" fill-opacity="0.15"/>
<circle cx="578.844" cy="536.087" r="0.751028" transform="rotate(-180 578.844 536.087)" fill="#6042FF" fill-opacity="0.1"/>
<circle cx="813.164" cy="459.257" r="0.751028" transform="rotate(-180 813.164 459.257)" fill="#6042FF" fill-opacity="0.3"/>
<circle cx="713.634" cy="681.548" r="0.751028" transform="rotate(-180 713.634 681.548)" fill="#6042FF" fill-opacity="0.3"/>
<circle cx="706.687" cy="483.784" r="0.751028" transform="rotate(-180 706.687 483.784)" fill="#6042FF" fill-opacity="0.7"/>
<circle cx="837.205" cy="513.351" r="0.751028" transform="rotate(-180 837.205 513.351)" fill="#6042FF" fill-opacity="0.15"/>
<circle cx="488.611" cy="519.36" r="0.751028" transform="rotate(-180 488.611 519.36)" fill="#6042FF" fill-opacity="0.1"/>
<circle cx="532.287" cy="563.968" r="0.751028" transform="rotate(-180 532.287 563.968)" fill="#6042FF" fill-opacity="0.3"/>
<circle cx="773.981" cy="384.487" r="0.751028" transform="rotate(-180 773.981 384.487)" fill="#6042FF" fill-opacity="0.1"/>
<circle cx="705.02" cy="572.011" r="0.751028" transform="rotate(-180 705.02 572.011)" fill="#6042FF" fill-opacity="0.15"/>
<circle cx="544.707" cy="429.206" r="0.751028" transform="rotate(-180 544.707 429.206)" fill="#6042FF" fill-opacity="0.3"/>
<circle cx="704.972" cy="469.06" r="0.751028" transform="rotate(-180 704.972 469.06)" fill="#6042FF" fill-opacity="0.1"/>
<circle cx="727.695" cy="478.108" r="0.751028" transform="rotate(-180 727.695 478.108)" fill="#6042FF" fill-opacity="0.3"/>
<circle cx="484.604" cy="495.319" r="0.751028" transform="rotate(-180 484.604 495.319)" fill="#6042FF" fill-opacity="0.15"/>
<circle cx="681.926" cy="369.929" r="0.751028" transform="rotate(-180 681.926 369.929)" fill="#6042FF" fill-opacity="0.1"/>
<circle cx="671.101" cy="421.698" r="0.751028" transform="rotate(-180 671.101 421.698)" fill="#6042FF" fill-opacity="0.1"/>
<circle cx="478.595" cy="653.589" r="0.751028" transform="rotate(-180 478.595 653.589)" fill="#6042FF" fill-opacity="0.3"/>
<circle cx="528.043" cy="374.688" r="0.751028" transform="rotate(-180 528.043 374.688)" fill="#6042FF" fill-opacity="0.1"/>
<path d="M833.95 413.43L832.649 411.176L835.252 411.176L833.95 413.43Z" fill="#6042FF" fill-opacity="0.6"/>
<circle cx="570.751" cy="481.296" r="0.751028" transform="rotate(-180 570.751 481.296)" fill="#6042FF" fill-opacity="0.1"/>
<path d="M469.328 407.42L468.027 405.166L470.63 405.166L469.328 407.42Z" fill="#6042FF" fill-opacity="0.1"/>
<path d="M470.84 370.426L470.521 369.242L469.337 368.923L470.521 368.604L470.84 367.42L471.159 368.604L472.343 368.923L471.159 369.242L470.84 370.426Z" fill="#6042FF" fill-opacity="0.1"/>
<path d="M769.841 425.451L769.522 424.267L768.338 423.948L769.522 423.63L769.841 422.446L770.16 423.63L771.344 423.948L770.16 424.267L769.841 425.451Z" fill="#6042FF" fill-opacity="0.6"/>
<path d="M656.049 489.414L655.73 488.23L654.546 487.911L655.73 487.593L656.049 486.409L656.368 487.593L657.552 487.911L656.368 488.23L656.049 489.414Z" fill="#6042FF" fill-opacity="0.1"/>
<path d="M727.769 379.371L727.45 378.187L726.266 377.868L727.45 377.55L727.769 376.366L728.088 377.55L729.271 377.868L728.088 378.187L727.769 379.371Z" fill="#6042FF" fill-opacity="0.8"/>
<path d="M706.982 596.891L706.663 595.707L705.479 595.388L706.663 595.069L706.982 593.885L707.3 595.069L708.484 595.388L707.3 595.707L706.982 596.891Z" fill="#6042FF" fill-opacity="0.15"/>
<path d="M578.664 449.17L578.346 447.986L577.162 447.667L578.346 447.348L578.664 446.165L578.983 447.348L580.167 447.667L578.983 447.986L578.664 449.17Z" fill="#6042FF" fill-opacity="0.3"/>
<circle cx="833.198" cy="467.27" r="0.751028" transform="rotate(-180 833.198 467.27)" fill="#6042FF" fill-opacity="0.3"/>
<path d="M848.616 601.138C831.581 538.131 778.053 399.083 700.222 346.945" stroke="url(#paint3_linear_2177_4538)" stroke-opacity="0.1" stroke-width="4.00683"/>
<path d="M590.248 340.518C589.756 390.573 554.151 515.325 415.665 613.889" stroke="url(#paint4_linear_2177_4538)" stroke-opacity="0.1" stroke-width="4.00683"/>
<defs>
<filter id="filter0_f_2177_4538" x="-43.1911" y="-142.467" width="1367.63" height="1568.89" filterUnits="userSpaceOnUse" color-interpolation-filters="sRGB">
<feFlood flood-opacity="0" result="BackgroundImageFix"/>
<feBlend mode="normal" in="SourceGraphic" in2="BackgroundImageFix" result="shape"/>
<feGaussianBlur stdDeviation="74.1009" result="effect1_foregroundBlur_2177_4538"/>
</filter>
<linearGradient id="paint0_linear_2177_4538" x1="719.545" y1="741.019" x2="719.545" y2="921.903" gradientUnits="userSpaceOnUse">
<stop offset="0.0640087" stop-color="white" stop-opacity="0"/>
<stop offset="0.258526" stop-color="white" stop-opacity="0.8"/>
<stop offset="0.486011" stop-color="white" stop-opacity="0"/>
<stop offset="1" stop-color="white" stop-opacity="0"/>
</linearGradient>
<linearGradient id="paint1_linear_2177_4538" x1="50.0011" y1="780.286" x2="1366.5" y2="780.286" gradientUnits="userSpaceOnUse">
<stop/>
<stop offset="0.52582" stop-opacity="0"/>
<stop offset="1"/>
</linearGradient>
<radialGradient id="paint2_radial_2177_4538" cx="0" cy="0" r="1" gradientUnits="userSpaceOnUse" gradientTransform="translate(892.425 610.721) rotate(-150.409) scale(615.014 615.032)">
<stop offset="0.409332" stop-color="#6041FF"/>
<stop offset="1" stop-opacity="0"/>
<stop offset="1" stop-color="#2D2E32" stop-opacity="0"/>
</radialGradient>
<linearGradient id="paint3_linear_2177_4538" x1="759.015" y1="340.18" x2="830.603" y2="542.451" gradientUnits="userSpaceOnUse">
<stop stop-color="#6042FF"/>
<stop offset="1" stop-color="white" stop-opacity="0"/>
</linearGradient>
<linearGradient id="paint4_linear_2177_4538" x1="591.143" y1="335.331" x2="484.942" y2="608.486" gradientUnits="userSpaceOnUse">
<stop stop-color="#6042FF"/>
<stop offset="1" stop-color="white" stop-opacity="0"/>
</linearGradient>
</defs>
</svg>
