<svg width="24" height="24" viewBox="0 0 24 24" fill="none" xmlns="http://www.w3.org/2000/svg">
<g clip-path="url(#clip0_2177_4655)">
<path fill-rule="evenodd" clip-rule="evenodd" d="M12.0001 0.0371094C18.6065 0.0371094 23.9621 5.39269 23.9621 11.9991C23.9621 18.6055 18.6065 23.9611 12.0001 23.9611C5.39367 23.9611 0.0380859 18.6055 0.0380859 11.9991C0.0380859 5.39269 5.39367 0.0371094 12.0001 0.0371094Z" fill="white"/>
<path d="M13.5546 23.8617V14.6221H16.1594L16.5047 11.3701H13.5546L13.559 9.74241C13.559 8.89423 13.6395 8.43998 14.8578 8.43998H16.4864V5.1875H13.881C10.7515 5.1875 9.65009 6.76495 9.65009 9.41813V11.3704H7.69922V14.6226H9.65009V23.7307C10.4101 23.8822 11.1958 23.9621 12.0003 23.9621C12.52 23.9622 13.0392 23.9286 13.5546 23.8617Z" fill="#051307"/>
</g>
<defs>
<clipPath id="clip0_2177_4655">
<rect width="24" height="24" fill="white"/>
</clipPath>
</defs>
</svg>
