<svg width="24" height="24" viewBox="0 0 24 24" fill="none" xmlns="http://www.w3.org/2000/svg">
<g clip-path="url(#clip0_2177_4652)">
<path d="M8.00162 12C8.00162 9.79094 9.79192 7.99968 12.001 7.99968C14.21 7.99968 16.0013 9.79094 16.0013 12C16.0013 14.2091 14.21 16.0003 12.001 16.0003C9.79192 16.0003 8.00162 14.2091 8.00162 12ZM5.83912 12C5.83912 15.4032 8.59778 18.1619 12.001 18.1619C15.4042 18.1619 18.1628 15.4032 18.1628 12C18.1628 8.5968 15.4042 5.83814 12.001 5.83814C8.59778 5.83814 5.83912 8.5968 5.83912 12ZM16.9668 5.59382C16.9667 5.87863 17.051 6.15707 17.2091 6.39394C17.3673 6.63081 17.5921 6.81547 17.8552 6.92457C18.1183 7.03366 18.4078 7.06229 18.6871 7.00684C18.9665 6.95139 19.2231 6.81435 19.4246 6.61304C19.6261 6.41173 19.7633 6.15521 19.819 5.8759C19.8747 5.59658 19.8463 5.30704 19.7374 5.04387C19.6285 4.7807 19.444 4.55573 19.2073 4.3974C18.9705 4.23908 18.6921 4.15451 18.4073 4.1544H18.4068C18.025 4.15458 17.6589 4.30627 17.3889 4.57616C17.1189 4.84605 16.9671 5.21207 16.9668 5.59382ZM7.15298 21.7677C5.98302 21.7144 5.34712 21.5196 4.92453 21.3549C4.36427 21.1368 3.96453 20.877 3.54424 20.4573C3.12395 20.0376 2.86379 19.6382 2.64664 19.078C2.4819 18.6556 2.28702 18.0195 2.23384 16.8495C2.17566 15.5846 2.16405 15.2047 2.16405 12.0001C2.16405 8.79552 2.17662 8.41661 2.23384 7.15066C2.28712 5.9807 2.48344 5.34586 2.64664 4.92221C2.86475 4.36195 3.12453 3.96221 3.54424 3.54192C3.96395 3.12163 4.36331 2.86147 4.92453 2.64432C5.34693 2.47958 5.98302 2.2847 7.15298 2.23152C8.41787 2.17334 8.79784 2.16173 12.001 2.16173C15.2041 2.16173 15.5845 2.1743 16.8504 2.23152C18.0204 2.2848 18.6552 2.48112 19.0789 2.64432C19.6391 2.86147 20.0389 3.12221 20.4592 3.54192C20.8794 3.96163 21.1386 4.36195 21.3568 4.92221C21.5215 5.34461 21.7164 5.9807 21.7696 7.15066C21.8277 8.41661 21.8393 8.79552 21.8393 12.0001C21.8393 15.2047 21.8277 15.5836 21.7696 16.8495C21.7163 18.0195 21.5204 18.6554 21.3568 19.078C21.1386 19.6382 20.8789 20.038 20.4592 20.4573C20.0394 20.8766 19.6391 21.1368 19.0789 21.3549C18.6565 21.5196 18.0204 21.7145 16.8504 21.7677C15.5855 21.8259 15.2056 21.8375 12.001 21.8375C8.7964 21.8375 8.41749 21.8259 7.15298 21.7677ZM7.05362 0.072672C5.77614 0.130848 4.90322 0.333408 4.14088 0.630048C3.35138 0.936384 2.68302 1.34736 2.01515 2.01418C1.34728 2.68099 0.93736 3.3504 0.631024 4.1399C0.334385 4.90272 0.131825 5.77517 0.0736486 7.05264C0.0145126 8.33213 0.000976562 8.74118 0.000976562 12C0.000976562 15.2588 0.0145126 15.6679 0.0736486 16.9474C0.131825 18.2249 0.334385 19.0973 0.631024 19.8601C0.93736 20.6491 1.34738 21.3193 2.01515 21.9858C2.68293 22.6524 3.35138 23.0628 4.14088 23.37C4.90466 23.6666 5.77614 23.8692 7.05362 23.9273C8.33378 23.9855 8.74216 24 12.001 24C15.2598 24 15.6688 23.9865 16.9483 23.9273C18.2259 23.8692 19.0983 23.6666 19.8611 23.37C20.6501 23.0628 21.3189 22.6526 21.9868 21.9858C22.6547 21.319 23.0637 20.6491 23.3709 19.8601C23.6676 19.0973 23.8711 18.2248 23.9283 16.9474C23.9865 15.6669 24 15.2588 24 12C24 8.74118 23.9865 8.33213 23.9283 7.05264C23.8701 5.77507 23.6676 4.90224 23.3709 4.1399C23.0637 3.35088 22.6536 2.68205 21.9868 2.01418C21.32 1.3463 20.6501 0.936384 19.862 0.630048C19.0983 0.333408 18.2258 0.129888 16.9493 0.072672C15.6698 0.014496 15.2608 0 12.0019 0C8.74312 0 8.33378 0.013536 7.05362 0.072672Z" fill="url(#paint0_radial_2177_4652)"/>
<path d="M8.00162 12C8.00162 9.79094 9.79192 7.99968 12.001 7.99968C14.21 7.99968 16.0013 9.79094 16.0013 12C16.0013 14.2091 14.21 16.0003 12.001 16.0003C9.79192 16.0003 8.00162 14.2091 8.00162 12ZM5.83912 12C5.83912 15.4032 8.59778 18.1619 12.001 18.1619C15.4042 18.1619 18.1628 15.4032 18.1628 12C18.1628 8.5968 15.4042 5.83814 12.001 5.83814C8.59778 5.83814 5.83912 8.5968 5.83912 12ZM16.9668 5.59382C16.9667 5.87863 17.051 6.15707 17.2091 6.39394C17.3673 6.63081 17.5921 6.81547 17.8552 6.92457C18.1183 7.03366 18.4078 7.06229 18.6871 7.00684C18.9665 6.95139 19.2231 6.81435 19.4246 6.61304C19.6261 6.41173 19.7633 6.15521 19.819 5.8759C19.8747 5.59658 19.8463 5.30704 19.7374 5.04387C19.6285 4.7807 19.444 4.55573 19.2073 4.3974C18.9705 4.23908 18.6921 4.15451 18.4073 4.1544H18.4068C18.025 4.15458 17.6589 4.30627 17.3889 4.57616C17.1189 4.84605 16.9671 5.21207 16.9668 5.59382ZM7.15298 21.7677C5.98302 21.7144 5.34712 21.5196 4.92453 21.3549C4.36427 21.1368 3.96453 20.877 3.54424 20.4573C3.12395 20.0376 2.86379 19.6382 2.64664 19.078C2.4819 18.6556 2.28702 18.0195 2.23384 16.8495C2.17566 15.5846 2.16405 15.2047 2.16405 12.0001C2.16405 8.79552 2.17662 8.41661 2.23384 7.15066C2.28712 5.9807 2.48344 5.34586 2.64664 4.92221C2.86475 4.36195 3.12453 3.96221 3.54424 3.54192C3.96395 3.12163 4.36331 2.86147 4.92453 2.64432C5.34693 2.47958 5.98302 2.2847 7.15298 2.23152C8.41787 2.17334 8.79784 2.16173 12.001 2.16173C15.2041 2.16173 15.5845 2.1743 16.8504 2.23152C18.0204 2.2848 18.6552 2.48112 19.0789 2.64432C19.6391 2.86147 20.0389 3.12221 20.4592 3.54192C20.8794 3.96163 21.1386 4.36195 21.3568 4.92221C21.5215 5.34461 21.7164 5.9807 21.7696 7.15066C21.8277 8.41661 21.8393 8.79552 21.8393 12.0001C21.8393 15.2047 21.8277 15.5836 21.7696 16.8495C21.7163 18.0195 21.5204 18.6554 21.3568 19.078C21.1386 19.6382 20.8789 20.038 20.4592 20.4573C20.0394 20.8766 19.6391 21.1368 19.0789 21.3549C18.6565 21.5196 18.0204 21.7145 16.8504 21.7677C15.5855 21.8259 15.2056 21.8375 12.001 21.8375C8.7964 21.8375 8.41749 21.8259 7.15298 21.7677ZM7.05362 0.072672C5.77614 0.130848 4.90322 0.333408 4.14088 0.630048C3.35138 0.936384 2.68302 1.34736 2.01515 2.01418C1.34728 2.68099 0.93736 3.3504 0.631024 4.1399C0.334385 4.90272 0.131825 5.77517 0.0736486 7.05264C0.0145126 8.33213 0.000976562 8.74118 0.000976562 12C0.000976562 15.2588 0.0145126 15.6679 0.0736486 16.9474C0.131825 18.2249 0.334385 19.0973 0.631024 19.8601C0.93736 20.6491 1.34738 21.3193 2.01515 21.9858C2.68293 22.6524 3.35138 23.0628 4.14088 23.37C4.90466 23.6666 5.77614 23.8692 7.05362 23.9273C8.33378 23.9855 8.74216 24 12.001 24C15.2598 24 15.6688 23.9865 16.9483 23.9273C18.2259 23.8692 19.0983 23.6666 19.8611 23.37C20.6501 23.0628 21.3189 22.6526 21.9868 21.9858C22.6547 21.319 23.0637 20.6491 23.3709 19.8601C23.6676 19.0973 23.8711 18.2248 23.9283 16.9474C23.9865 15.6669 24 15.2588 24 12C24 8.74118 23.9865 8.33213 23.9283 7.05264C23.8701 5.77507 23.6676 4.90224 23.3709 4.1399C23.0637 3.35088 22.6536 2.68205 21.9868 2.01418C21.32 1.3463 20.6501 0.936384 19.862 0.630048C19.0983 0.333408 18.2258 0.129888 16.9493 0.072672C15.6698 0.014496 15.2608 0 12.0019 0C8.74312 0 8.33378 0.013536 7.05362 0.072672Z" fill="white"/>
</g>
<defs>
<radialGradient id="paint0_radial_2177_4652" cx="0" cy="0" r="1" gradientUnits="userSpaceOnUse" gradientTransform="translate(3.18952 24.1134) scale(31.33 31.33)">
<stop offset="0.09" stop-color="#FA8F21"/>
<stop offset="0.78" stop-color="#D82D7E"/>
</radialGradient>
<clipPath id="clip0_2177_4652">
<rect width="24" height="24" fill="white"/>
</clipPath>
</defs>
</svg>
