<svg width="24" height="24" viewBox="0 0 24 24" fill="none" xmlns="http://www.w3.org/2000/svg">
<g clip-path="url(#clip0_2177_4646)">
<path d="M1.80566 2.96875H21.6868V22.0328H1.80566V2.96875Z" fill="white"/>
<path d="M0.0244141 1.71952C0.0244141 0.77012 0.817043 0 1.79436 0H22.2065C23.1838 0 23.9764 0.77012 23.9764 1.71952V22.2814C23.9764 23.2308 23.1838 24 22.2065 24H1.79436C0.817043 24 0.0244141 23.2308 0.0244141 22.2814V1.71952Z" fill="white"/>
<path d="M7.30262 20.0858V9.28094H3.71847V20.0858H7.30262ZM5.51151 7.80624C6.76105 7.80624 7.53925 6.97636 7.53925 5.93925C7.51616 4.87901 6.76105 4.07227 5.53556 4.07227C4.3091 4.07227 3.50781 4.87901 3.50781 5.93925C3.50781 6.97636 4.28505 7.80624 5.48842 7.80624H5.51151ZM9.28611 20.0858H12.8703V14.052C12.8703 13.7291 12.8933 13.4062 12.9886 13.1759C13.2473 12.5301 13.837 11.8621 14.8278 11.8621C16.1245 11.8621 16.6429 12.853 16.6429 14.3055V20.0848H20.2271V13.8901C20.2271 10.5715 18.4591 9.02745 16.1014 9.02745C14.1679 9.02745 13.3195 10.1099 12.8472 10.8472H12.8712V9.28094H9.28611C9.33325 10.2949 9.28611 20.0858 9.28611 20.0858Z" fill="#051307"/>
</g>
<defs>
<clipPath id="clip0_2177_4646">
<rect width="24" height="24" fill="white"/>
</clipPath>
</defs>
</svg>
