<?xml version="1.0" encoding="utf-8"?>
<!-- Generator: Adobe Illustrator 27.0.0, SVG Export Plug-In . SVG Version: 6.00 Build 0)  -->
<svg version="1.1" id="Layer_1" xmlns="http://www.w3.org/2000/svg" xmlns:xlink="http://www.w3.org/1999/xlink" x="0px" y="0px"
	 viewBox="0 0 1080 1080" style="enable-background:new 0 0 1080 1080;" xml:space="preserve">
<style type="text/css">
	.st0{fill:#FFFFFF;}
	.st1{font-family:'Hellix-SemiBold';}
	.st2{font-size:59.7353px;}
	.st3{fill:#00D200;}
	.st4{font-size:35.7359px;}
	.st5{fill:#004E63;}
</style>
<text transform="matrix(1 0 0 1 472.8764 522.105)"><tspan x="0" y="0" class="st0 st1 st2">Digital for All</tspan><tspan x="0" y="57.9" class="st0 st1 st2">Challenge</tspan></text>
<polygon class="st0" points="823.98,590.63 751.05,590.63 765.47,538.02 823.98,538.02 "/>
<text transform="matrix(1 0 0 1 766.3393 576.627)" class="st3 st1 st4">2.0</text>
<ellipse transform="matrix(0.7902 -0.6128 0.6128 0.7902 -222.257 341.9984)" class="st3" cx="388.39" cy="495.62" rx="19.16" ry="23.42"/>
<ellipse transform="matrix(0.8257 -0.5641 0.5641 0.8257 -206.8709 328.3503)" class="st3" cx="427.95" cy="498.96" rx="7.82" ry="11.21"/>
<ellipse transform="matrix(0.8257 -0.5641 0.5641 0.8257 -194.0904 316.4504)" class="st3" cx="415.08" cy="472.33" rx="8.03" ry="11.05"/>
<ellipse transform="matrix(0.4903 -0.8716 0.8716 0.4903 -202.3971 570.5425)" class="st3" cx="386.59" cy="458.31" rx="7.57" ry="11.05"/>
<g>
	
		<ellipse transform="matrix(0.7902 -0.6128 0.6128 0.7902 -255.5234 322.3623)" class="st0" cx="343.08" cy="534.4" rx="22.58" ry="19.03"/>
	
		<ellipse transform="matrix(0.7902 -0.6128 0.6128 0.7902 -296.0095 299.2458)" class="st0" cx="289.07" cy="581.97" rx="28.41" ry="17.83"/>
	
		<ellipse transform="matrix(0.9988 -0.0495 0.0495 0.9988 -23.53 14.2416)" class="st0" cx="275.91" cy="482.41" rx="19.9" ry="10.98"/>
	
		<ellipse transform="matrix(0.9988 -0.0495 0.0495 0.9988 -23.7579 17.0737)" class="st0" cx="333" cy="488.43" rx="18.94" ry="13.84"/>
	
		<ellipse transform="matrix(0.9978 -0.0656 0.0656 0.9978 -35.0186 26.908)" class="st0" cx="392.39" cy="546.91" rx="15.31" ry="17.61"/>
	
		<ellipse transform="matrix(0.9657 -0.2598 0.2598 0.9657 -123.4329 128.9136)" class="st0" cx="425.89" cy="531.33" rx="11.45" ry="15.35"/>
	
		<ellipse transform="matrix(0.4903 -0.8716 0.8716 0.4903 -219.5795 540.0023)" class="st0" cx="351.89" cy="457.73" rx="10.84" ry="15.84"/>
	
		<ellipse transform="matrix(0.3645 -0.9312 0.9312 0.3645 -195.7157 581.7427)" class="st0" cx="328.34" cy="434.26" rx="7.03" ry="11.6"/>
	
		<ellipse transform="matrix(0.4168 -0.909 0.909 0.4168 -173.7976 606.5809)" class="st0" cx="385.8" cy="438.73" rx="4.83" ry="7.6"/>
	
		<ellipse transform="matrix(0.571 -0.8209 0.8209 0.571 -196.3159 548.1958)" class="st0" cx="426.38" cy="461.94" rx="4.5" ry="6.7"/>
	
		<ellipse transform="matrix(0.885 -0.4655 0.4655 0.885 -181.8172 266.6122)" class="st0" cx="448.88" cy="501.41" rx="4.5" ry="7.79"/>
	
		<ellipse transform="matrix(0.1425 -0.9898 0.9898 0.1425 -253.9541 906.8989)" class="st0" cx="396.43" cy="600.02" rx="17.85" ry="12.32"/>
	
		<ellipse transform="matrix(0.947 -0.3213 0.3213 0.947 -154.049 174.0437)" class="st0" cx="450.29" cy="553.76" rx="7.47" ry="11.49"/>
</g>
</svg>
