<svg width="1440" height="232" viewBox="0 0 1440 232" fill="none" xmlns="http://www.w3.org/2000/svg">
<path fill-rule="evenodd" clip-rule="evenodd" d="M-27.7162 0.591797C-27.813 0.591797 -27.8916 0.670312 -27.8916 0.767166C-27.8916 0.86402 -27.813 0.942536 -27.7162 0.942536H24.5717L-7.22757 3.69715H-27.7172C-27.814 3.69715 -27.8925 3.77566 -27.8925 3.87252C-27.8925 3.96937 -27.814 4.04789 -27.7172 4.04789H-11.2765L-27.7333 5.47345C-27.8298 5.48181 -27.9012 5.56681 -27.8929 5.6633C-27.8845 5.7598 -27.7995 5.83124 -27.703 5.82288L-7.21241 4.04789H69.9053L38.1681 7.14026H-27.7172C-27.814 7.14026 -27.8925 7.21877 -27.8925 7.31563C-27.8925 7.41248 -27.814 7.491 -27.7172 7.491H34.5685L-1.24768 10.9808H-27.7172C-27.814 10.9808 -27.8925 11.0593 -27.8925 11.1562C-27.8925 11.253 -27.814 11.3316 -27.7172 11.3316H-4.84732L-27.7351 13.5617C-27.8315 13.5711 -27.9021 13.6568 -27.8927 13.7532C-27.8833 13.8496 -27.7975 13.9202 -27.7011 13.9108L-1.23063 11.3316H85.6859L50.1112 15.2931H-27.7172C-27.814 15.2931 -27.8925 15.3716 -27.8925 15.4684C-27.8925 15.5653 -27.814 15.6438 -27.7172 15.6438H46.9615L6.31426 20.1702H-27.7172C-27.814 20.1702 -27.8925 20.2487 -27.8925 20.3456C-27.8925 20.4424 -27.814 20.5209 -27.7172 20.5209H3.16459L-27.7376 23.9621C-27.8338 23.9729 -27.9032 24.0596 -27.8924 24.1558C-27.8817 24.2521 -27.795 24.3214 -27.6987 24.3107L6.33371 20.5209H105.481L65.3611 25.733H-27.7172C-27.814 25.733 -27.8925 25.8116 -27.8925 25.9084C-27.8925 26.0053 -27.814 26.0838 -27.7172 26.0838H62.6613L16.1092 32.1316H-27.7172C-27.814 32.1316 -27.8925 32.2101 -27.8925 32.3069C-27.8925 32.4038 -27.814 32.4823 -27.7172 32.4823H13.4094L-27.7407 37.8283C-27.8368 37.8407 -27.9045 37.9287 -27.8921 38.0248C-27.8796 38.1208 -27.7916 38.1886 -27.6955 38.1761L16.1319 32.4823H131.059L85.5869 39.571H-27.7172C-27.814 39.571 -27.8925 39.6495 -27.8925 39.7464C-27.8925 39.8432 -27.814 39.9217 -27.7172 39.9217H83.337L29.4128 48.328H-27.7172C-27.814 48.328 -27.8925 48.4065 -27.8925 48.5034C-27.8925 48.6002 -27.814 48.6787 -27.7172 48.6787H27.1629L-27.7432 57.2381C-27.8389 57.253 -27.9044 57.3427 -27.8895 57.4384C-27.8745 57.5341 -27.7849 57.5995 -27.6892 57.5846L29.44 48.6787H165.584L113.69 58.7898H-27.7172C-27.814 58.7898 -27.8925 58.8683 -27.8925 58.9652C-27.8925 59.062 -27.814 59.1406 -27.7172 59.1406H111.89L48.4152 71.5082H-27.7172C-27.814 71.5082 -27.8925 71.5867 -27.8925 71.6836C-27.8925 71.7804 -27.814 71.859 -27.7172 71.859H46.6151L-27.7497 86.3484C-27.8448 86.367 -27.9068 86.4591 -27.8883 86.5541C-27.8698 86.6492 -27.7777 86.7112 -27.6827 86.6927L48.4491 71.859H214.767L155.339 87.2956H-27.7172C-27.814 87.2956 -27.8925 87.3741 -27.8925 87.4709C-27.8925 87.5678 -27.814 87.6463 -27.7172 87.6463H153.989L77.8695 107.418H-27.7172C-27.814 107.418 -27.8925 107.497 -27.8925 107.594C-27.8925 107.691 -27.814 107.769 -27.7172 107.769H76.5193L-24.2497 133.944H-27.7172C-27.814 133.944 -27.8925 134.023 -27.8925 134.12C-27.8925 134.216 -27.814 134.295 -27.7172 134.295H-25.6L-27.7622 134.857C-27.856 134.881 -27.9122 134.977 -27.8879 135.07C-27.8635 135.164 -27.7678 135.22 -27.6741 135.196L-24.2049 134.295H222.617L129.629 170.515H-27.7172C-27.814 170.515 -27.8925 170.594 -27.8925 170.691C-27.8925 170.788 -27.814 170.866 -27.7172 170.866H128.729L-27.458 231.704C-27.4626 231.706 -27.4672 231.707 -27.4716 231.709C-27.5564 231.747 -27.5973 231.846 -27.5632 231.933C-27.5346 232.007 -27.4619 232.05 -27.3871 232.044H345.737C345.745 232.045 345.753 232.045 345.761 232.044H718.888C718.892 232.045 718.896 232.045 718.9 232.045L718.907 232.045L718.912 232.044H1092.04C1092.05 232.045 1092.06 232.045 1092.07 232.044H1465.19C1465.22 232.046 1465.25 232.042 1465.27 232.031C1465.33 232.005 1465.38 231.942 1465.38 231.869C1465.38 231.789 1465.33 231.721 1465.25 231.7L1309.34 170.866H1466.81C1466.9 170.866 1466.98 170.788 1466.98 170.691C1466.98 170.594 1466.9 170.515 1466.81 170.515H1308.44L1215.61 134.295H1462.44L1466.76 135.42C1466.86 135.444 1466.95 135.388 1466.98 135.294C1467 135.2 1466.95 135.104 1466.85 135.08L1463.83 134.295H1466.81C1466.9 134.295 1466.98 134.216 1466.98 134.12C1466.98 134.023 1466.9 133.944 1466.81 133.944H1462.48L1361.83 107.769H1466.81C1466.9 107.769 1466.98 107.691 1466.98 107.594C1466.98 107.497 1466.9 107.418 1466.81 107.418H1360.48L1284.45 87.6463H1466.81C1466.9 87.6463 1466.98 87.5678 1466.98 87.4709C1466.98 87.3741 1466.9 87.2956 1466.81 87.2956H1283.1L1223.74 71.859H1390.06L1466.77 86.8189C1466.87 86.8374 1466.96 86.7754 1466.98 86.6803C1467 86.5852 1466.94 86.4931 1466.84 86.4746L1391.89 71.859H1466.81C1466.9 71.859 1466.98 71.7804 1466.98 71.6836C1466.98 71.5867 1466.9 71.5082 1466.81 71.5082H1390.1L1326.68 59.1406H1466.81C1466.9 59.1406 1466.98 59.062 1466.98 58.9652C1466.98 58.8683 1466.9 58.7898 1466.81 58.7898H1324.88L1273.03 48.6787H1409.19L1466.78 57.663C1466.88 57.6779 1466.97 57.6125 1466.98 57.5168C1467 57.4211 1466.93 57.3314 1466.84 57.3165L1411.46 48.6787H1466.81C1466.9 48.6787 1466.98 48.6002 1466.98 48.5034C1466.98 48.4065 1466.9 48.328 1466.81 48.328H1409.21L1355.32 39.9217H1466.81C1466.9 39.9217 1466.98 39.8432 1466.98 39.7464C1466.98 39.6495 1466.9 39.571 1466.81 39.571H1353.07L1307.63 32.4823H1422.55L1466.79 38.2328C1466.88 38.2453 1466.97 38.1776 1466.98 38.0816C1466.99 37.9855 1466.93 37.8975 1466.83 37.885L1425.27 32.4823H1466.81C1466.9 32.4823 1466.98 32.4038 1466.98 32.3069C1466.98 32.2101 1466.9 32.1316 1466.81 32.1316H1422.57L1376.05 26.0838H1466.81C1466.9 26.0838 1466.98 26.0053 1466.98 25.9084C1466.98 25.8116 1466.9 25.733 1466.81 25.733H1373.35L1333.25 20.5209H1432.4L1466.79 24.3531C1466.88 24.3638 1466.97 24.2945 1466.98 24.1982C1466.99 24.1019 1466.92 24.0152 1466.83 24.0045L1435.56 20.5209H1466.81C1466.9 20.5209 1466.98 20.4424 1466.98 20.3456C1466.98 20.2487 1466.9 20.1702 1466.81 20.1702H1432.41L1391.79 15.6438H1466.81C1466.9 15.6438 1466.98 15.5653 1466.98 15.4684C1466.98 15.3716 1466.9 15.2931 1466.81 15.2931H1388.64L1353.09 11.3316H1440.02L1466.79 13.9414C1466.89 13.9508 1466.97 13.8803 1466.98 13.7839C1466.99 13.6875 1466.92 13.6017 1466.83 13.5923L1443.63 11.3316H1466.81C1466.9 11.3316 1466.98 11.253 1466.98 11.1562C1466.98 11.0593 1466.9 10.9808 1466.81 10.9808H1440.03L1404.23 7.491H1466.81C1466.9 7.491 1466.98 7.41248 1466.98 7.31563C1466.98 7.21877 1466.9 7.14026 1466.81 7.14026H1400.63L1368.91 4.04789H1446.03L1466.79 5.84721C1466.89 5.85557 1466.97 5.78413 1466.98 5.68764C1466.99 5.59114 1466.92 5.50614 1466.82 5.49778L1450.09 4.04789H1466.81C1466.9 4.04789 1466.98 3.96937 1466.98 3.87252C1466.98 3.77566 1466.9 3.69715 1466.81 3.69715H1446.04L1414.25 0.942536H1466.81C1466.9 0.942536 1466.98 0.86402 1466.98 0.767166C1466.98 0.670312 1466.9 0.591797 1466.81 0.591797H-27.7162ZM1359.09 107.418L1283.06 87.6463H1096.06L1146.73 107.418H1359.09ZM1145.77 107.418L1095.1 87.6463H907.688L933.003 107.418H1145.77ZM933.452 107.769H1146.67L1213.75 133.944H966.964L933.452 107.769ZM932.433 107.418L907.118 87.6463H719.396L719.352 107.418H932.433ZM719.351 107.769H932.882L966.395 133.944H719.293L719.351 107.769ZM719.001 107.418L719.045 87.6463H531.325L505.923 107.418H719.001ZM505.472 107.769H719L718.942 133.944H471.844L505.472 107.769ZM505.352 107.418L530.754 87.6463H343.343L292.583 107.418H505.352ZM291.682 107.769H504.901L471.273 133.944H224.484L291.682 107.769ZM291.616 107.418L342.377 87.6463H155.384L79.2646 107.418H291.616ZM77.9144 107.769H290.716L223.517 133.944H-22.8546L77.9144 107.769ZM1147.63 107.769H1360.44L1461.09 133.944H1214.72L1147.63 107.769ZM156.734 87.2956H343.277L382.907 71.859H216.162L156.734 87.2956ZM344.243 87.2956H531.205L551.037 71.859H383.873L344.243 87.2956ZM531.776 87.2956H719.046L719.08 71.859H551.608L531.776 87.2956ZM719.397 87.2956H906.669L886.905 71.859H719.431L719.397 87.2956ZM907.239 87.2956H1094.2L1054.63 71.859H887.475L907.239 87.2956ZM1095.16 87.2956H1281.71L1222.35 71.859H1055.6L1095.16 87.2956ZM1388.26 71.5082L1324.84 59.1406H1174.84L1222.4 71.5082H1388.26ZM1221 71.5082L1173.44 59.1406H1023L1054.7 71.5082H1221ZM1053.74 71.5082L1022.04 59.1406H871.191L887.026 71.5082H1053.74ZM886.456 71.5082L870.622 59.1406H719.459L719.432 71.5082H886.456ZM719.081 71.5082L719.109 59.1406H567.948L552.059 71.5082H719.081ZM551.487 71.5082L567.377 59.1406H416.525L384.774 71.5082H551.487ZM383.808 71.5082L415.559 59.1406H265.126L217.512 71.5082H383.808ZM216.117 71.5082L263.73 59.1406H113.724L50.2492 71.5082H216.117ZM130.596 170.515L223.583 134.295H470.822L424.288 170.515H130.596ZM424.859 170.515L471.393 134.295H718.941L718.861 170.515H424.859ZM719.212 170.515L719.292 134.295H966.844L1013.22 170.515H719.212ZM1013.79 170.515L967.413 134.295H1214.65L1307.48 170.515H1013.79ZM1323.05 58.7898L1271.2 48.6787H1134.61L1173.49 58.7898H1323.05ZM1172.09 58.7898L1133.21 48.6787H996.191L1022.1 58.7898H1172.09ZM1021.14 58.7898L995.227 48.6787H857.797L870.742 58.7898H1021.14ZM870.172 58.7898L857.227 48.6787H719.483L719.46 58.7898H870.172ZM719.109 58.7898L719.132 48.6787H581.389L568.398 58.7898H719.109ZM567.827 58.7898L580.818 48.6787H443.383L417.425 58.7898H567.827ZM416.459 58.7898L442.417 48.6787H305.402L266.476 58.7898H416.459ZM265.081 58.7898L304.007 48.6787H167.418L115.524 58.7898H265.081ZM167.384 48.328H31.6899L85.6141 39.9217H210.527L167.384 48.328ZM305.357 48.328H169.218L212.361 39.9217H337.719L305.357 48.328ZM443.317 48.328H306.752L339.114 39.9217H464.899L443.317 48.328ZM444.284 48.328H581.268L592.068 39.9217H465.865L444.284 48.328ZM581.839 48.328H719.133L719.151 39.9217H592.639L581.839 48.328ZM719.483 48.328H856.778L846.015 39.9217H719.502L719.483 48.328ZM857.348 48.328H994.328L972.783 39.9217H846.585L857.348 48.328ZM1131.87 48.328H995.292L973.748 39.9217H1099.54L1131.87 48.328ZM1269.4 48.328H1133.26L1100.93 39.9217H1226.29L1269.4 48.328ZM1406.94 48.328H1271.23L1228.12 39.9217H1353.05L1406.94 48.328ZM1410.19 0.942536H1337.05L1365.31 3.69715H1441.98L1410.19 0.94266L1410.19 0.942536ZM1333.44 0.942536H1259.85L1284.57 3.69715H1361.7L1333.44 0.942536ZM1256.68 0.942536H1182.64L1203.83 3.69715H1281.4L1256.68 0.942536ZM1179.92 0.942536H1105.44L1123.1 3.69715H1201.11L1179.92 0.942536ZM1103.16 0.942536H1028.24L1042.37 3.69715H1120.82L1103.16 0.942536ZM1026.41 0.942536H951.045L961.637 3.69715H1040.54L1026.41 0.942536ZM949.651 0.942536H873.849L880.909 3.69715H960.243L949.651 0.942536ZM872.885 0.942536H796.679L800.206 3.69715H879.944L872.885 0.942536ZM796.109 0.942536H719.589L719.583 3.69715H799.636L796.109 0.942536ZM719.238 0.942536H642.718L639.179 3.69715H719.232L719.238 0.942536ZM642.147 0.942536H565.935L558.863 3.69715H638.608L642.147 0.942536ZM564.969 0.942536H489.177L478.572 3.69715H557.897L564.969 0.942536ZM487.782 0.942536H412.416L398.278 3.69715H477.177L487.782 0.942536ZM410.582 0.942536H335.657L317.987 3.69715H396.444L410.582 0.942536ZM333.38 0.942536H258.906L237.703 3.69715H315.709L333.38 0.942536ZM256.184 0.942536H182.149L157.412 3.69715H234.98L256.184 0.942536ZM178.98 0.942536H105.392L77.1216 3.69715H154.243L178.98 0.942536ZM101.776 0.942536H28.6357L28.6344 0.94266L-3.16348 3.69715H73.5049L101.776 0.942536ZM18.8316 32.1316L65.3838 26.0838H172.104L133.309 32.1316H18.8316ZM68.0836 25.733H174.354L207.789 20.5209H108.203L68.0836 25.733ZM135.586 32.1316L174.381 26.0838H281.548L250.509 32.1316H135.586ZM176.631 25.733H283.348L310.099 20.5209H210.066L176.631 25.733ZM252.343 32.1316L283.382 26.0838H390.993L367.71 32.1316H252.343ZM285.182 25.733H392.343L412.409 20.5209H311.933L285.182 25.733ZM369.105 32.1316L392.388 26.0838H500.424L484.898 32.1316H369.105ZM393.738 25.733H501.325L514.706 20.5209H413.804L393.738 25.733ZM485.864 32.1316L501.391 26.0838H609.847L602.077 32.1316H485.864ZM502.291 25.733H610.297L616.993 20.5209H515.672L502.291 25.733ZM602.648 32.1316L610.418 26.0838H719.182L719.169 32.1316H602.648ZM610.868 25.733H719.183L719.194 20.5209H617.565L610.868 25.733ZM719.519 32.1316L719.533 26.0838H828.298L836.041 32.1316H719.519ZM719.534 25.733H827.849L821.176 20.5209H719.545L719.534 25.733ZM836.611 32.1316L828.868 26.0838H937.318L952.818 32.1316H836.611ZM828.419 25.733H936.42L923.062 20.5209H821.746L828.419 25.733ZM953.783 32.1316L938.283 26.0838H1046.33L1069.58 32.1316H953.783ZM937.384 25.733H1044.98L1024.94 20.5209H924.026L937.384 25.733ZM1070.98 32.1316L1047.72 26.0838H1155.33L1186.35 32.1316H1070.98ZM1046.37 25.733H1153.53L1126.81 20.5209H1026.33L1046.37 25.733ZM1188.18 32.1316L1157.17 26.0838H1264.34L1303.11 32.1316H1188.18ZM1155.37 25.733H1262.09L1228.68 20.5209H1128.64L1155.37 25.733ZM1305.38 32.1316L1266.61 26.0838H1373.33L1419.85 32.1316H1305.38ZM1264.36 25.733H1370.63L1330.53 20.5209H1230.95L1264.36 25.733ZM1350.8 39.571L1305.36 32.4823H1189.98L1226.33 39.571H1350.8ZM1224.49 39.571L1188.14 32.4823H1072.33L1099.58 39.571H1224.49ZM1098.19 39.571L1070.93 32.4823H954.682L972.849 39.571H1098.19ZM971.885 39.571L953.717 32.4823H837.06L846.136 39.571H971.885ZM845.566 39.571L836.49 32.4823H719.519L719.503 39.571H845.566ZM719.152 39.571L719.168 32.4823H602.197L593.09 39.571H719.152ZM592.519 39.571L601.626 32.4823H484.964L466.765 39.571H592.519ZM465.799 39.571L483.998 32.4823H367.755L340.465 39.571H465.799ZM339.07 39.571L366.36 32.4823H250.543L214.161 39.571H339.07ZM212.328 39.571L248.709 32.4823H133.336L87.864 39.571H212.328ZM-26.4653 231.694L129.695 170.866H423.837L345.689 231.694H-26.4653ZM346.26 231.694L424.408 170.866H718.86L718.725 231.694H346.26ZM719.076 231.694L719.211 170.866H1013.67L1091.55 231.694H719.076ZM1092.12 231.694L1014.24 170.866H1308.38L1464.27 231.694H1092.12ZM1397.02 7.14026L1365.29 4.04789H1287.72L1315.47 7.14026H1397.02ZM1312.3 7.14026L1284.55 4.04789H1206.53L1230.32 7.14026H1312.3ZM1233.02 7.491H1315.45L1346.77 10.9808H1259.86L1233.02 7.491ZM1227.6 7.14026L1203.81 4.04789H1125.35L1145.17 7.14026H1227.6ZM1147.42 7.491H1230.3L1257.14 10.9808H1169.79L1147.42 7.491ZM1142.9 7.14026L1123.07 4.04789H1044.17L1060.03 7.14026H1142.9ZM1061.82 7.491H1145.14L1167.52 10.9808H1079.72L1061.82 7.491ZM1058.19 7.14026L1042.34 4.04789H962.986L974.877 7.14026H1058.19ZM976.226 7.491H1059.99L1077.89 10.9808H989.645L976.226 7.491ZM973.483 7.14026L961.592 4.04789H881.808L889.733 7.14026H973.483ZM890.632 7.491H974.832L988.252 10.9808H899.576L890.632 7.491ZM888.769 7.14026L880.843 4.04789H800.655L804.614 7.14026H888.769ZM805.063 7.491H889.667L898.611 10.9808H809.531L805.063 7.491ZM804.044 7.14026L800.085 4.04789H719.582L719.575 7.14026H804.044ZM719.574 7.491H804.493L808.961 10.9808H719.566L719.574 7.491ZM719.224 7.14026L719.231 4.04789H638.728L634.755 7.14026H719.224ZM634.305 7.491H719.223L719.216 10.9808H629.821L634.305 7.491ZM634.184 7.14026L638.157 4.04789H557.963L550.024 7.14026H634.184ZM549.123 7.491H633.734L629.25 10.9808H540.164L549.123 7.491ZM549.057 7.14026L556.996 4.04789H477.222L465.317 7.14026H549.057ZM463.967 7.491H548.157L539.198 10.9808H450.532L463.967 7.491ZM463.922 7.14026L475.827 4.04789H396.478L380.607 7.14026H463.922ZM378.807 7.491H462.572L449.136 10.9808H360.896L378.807 7.491ZM378.773 7.14026L394.644 4.04789H315.737L295.9 7.14026H378.773ZM293.65 7.491H376.973L359.062 10.9808H271.263L293.65 7.491ZM293.623 7.14026L313.46 4.04789H235.003L211.2 7.14026H293.623ZM208.5 7.491H291.373L268.986 10.9808H181.637L208.5 7.491ZM208.477 7.14026L232.281 4.04789H154.263L126.493 7.14026H208.477ZM123.343 7.491H205.778L178.915 10.9808H92.0047L123.343 7.491ZM123.324 7.14026L151.094 4.04789H73.522L41.7848 7.14026H123.324ZM38.1852 7.491H120.174L88.8355 10.9808H2.36901L38.1852 7.491ZM1318.62 7.491H1400.62L1436.42 10.9808H1349.94L1318.62 7.491ZM1429.25 20.1702L1388.62 15.6438H1295.74L1330.56 20.1702H1429.25ZM1327.84 20.1702L1293.02 15.6438H1199.69L1228.7 20.1702H1327.84ZM1226.43 20.1702L1197.41 15.6438H1103.63L1126.84 20.1702H1226.43ZM1125.01 20.1702L1101.8 15.6438H1007.58L1024.98 20.1702H1125.01ZM1023.59 20.1702L1006.18 15.6438H911.527L923.128 20.1702H1023.59ZM922.163 20.1702L910.562 15.6438H815.501L821.297 20.1702H922.163ZM820.727 20.1702L814.932 15.6438H719.556L719.546 20.1702H820.727ZM719.195 20.1702L719.205 15.6438H623.83L618.015 20.1702H719.195ZM617.444 20.1702L623.259 15.6438H528.193L516.572 20.1702H617.444ZM515.606 20.1702L527.227 15.6438H432.58L415.154 20.1702H515.606ZM413.759 20.1702L431.185 15.6438H336.964L313.733 20.1702H413.759ZM311.899 20.1702L335.13 15.6438H241.351L212.316 20.1702H311.899ZM210.039 20.1702L239.074 15.6438H145.744L110.903 20.1702H210.039ZM108.181 20.1702L143.022 15.6438H50.1307L9.48338 20.1702H108.181ZM145.722 15.2931H53.2803L88.855 11.3316H176.215L145.722 15.2931ZM148.444 15.2931H241.324L266.736 11.3316H178.938L148.444 15.2931ZM243.601 15.2931H336.93L357.262 11.3316H269.014L243.601 15.2931ZM338.764 15.2931H432.535L447.786 11.3316H359.096L338.764 15.2931ZM433.93 15.2931H528.127L538.297 11.3316H449.181L433.93 15.2931ZM529.093 15.2931H623.71L628.8 11.3316H539.264L529.093 15.2931ZM624.281 15.2931H719.206L719.215 11.3316H629.371L624.281 15.2931ZM719.557 15.2931H814.482L809.41 11.3316H719.566L719.557 15.2931ZM815.052 15.2931H909.663L899.51 11.3316H809.98L815.052 15.2931ZM910.628 15.2931H1004.83L989.601 11.3316H900.475L910.628 15.2931ZM1006.23 15.2931H1100L1079.69 11.3316H990.994L1006.23 15.2931ZM1101.83 15.2931H1195.16L1169.77 11.3316H1081.52L1101.83 15.2931ZM1197.44 15.2931H1290.32L1259.84 11.3316H1172.04L1197.44 15.2931ZM1385.48 15.2931H1293.04L1262.56 11.3316H1349.92L1385.48 15.2931Z" fill="url(#paint0_linear_2177_4539)"/>
<path fill-rule="evenodd" clip-rule="evenodd" d="M-27.7162 0.591797C-27.813 0.591797 -27.8916 0.670312 -27.8916 0.767166C-27.8916 0.86402 -27.813 0.942536 -27.7162 0.942536H24.5717L-7.22757 3.69715H-27.7172C-27.814 3.69715 -27.8925 3.77566 -27.8925 3.87252C-27.8925 3.96937 -27.814 4.04789 -27.7172 4.04789H-11.2765L-27.7333 5.47345C-27.8298 5.48181 -27.9012 5.56681 -27.8929 5.6633C-27.8845 5.7598 -27.7995 5.83124 -27.703 5.82288L-7.21241 4.04789H69.9053L38.1681 7.14026H-27.7172C-27.814 7.14026 -27.8925 7.21877 -27.8925 7.31563C-27.8925 7.41248 -27.814 7.491 -27.7172 7.491H34.5685L-1.24768 10.9808H-27.7172C-27.814 10.9808 -27.8925 11.0593 -27.8925 11.1562C-27.8925 11.253 -27.814 11.3316 -27.7172 11.3316H-4.84732L-27.7351 13.5617C-27.8315 13.5711 -27.9021 13.6568 -27.8927 13.7532C-27.8833 13.8496 -27.7975 13.9202 -27.7011 13.9108L-1.23063 11.3316H85.6859L50.1112 15.2931H-27.7172C-27.814 15.2931 -27.8925 15.3716 -27.8925 15.4684C-27.8925 15.5653 -27.814 15.6438 -27.7172 15.6438H46.9615L6.31426 20.1702H-27.7172C-27.814 20.1702 -27.8925 20.2487 -27.8925 20.3456C-27.8925 20.4424 -27.814 20.5209 -27.7172 20.5209H3.16459L-27.7376 23.9621C-27.8338 23.9729 -27.9032 24.0596 -27.8924 24.1558C-27.8817 24.2521 -27.795 24.3214 -27.6987 24.3107L6.33371 20.5209H105.481L65.3611 25.733H-27.7172C-27.814 25.733 -27.8925 25.8116 -27.8925 25.9084C-27.8925 26.0053 -27.814 26.0838 -27.7172 26.0838H62.6613L16.1092 32.1316H-27.7172C-27.814 32.1316 -27.8925 32.2101 -27.8925 32.3069C-27.8925 32.4038 -27.814 32.4823 -27.7172 32.4823H13.4094L-27.7407 37.8283C-27.8368 37.8407 -27.9045 37.9287 -27.8921 38.0248C-27.8796 38.1208 -27.7916 38.1886 -27.6955 38.1761L16.1319 32.4823H131.059L85.5869 39.571H-27.7172C-27.814 39.571 -27.8925 39.6495 -27.8925 39.7464C-27.8925 39.8432 -27.814 39.9217 -27.7172 39.9217H83.337L29.4128 48.328H-27.7172C-27.814 48.328 -27.8925 48.4065 -27.8925 48.5034C-27.8925 48.6002 -27.814 48.6787 -27.7172 48.6787H27.1629L-27.7432 57.2381C-27.8389 57.253 -27.9044 57.3427 -27.8895 57.4384C-27.8745 57.5341 -27.7849 57.5995 -27.6892 57.5846L29.44 48.6787H165.584L113.69 58.7898H-27.7172C-27.814 58.7898 -27.8925 58.8683 -27.8925 58.9652C-27.8925 59.062 -27.814 59.1406 -27.7172 59.1406H111.89L48.4152 71.5082H-27.7172C-27.814 71.5082 -27.8925 71.5867 -27.8925 71.6836C-27.8925 71.7804 -27.814 71.859 -27.7172 71.859H46.6151L-27.7497 86.3484C-27.8448 86.367 -27.9068 86.4591 -27.8883 86.5541C-27.8698 86.6492 -27.7777 86.7112 -27.6827 86.6927L48.4491 71.859H214.767L155.339 87.2956H-27.7172C-27.814 87.2956 -27.8925 87.3741 -27.8925 87.4709C-27.8925 87.5678 -27.814 87.6463 -27.7172 87.6463H153.989L77.8695 107.418H-27.7172C-27.814 107.418 -27.8925 107.497 -27.8925 107.594C-27.8925 107.691 -27.814 107.769 -27.7172 107.769H76.5193L-24.2497 133.944H-27.7172C-27.814 133.944 -27.8925 134.023 -27.8925 134.12C-27.8925 134.216 -27.814 134.295 -27.7172 134.295H-25.6L-27.7622 134.857C-27.856 134.881 -27.9122 134.977 -27.8879 135.07C-27.8635 135.164 -27.7678 135.22 -27.6741 135.196L-24.2049 134.295H222.617L129.629 170.515H-27.7172C-27.814 170.515 -27.8925 170.594 -27.8925 170.691C-27.8925 170.788 -27.814 170.866 -27.7172 170.866H128.729L-27.458 231.704C-27.4626 231.706 -27.4672 231.707 -27.4716 231.709C-27.5564 231.747 -27.5973 231.846 -27.5632 231.933C-27.5346 232.007 -27.4619 232.05 -27.3871 232.044H345.737C345.745 232.045 345.753 232.045 345.761 232.044H718.888C718.892 232.045 718.896 232.045 718.9 232.045L718.907 232.045L718.912 232.044H1092.04C1092.05 232.045 1092.06 232.045 1092.07 232.044H1465.19C1465.22 232.046 1465.25 232.042 1465.27 232.031C1465.33 232.005 1465.38 231.942 1465.38 231.869C1465.38 231.789 1465.33 231.721 1465.25 231.7L1309.34 170.866H1466.81C1466.9 170.866 1466.98 170.788 1466.98 170.691C1466.98 170.594 1466.9 170.515 1466.81 170.515H1308.44L1215.61 134.295H1462.44L1466.76 135.42C1466.86 135.444 1466.95 135.388 1466.98 135.294C1467 135.2 1466.95 135.104 1466.85 135.08L1463.83 134.295H1466.81C1466.9 134.295 1466.98 134.216 1466.98 134.12C1466.98 134.023 1466.9 133.944 1466.81 133.944H1462.48L1361.83 107.769H1466.81C1466.9 107.769 1466.98 107.691 1466.98 107.594C1466.98 107.497 1466.9 107.418 1466.81 107.418H1360.48L1284.45 87.6463H1466.81C1466.9 87.6463 1466.98 87.5678 1466.98 87.4709C1466.98 87.3741 1466.9 87.2956 1466.81 87.2956H1283.1L1223.74 71.859H1390.06L1466.77 86.8189C1466.87 86.8374 1466.96 86.7754 1466.98 86.6803C1467 86.5852 1466.94 86.4931 1466.84 86.4746L1391.89 71.859H1466.81C1466.9 71.859 1466.98 71.7804 1466.98 71.6836C1466.98 71.5867 1466.9 71.5082 1466.81 71.5082H1390.1L1326.68 59.1406H1466.81C1466.9 59.1406 1466.98 59.062 1466.98 58.9652C1466.98 58.8683 1466.9 58.7898 1466.81 58.7898H1324.88L1273.03 48.6787H1409.19L1466.78 57.663C1466.88 57.6779 1466.97 57.6125 1466.98 57.5168C1467 57.4211 1466.93 57.3314 1466.84 57.3165L1411.46 48.6787H1466.81C1466.9 48.6787 1466.98 48.6002 1466.98 48.5034C1466.98 48.4065 1466.9 48.328 1466.81 48.328H1409.21L1355.32 39.9217H1466.81C1466.9 39.9217 1466.98 39.8432 1466.98 39.7464C1466.98 39.6495 1466.9 39.571 1466.81 39.571H1353.07L1307.63 32.4823H1422.55L1466.79 38.2328C1466.88 38.2453 1466.97 38.1776 1466.98 38.0816C1466.99 37.9855 1466.93 37.8975 1466.83 37.885L1425.27 32.4823H1466.81C1466.9 32.4823 1466.98 32.4038 1466.98 32.3069C1466.98 32.2101 1466.9 32.1316 1466.81 32.1316H1422.57L1376.05 26.0838H1466.81C1466.9 26.0838 1466.98 26.0053 1466.98 25.9084C1466.98 25.8116 1466.9 25.733 1466.81 25.733H1373.35L1333.25 20.5209H1432.4L1466.79 24.3531C1466.88 24.3638 1466.97 24.2945 1466.98 24.1982C1466.99 24.1019 1466.92 24.0152 1466.83 24.0045L1435.56 20.5209H1466.81C1466.9 20.5209 1466.98 20.4424 1466.98 20.3456C1466.98 20.2487 1466.9 20.1702 1466.81 20.1702H1432.41L1391.79 15.6438H1466.81C1466.9 15.6438 1466.98 15.5653 1466.98 15.4684C1466.98 15.3716 1466.9 15.2931 1466.81 15.2931H1388.64L1353.09 11.3316H1440.02L1466.79 13.9414C1466.89 13.9508 1466.97 13.8803 1466.98 13.7839C1466.99 13.6875 1466.92 13.6017 1466.83 13.5923L1443.63 11.3316H1466.81C1466.9 11.3316 1466.98 11.253 1466.98 11.1562C1466.98 11.0593 1466.9 10.9808 1466.81 10.9808H1440.03L1404.23 7.491H1466.81C1466.9 7.491 1466.98 7.41248 1466.98 7.31563C1466.98 7.21877 1466.9 7.14026 1466.81 7.14026H1400.63L1368.91 4.04789H1446.03L1466.79 5.84721C1466.89 5.85557 1466.97 5.78413 1466.98 5.68764C1466.99 5.59114 1466.92 5.50614 1466.82 5.49778L1450.09 4.04789H1466.81C1466.9 4.04789 1466.98 3.96937 1466.98 3.87252C1466.98 3.77566 1466.9 3.69715 1466.81 3.69715H1446.04L1414.25 0.942536H1466.81C1466.9 0.942536 1466.98 0.86402 1466.98 0.767166C1466.98 0.670312 1466.9 0.591797 1466.81 0.591797H-27.7162ZM1359.09 107.418L1283.06 87.6463H1096.06L1146.73 107.418H1359.09ZM1145.77 107.418L1095.1 87.6463H907.688L933.003 107.418H1145.77ZM933.452 107.769H1146.67L1213.75 133.944H966.964L933.452 107.769ZM932.433 107.418L907.118 87.6463H719.396L719.352 107.418H932.433ZM719.351 107.769H932.882L966.395 133.944H719.293L719.351 107.769ZM719.001 107.418L719.045 87.6463H531.325L505.923 107.418H719.001ZM505.472 107.769H719L718.942 133.944H471.844L505.472 107.769ZM505.352 107.418L530.754 87.6463H343.343L292.583 107.418H505.352ZM291.682 107.769H504.901L471.273 133.944H224.484L291.682 107.769ZM291.616 107.418L342.377 87.6463H155.384L79.2646 107.418H291.616ZM77.9144 107.769H290.716L223.517 133.944H-22.8546L77.9144 107.769ZM1147.63 107.769H1360.44L1461.09 133.944H1214.72L1147.63 107.769ZM156.734 87.2956H343.277L382.907 71.859H216.162L156.734 87.2956ZM344.243 87.2956H531.205L551.037 71.859H383.873L344.243 87.2956ZM531.776 87.2956H719.046L719.08 71.859H551.608L531.776 87.2956ZM719.397 87.2956H906.669L886.905 71.859H719.431L719.397 87.2956ZM907.239 87.2956H1094.2L1054.63 71.859H887.475L907.239 87.2956ZM1095.16 87.2956H1281.71L1222.35 71.859H1055.6L1095.16 87.2956ZM1388.26 71.5082L1324.84 59.1406H1174.84L1222.4 71.5082H1388.26ZM1221 71.5082L1173.44 59.1406H1023L1054.7 71.5082H1221ZM1053.74 71.5082L1022.04 59.1406H871.191L887.026 71.5082H1053.74ZM886.456 71.5082L870.622 59.1406H719.459L719.432 71.5082H886.456ZM719.081 71.5082L719.109 59.1406H567.948L552.059 71.5082H719.081ZM551.487 71.5082L567.377 59.1406H416.525L384.774 71.5082H551.487ZM383.808 71.5082L415.559 59.1406H265.126L217.512 71.5082H383.808ZM216.117 71.5082L263.73 59.1406H113.724L50.2492 71.5082H216.117ZM130.596 170.515L223.583 134.295H470.822L424.288 170.515H130.596ZM424.859 170.515L471.393 134.295H718.941L718.861 170.515H424.859ZM719.212 170.515L719.292 134.295H966.844L1013.22 170.515H719.212ZM1013.79 170.515L967.413 134.295H1214.65L1307.48 170.515H1013.79ZM1323.05 58.7898L1271.2 48.6787H1134.61L1173.49 58.7898H1323.05ZM1172.09 58.7898L1133.21 48.6787H996.191L1022.1 58.7898H1172.09ZM1021.14 58.7898L995.227 48.6787H857.797L870.742 58.7898H1021.14ZM870.172 58.7898L857.227 48.6787H719.483L719.46 58.7898H870.172ZM719.109 58.7898L719.132 48.6787H581.389L568.398 58.7898H719.109ZM567.827 58.7898L580.818 48.6787H443.383L417.425 58.7898H567.827ZM416.459 58.7898L442.417 48.6787H305.402L266.476 58.7898H416.459ZM265.081 58.7898L304.007 48.6787H167.418L115.524 58.7898H265.081ZM167.384 48.328H31.6899L85.6141 39.9217H210.527L167.384 48.328ZM305.357 48.328H169.218L212.361 39.9217H337.719L305.357 48.328ZM443.317 48.328H306.752L339.114 39.9217H464.899L443.317 48.328ZM444.284 48.328H581.268L592.068 39.9217H465.865L444.284 48.328ZM581.839 48.328H719.133L719.151 39.9217H592.639L581.839 48.328ZM719.483 48.328H856.778L846.015 39.9217H719.502L719.483 48.328ZM857.348 48.328H994.328L972.783 39.9217H846.585L857.348 48.328ZM1131.87 48.328H995.292L973.748 39.9217H1099.54L1131.87 48.328ZM1269.4 48.328H1133.26L1100.93 39.9217H1226.29L1269.4 48.328ZM1406.94 48.328H1271.23L1228.12 39.9217H1353.05L1406.94 48.328ZM1410.19 0.942536H1337.05L1365.31 3.69715H1441.98L1410.19 0.94266L1410.19 0.942536ZM1333.44 0.942536H1259.85L1284.57 3.69715H1361.7L1333.44 0.942536ZM1256.68 0.942536H1182.64L1203.83 3.69715H1281.4L1256.68 0.942536ZM1179.92 0.942536H1105.44L1123.1 3.69715H1201.11L1179.92 0.942536ZM1103.16 0.942536H1028.24L1042.37 3.69715H1120.82L1103.16 0.942536ZM1026.41 0.942536H951.045L961.637 3.69715H1040.54L1026.41 0.942536ZM949.651 0.942536H873.849L880.909 3.69715H960.243L949.651 0.942536ZM872.885 0.942536H796.679L800.206 3.69715H879.944L872.885 0.942536ZM796.109 0.942536H719.589L719.583 3.69715H799.636L796.109 0.942536ZM719.238 0.942536H642.718L639.179 3.69715H719.232L719.238 0.942536ZM642.147 0.942536H565.935L558.863 3.69715H638.608L642.147 0.942536ZM564.969 0.942536H489.177L478.572 3.69715H557.897L564.969 0.942536ZM487.782 0.942536H412.416L398.278 3.69715H477.177L487.782 0.942536ZM410.582 0.942536H335.657L317.987 3.69715H396.444L410.582 0.942536ZM333.38 0.942536H258.906L237.703 3.69715H315.709L333.38 0.942536ZM256.184 0.942536H182.149L157.412 3.69715H234.98L256.184 0.942536ZM178.98 0.942536H105.392L77.1216 3.69715H154.243L178.98 0.942536ZM101.776 0.942536H28.6357L28.6344 0.94266L-3.16348 3.69715H73.5049L101.776 0.942536ZM18.8316 32.1316L65.3838 26.0838H172.104L133.309 32.1316H18.8316ZM68.0836 25.733H174.354L207.789 20.5209H108.203L68.0836 25.733ZM135.586 32.1316L174.381 26.0838H281.548L250.509 32.1316H135.586ZM176.631 25.733H283.348L310.099 20.5209H210.066L176.631 25.733ZM252.343 32.1316L283.382 26.0838H390.993L367.71 32.1316H252.343ZM285.182 25.733H392.343L412.409 20.5209H311.933L285.182 25.733ZM369.105 32.1316L392.388 26.0838H500.424L484.898 32.1316H369.105ZM393.738 25.733H501.325L514.706 20.5209H413.804L393.738 25.733ZM485.864 32.1316L501.391 26.0838H609.847L602.077 32.1316H485.864ZM502.291 25.733H610.297L616.993 20.5209H515.672L502.291 25.733ZM602.648 32.1316L610.418 26.0838H719.182L719.169 32.1316H602.648ZM610.868 25.733H719.183L719.194 20.5209H617.565L610.868 25.733ZM719.519 32.1316L719.533 26.0838H828.298L836.041 32.1316H719.519ZM719.534 25.733H827.849L821.176 20.5209H719.545L719.534 25.733ZM836.611 32.1316L828.868 26.0838H937.318L952.818 32.1316H836.611ZM828.419 25.733H936.42L923.062 20.5209H821.746L828.419 25.733ZM953.783 32.1316L938.283 26.0838H1046.33L1069.58 32.1316H953.783ZM937.384 25.733H1044.98L1024.94 20.5209H924.026L937.384 25.733ZM1070.98 32.1316L1047.72 26.0838H1155.33L1186.35 32.1316H1070.98ZM1046.37 25.733H1153.53L1126.81 20.5209H1026.33L1046.37 25.733ZM1188.18 32.1316L1157.17 26.0838H1264.34L1303.11 32.1316H1188.18ZM1155.37 25.733H1262.09L1228.68 20.5209H1128.64L1155.37 25.733ZM1305.38 32.1316L1266.61 26.0838H1373.33L1419.85 32.1316H1305.38ZM1264.36 25.733H1370.63L1330.53 20.5209H1230.95L1264.36 25.733ZM1350.8 39.571L1305.36 32.4823H1189.98L1226.33 39.571H1350.8ZM1224.49 39.571L1188.14 32.4823H1072.33L1099.58 39.571H1224.49ZM1098.19 39.571L1070.93 32.4823H954.682L972.849 39.571H1098.19ZM971.885 39.571L953.717 32.4823H837.06L846.136 39.571H971.885ZM845.566 39.571L836.49 32.4823H719.519L719.503 39.571H845.566ZM719.152 39.571L719.168 32.4823H602.197L593.09 39.571H719.152ZM592.519 39.571L601.626 32.4823H484.964L466.765 39.571H592.519ZM465.799 39.571L483.998 32.4823H367.755L340.465 39.571H465.799ZM339.07 39.571L366.36 32.4823H250.543L214.161 39.571H339.07ZM212.328 39.571L248.709 32.4823H133.336L87.864 39.571H212.328ZM-26.4653 231.694L129.695 170.866H423.837L345.689 231.694H-26.4653ZM346.26 231.694L424.408 170.866H718.86L718.725 231.694H346.26ZM719.076 231.694L719.211 170.866H1013.67L1091.55 231.694H719.076ZM1092.12 231.694L1014.24 170.866H1308.38L1464.27 231.694H1092.12ZM1397.02 7.14026L1365.29 4.04789H1287.72L1315.47 7.14026H1397.02ZM1312.3 7.14026L1284.55 4.04789H1206.53L1230.32 7.14026H1312.3ZM1233.02 7.491H1315.45L1346.77 10.9808H1259.86L1233.02 7.491ZM1227.6 7.14026L1203.81 4.04789H1125.35L1145.17 7.14026H1227.6ZM1147.42 7.491H1230.3L1257.14 10.9808H1169.79L1147.42 7.491ZM1142.9 7.14026L1123.07 4.04789H1044.17L1060.03 7.14026H1142.9ZM1061.82 7.491H1145.14L1167.52 10.9808H1079.72L1061.82 7.491ZM1058.19 7.14026L1042.34 4.04789H962.986L974.877 7.14026H1058.19ZM976.226 7.491H1059.99L1077.89 10.9808H989.645L976.226 7.491ZM973.483 7.14026L961.592 4.04789H881.808L889.733 7.14026H973.483ZM890.632 7.491H974.832L988.252 10.9808H899.576L890.632 7.491ZM888.769 7.14026L880.843 4.04789H800.655L804.614 7.14026H888.769ZM805.063 7.491H889.667L898.611 10.9808H809.531L805.063 7.491ZM804.044 7.14026L800.085 4.04789H719.582L719.575 7.14026H804.044ZM719.574 7.491H804.493L808.961 10.9808H719.566L719.574 7.491ZM719.224 7.14026L719.231 4.04789H638.728L634.755 7.14026H719.224ZM634.305 7.491H719.223L719.216 10.9808H629.821L634.305 7.491ZM634.184 7.14026L638.157 4.04789H557.963L550.024 7.14026H634.184ZM549.123 7.491H633.734L629.25 10.9808H540.164L549.123 7.491ZM549.057 7.14026L556.996 4.04789H477.222L465.317 7.14026H549.057ZM463.967 7.491H548.157L539.198 10.9808H450.532L463.967 7.491ZM463.922 7.14026L475.827 4.04789H396.478L380.607 7.14026H463.922ZM378.807 7.491H462.572L449.136 10.9808H360.896L378.807 7.491ZM378.773 7.14026L394.644 4.04789H315.737L295.9 7.14026H378.773ZM293.65 7.491H376.973L359.062 10.9808H271.263L293.65 7.491ZM293.623 7.14026L313.46 4.04789H235.003L211.2 7.14026H293.623ZM208.5 7.491H291.373L268.986 10.9808H181.637L208.5 7.491ZM208.477 7.14026L232.281 4.04789H154.263L126.493 7.14026H208.477ZM123.343 7.491H205.778L178.915 10.9808H92.0047L123.343 7.491ZM123.324 7.14026L151.094 4.04789H73.522L41.7848 7.14026H123.324ZM38.1852 7.491H120.174L88.8355 10.9808H2.36901L38.1852 7.491ZM1318.62 7.491H1400.62L1436.42 10.9808H1349.94L1318.62 7.491ZM1429.25 20.1702L1388.62 15.6438H1295.74L1330.56 20.1702H1429.25ZM1327.84 20.1702L1293.02 15.6438H1199.69L1228.7 20.1702H1327.84ZM1226.43 20.1702L1197.41 15.6438H1103.63L1126.84 20.1702H1226.43ZM1125.01 20.1702L1101.8 15.6438H1007.58L1024.98 20.1702H1125.01ZM1023.59 20.1702L1006.18 15.6438H911.527L923.128 20.1702H1023.59ZM922.163 20.1702L910.562 15.6438H815.501L821.297 20.1702H922.163ZM820.727 20.1702L814.932 15.6438H719.556L719.546 20.1702H820.727ZM719.195 20.1702L719.205 15.6438H623.83L618.015 20.1702H719.195ZM617.444 20.1702L623.259 15.6438H528.193L516.572 20.1702H617.444ZM515.606 20.1702L527.227 15.6438H432.58L415.154 20.1702H515.606ZM413.759 20.1702L431.185 15.6438H336.964L313.733 20.1702H413.759ZM311.899 20.1702L335.13 15.6438H241.351L212.316 20.1702H311.899ZM210.039 20.1702L239.074 15.6438H145.744L110.903 20.1702H210.039ZM108.181 20.1702L143.022 15.6438H50.1307L9.48338 20.1702H108.181ZM145.722 15.2931H53.2803L88.855 11.3316H176.215L145.722 15.2931ZM148.444 15.2931H241.324L266.736 11.3316H178.938L148.444 15.2931ZM243.601 15.2931H336.93L357.262 11.3316H269.014L243.601 15.2931ZM338.764 15.2931H432.535L447.786 11.3316H359.096L338.764 15.2931ZM433.93 15.2931H528.127L538.297 11.3316H449.181L433.93 15.2931ZM529.093 15.2931H623.71L628.8 11.3316H539.264L529.093 15.2931ZM624.281 15.2931H719.206L719.215 11.3316H629.371L624.281 15.2931ZM719.557 15.2931H814.482L809.41 11.3316H719.566L719.557 15.2931ZM815.052 15.2931H909.663L899.51 11.3316H809.98L815.052 15.2931ZM910.628 15.2931H1004.83L989.601 11.3316H900.475L910.628 15.2931ZM1006.23 15.2931H1100L1079.69 11.3316H990.994L1006.23 15.2931ZM1101.83 15.2931H1195.16L1169.77 11.3316H1081.52L1101.83 15.2931ZM1197.44 15.2931H1290.32L1259.84 11.3316H1172.04L1197.44 15.2931ZM1385.48 15.2931H1293.04L1262.56 11.3316H1349.92L1385.48 15.2931Z" fill="url(#paint1_linear_2177_4539)"/>
<defs>
<linearGradient id="paint0_linear_2177_4539" x1="719.545" y1="13.019" x2="719.545" y2="193.903" gradientUnits="userSpaceOnUse">
<stop offset="0.0640087" stop-color="white" stop-opacity="0"/>
<stop offset="0.258526" stop-color="white" stop-opacity="0.8"/>
<stop offset="0.486011" stop-color="white" stop-opacity="0"/>
<stop offset="1" stop-color="white" stop-opacity="0"/>
</linearGradient>
<linearGradient id="paint1_linear_2177_4539" x1="50.0011" y1="52.2857" x2="1366.5" y2="52.2858" gradientUnits="userSpaceOnUse">
<stop/>
<stop offset="0.52582" stop-opacity="0"/>
<stop offset="1"/>
</linearGradient>
</defs>
</svg>
