<svg width="29" height="20" viewBox="0 0 29 20" fill="none" xmlns="http://www.w3.org/2000/svg">
<path d="M23.6565 5.67575C23.4091 4.75384 22.6805 4.02769 21.7552 3.78129C20.0779 3.3335 13.3527 3.3335 13.3527 3.3335C13.3527 3.3335 6.62756 3.3335 4.95035 3.78129C4.0251 4.02769 3.29631 4.75384 3.04903 5.67575C2.59961 7.34688 2.59961 10.8334 2.59961 10.8334C2.59961 10.8334 2.59961 14.3201 3.04903 15.9912C3.29631 16.913 4.0251 17.6392 4.95035 17.8856C6.62756 18.3335 13.3527 18.3335 13.3527 18.3335C13.3527 18.3335 20.0779 18.3335 21.7552 17.8856C22.6805 17.6392 23.4091 16.913 23.6565 15.9912C24.1059 14.3201 24.1059 10.8334 24.1059 10.8334C24.1059 10.8334 24.1059 7.34688 23.6565 5.67575Z" fill="white"/>
<path d="M11.2031 14.0479L16.7904 10.8336L11.2031 7.61927V14.0479Z" fill="#020202"/>
</svg>
