<svg width="21" height="20" viewBox="0 0 21 20" fill="none" xmlns="http://www.w3.org/2000/svg">
<g clip-path="url(#clip0_21322_78087)">
<path d="M8.02637 15.5742V16.793C8.02637 17.3124 8.19518 17.8188 8.50694 18.2339L8.51744 18.2485C8.74127 18.5467 9.03141 18.7887 9.3649 18.9553C9.6984 19.122 10.0661 19.2088 10.4389 19.2088H10.4446C11.0818 19.2086 11.6928 18.9555 12.1435 18.5051C12.5941 18.0548 12.8476 17.4439 12.8483 16.8068V15.5742H8.02637Z" fill="#B2B2B2"/>
<path d="M15.2958 10.3241C15.2967 9.49065 15.0827 8.671 14.6743 7.94439C14.2659 7.21779 13.677 6.6088 12.9645 6.17626C12.252 5.74373 11.44 5.50226 10.607 5.47521C9.7739 5.44816 8.94794 5.63642 8.20889 6.02182C7.46984 6.40722 6.84268 6.97672 6.38802 7.67529C5.93335 8.37387 5.66655 9.1779 5.61338 10.0097C5.56022 10.8415 5.7225 11.673 6.08453 12.4237C6.44656 13.1745 6.99612 13.8192 7.68009 14.2956C7.78705 14.37 7.87442 14.4691 7.93475 14.5846C7.99509 14.7001 8.0266 14.8284 8.02659 14.9587V15.5741C8.02659 15.6813 8.06914 15.784 8.14487 15.8597C8.22061 15.9354 8.32333 15.978 8.43044 15.978H12.4689C12.576 15.978 12.6787 15.9354 12.7545 15.8597C12.8302 15.784 12.8727 15.6813 12.8727 15.5741V14.9579C12.8727 14.8276 12.9042 14.6992 12.9646 14.5838C13.0249 14.4683 13.1123 14.3692 13.2192 14.2948C13.8605 13.85 14.3844 13.2565 14.746 12.5649C15.1077 11.8734 15.2963 11.1045 15.2958 10.3241Z" fill="#FFEF5E"/>
<path d="M10.4497 8.70923C11.4509 8.71038 12.4272 9.0216 13.2443 9.60012C14.0615 10.1786 14.6794 10.996 15.0131 11.94C15.2745 11.2086 15.3563 10.4251 15.2516 9.65553C15.1468 8.88594 14.8586 8.15279 14.4113 7.51787C13.964 6.88294 13.3706 6.36484 12.6811 6.0072C11.9917 5.64957 11.2264 5.46289 10.4497 5.46289C9.67298 5.46289 8.90767 5.64957 8.21822 6.0072C7.52877 6.36484 6.93538 6.88294 6.48804 7.51787C6.0407 8.15279 5.75252 8.88594 5.64778 9.65553C5.54304 10.4251 5.62482 11.2086 5.88621 11.94C6.21995 10.996 6.83786 10.1786 7.65502 9.60012C8.47217 9.0216 9.44846 8.71038 10.4497 8.70923Z" fill="#FFF9BF"/>
<path d="M11.6731 19.207H9.25" stroke="#191919" stroke-width="0.807692" stroke-linecap="round" stroke-linejoin="round"/>
<path d="M12.4818 17.5938H8.44336" stroke="#191919" stroke-width="0.807692" stroke-linecap="round" stroke-linejoin="round"/>
<path d="M10.4619 0.630859V3.05394" stroke="#191919" stroke-width="0.807692" stroke-linecap="round" stroke-linejoin="round"/>
<path d="M3.6084 3.4707L5.32151 5.18382" stroke="#191919" stroke-width="0.807692" stroke-linecap="round" stroke-linejoin="round"/>
<path d="M17.3157 3.4707L15.6025 5.18382" stroke="#191919" stroke-width="0.807692" stroke-linecap="round" stroke-linejoin="round"/>
<path d="M1.17285 10.3223H3.59593" stroke="#191919" stroke-width="0.807692" stroke-linecap="round" stroke-linejoin="round"/>
<path d="M19.7502 10.3223H17.3271" stroke="#191919" stroke-width="0.807692" stroke-linecap="round" stroke-linejoin="round"/>
<path d="M15.3075 10.3241C15.3085 9.49065 15.0944 8.671 14.686 7.94439C14.2776 7.21779 13.6887 6.6088 12.9762 6.17626C12.2638 5.74373 11.4518 5.50226 10.6187 5.47521C9.78562 5.44816 8.95966 5.63642 8.22061 6.02182C7.48156 6.40722 6.8544 6.97672 6.39974 7.67529C5.94507 8.37387 5.67827 9.1779 5.6251 10.0097C5.57194 10.8415 5.73421 11.673 6.09625 12.4237C6.45828 13.1745 7.00784 13.8192 7.69181 14.2956C7.79876 14.37 7.88614 14.4691 7.94647 14.5846C8.00681 14.7001 8.03832 14.8284 8.03831 14.9587V15.5741C8.03831 15.6813 8.08086 15.784 8.15659 15.8597C8.23233 15.9354 8.33505 15.978 8.44216 15.978H12.4806C12.5877 15.978 12.6904 15.9354 12.7662 15.8597C12.8419 15.784 12.8845 15.6813 12.8845 15.5741V14.9579C12.8845 14.8276 12.916 14.6992 12.9763 14.5838C13.0366 14.4683 13.124 14.3692 13.231 14.2948C13.8721 13.8499 14.3958 13.2563 14.7575 12.5648C15.1191 11.8733 15.3078 11.1045 15.3075 10.3241Z" stroke="#191919" stroke-width="0.807692" stroke-linecap="round" stroke-linejoin="round"/>
</g>
<defs>
<clipPath id="clip0_21322_78087">
<rect width="19.3846" height="19.3846" fill="white" transform="translate(0.769531 0.226562)"/>
</clipPath>
</defs>
</svg>
