<svg width="85" height="64" viewBox="0 0 85 64" fill="none" xmlns="http://www.w3.org/2000/svg">
<path d="M54.8884 7.95072C54.8884 7.95072 58.8192 11.0249 62.9071 12.9325C66.995 14.8401 78.7805 19.2007 79.1889 23.0145C79.5972 26.8297 83.2082 32.6882 83.6166 37.6613C84.025 42.6345 84.5019 49.5153 84.5019 49.5153C84.5019 49.5153 61.9976 59.5474 40.8284 57.6797C19.6591 55.8121 0.208984 50.1993 0.208984 50.1993C0.208984 50.1993 1.01429 44.515 1.77248 39.8745C2.53066 35.2326 5.51485 32.2969 6.08314 27.8435C6.65142 23.3914 7.01124 19.4277 9.19728 17.7886C11.3833 16.1494 33.0923 7.94929 33.0923 7.94929L33.4649 9.77551L43.8982 54.8255L53.1121 29.9752L55.1025 11.2933L54.9612 9.00733L54.7684 7.76367L54.8898 7.95072" fill="#3EBB5A"/>
<path d="M43.8952 54.8255L32.9951 7.76367C32.9951 7.76367 25.2033 15.6711 25.2347 17.7215C25.2661 19.7719 30.2493 24.3438 30.2493 24.3438C30.2493 24.3438 27.1909 27.2766 27.7263 30.0209C28.2618 32.7653 43.5883 55.281 43.5883 55.281L43.8938 54.8269L43.8952 54.8255Z" fill="#267939" stroke="#083A55" stroke-width="0.296296" stroke-linecap="round" stroke-linejoin="round"/>
<path d="M44.041 18.3149H41.4623L36.8804 24.5317L43.8968 54.8277L49.3555 39.5569L53.7461 17.4824L45.3132 17.708L44.041 18.3149Z" fill="#D4F7DC" stroke="#083A55" stroke-width="0.296296" stroke-linecap="round" stroke-linejoin="round"/>
<path d="M34.1519 30.998L37.6072 38.7227" stroke="#083A55" stroke-width="0.296296" stroke-linecap="round" stroke-linejoin="round"/>
<path d="M43.8954 54.825L49.5825 34.5567L54.7671 7.76172C54.7671 7.76172 63.2613 14.831 63.8639 16.9599C64.4664 19.0888 57.7998 25.4542 57.7998 25.4542C57.7998 25.4542 61.7235 29.6063 61.615 31.5197C61.4065 35.2121 43.5913 55.2776 43.5913 55.2776L43.8969 54.8235L43.8954 54.825Z" fill="#267939" stroke="#083A55" stroke-width="0.296296" stroke-linecap="round" stroke-linejoin="round"/>
<path d="M60.8467 20.8164C60.8467 20.8164 60.7696 21.5889 59.3789 23.0196" stroke="#083A55" stroke-width="0.296296" stroke-linecap="round" stroke-linejoin="round"/>
<path d="M56.9446 29.9746C56.9446 29.9746 59.8045 31.7908 59.6103 32.0992C59.4162 32.4077 56.442 30.6314 56.9446 29.9746Z" fill="#083A55" stroke="#083A55" stroke-width="0.296296" stroke-linecap="round" stroke-linejoin="round"/>
<path d="M14.1951 17.4808L19.8565 15.3848" stroke="#083A55" stroke-width="0.296296" stroke-linecap="round" stroke-linejoin="round"/>
<path d="M76.8516 20.4746C76.8516 20.4746 74.6855 37.7401 74.3471 40.7857C74.0087 43.8313 73.5347 49.1815 73.5347 49.1815" stroke="#083A55" stroke-width="0.296296" stroke-linecap="round" stroke-linejoin="round"/>
<path d="M79.019 27.2461L78.6121 34.5581" stroke="#083A55" stroke-width="0.296296" stroke-linecap="round" stroke-linejoin="round"/>
<path d="M81.5904 34.8613L79.0188 42.209" stroke="#083A55" stroke-width="0.296296" stroke-linecap="round" stroke-linejoin="round"/>
<path d="M80.5752 43.9688L78.8147 47.6926" stroke="#083A55" stroke-width="0.296296" stroke-linecap="round" stroke-linejoin="round"/>
<path d="M74.1954 42.209C74.1954 42.209 73.263 36.3191 72.9932 34.5586" stroke="#083A55" stroke-width="0.296296" stroke-linecap="round" stroke-linejoin="round"/>
<path d="M76.8516 37.7383C76.8516 37.7383 75.7007 41.2593 75.1924 42.2074C74.6841 43.1555 73.9602 44.5791 73.9602 44.5791" stroke="#083A55" stroke-width="0.296296" stroke-linecap="round" stroke-linejoin="round"/>
<path d="M14.1947 49.1816C14.1947 49.1816 11.0063 36.6109 10.8992 34.5576C10.7921 32.5044 8.44189 19.8965 8.44189 19.8965" stroke="#083A55" stroke-width="0.296296" stroke-linecap="round" stroke-linejoin="round"/>
<path d="M6.7627 23.0195L8.97586 29.075" stroke="#083A55" stroke-width="0.296296" stroke-linecap="round" stroke-linejoin="round"/>
<path d="M6.7627 34L9.93822 39.5557" stroke="#083A55" stroke-width="0.296296" stroke-linecap="round" stroke-linejoin="round"/>
<path d="M11.3191 45.832L6.0918 39.5566" stroke="#083A55" stroke-width="0.296296" stroke-linecap="round" stroke-linejoin="round"/>
<path d="M3.9541 40.4102C3.9541 40.4102 6.36573 43.7228 6.76267 45.1121" stroke="#083A55" stroke-width="0.296296" stroke-linecap="round" stroke-linejoin="round"/>
<path d="M44.041 18.3138C44.041 18.3138 43.03 18.4123 41.5137 19.6117C41.4009 19.7002 41.2866 19.7959 41.1695 19.8973C40.3828 20.5841 39.4733 21.9691 38.7265 23.2513C37.8726 24.7191 37.2315 26.0527 37.2315 26.0527L33.2122 8.69727C33.2122 8.69727 38.7122 14.61 40.1715 15.8008C41.6307 16.9916 44.041 18.3138 44.041 18.3138Z" fill="#D4F7DC" stroke="#083A55" stroke-width="0.296296" stroke-linecap="round" stroke-linejoin="round"/>
<path d="M54.373 9.4707L51.3445 25.4597C51.3445 25.4597 49.6454 23.2337 49.3555 22.851C48.6059 21.8644 46.7797 20.3309 45.4846 19.3414C44.705 18.746 44.0425 18.3148 44.0425 18.3148C44.0425 18.3148 47.6392 15.7389 48.7273 14.798C50.2008 13.5229 54.373 9.4707 54.373 9.4707Z" fill="#D4F7DC" stroke="#083A55" stroke-width="0.296296" stroke-linecap="round" stroke-linejoin="round"/>
<path d="M46.6554 28.0783L48.663 37.8362L43.8968 54.8261L39.7604 36.9652C39.7604 36.9652 40.7641 32.3532 41.4366 30.9982C42.1092 29.6432 42.973 27.8498 42.973 27.8498C42.973 27.8498 40.42 24.68 39.7604 24.1046C39.2406 23.6519 38.8651 23.3564 38.728 23.2507C39.4748 21.9685 40.3843 20.5835 41.1711 19.8967C41.2882 19.7953 41.4024 19.6997 41.5152 19.6111C41.5152 19.6111 43.4556 19.8153 44.5137 19.6111C44.9463 19.5283 45.2619 19.4284 45.4846 19.3398C46.7797 20.3293 48.6387 21.8386 49.3555 22.8495C48.9257 23.2721 47.9919 24.3116 47.4707 25.788C46.7796 27.747 46.6554 28.0783 46.6554 28.0783Z" fill="#083A55" stroke="#083A55" stroke-width="0.296296" stroke-linecap="round" stroke-linejoin="round"/>
<path d="M40.8284 26.3457V30.348" stroke="#083A55" stroke-width="0.296296" stroke-linecap="round" stroke-linejoin="round"/>
<path d="M48.4802 28.9062V33.1955" stroke="#083A55" stroke-width="0.296296" stroke-linecap="round" stroke-linejoin="round"/>
<path d="M46.6553 28.0778C46.6553 28.0778 46.1327 27.6523 44.5978 27.6523C43.4769 27.6523 42.9729 27.8494 42.9729 27.8494" stroke="#083A55" stroke-width="0.296296" stroke-linecap="round" stroke-linejoin="round"/>
<path d="M48.6629 37.8359C48.6629 37.8359 45.4345 41.5583 44.1281 43.029C43.1157 44.1684 41.7021 45.355 41.7021 45.355L42.2019 47.5153C42.2019 47.5153 45.3703 44.2498 45.7772 43.8429C46.1841 43.436 47.4349 42.2094 47.4349 42.2094L48.6615 37.8359H48.6629Z" fill="#F6F7F7" stroke="#083A55" stroke-width="0.296296" stroke-linecap="round" stroke-linejoin="round"/>
<path d="M44.8479 27.6582C44.8479 27.6582 43.9483 28.4635 43.59 29.4187C43.2316 30.374 42.8832 32.4415 42.3906 33.2982C41.7023 34.4962 39.8747 36.448 39.8747 36.448L39.759 36.9663L40.0703 38.4313C40.0703 38.4313 42.1593 36.3424 42.7861 35.0002C43.4129 33.658 44.3981 30.6553 45.0535 29.9785L46.6741 28.1722C46.6741 28.1722 46.2772 27.6425 44.8479 27.6611V27.6582Z" fill="#F6F7F7" stroke="#083A55" stroke-width="0.296296" stroke-linecap="round" stroke-linejoin="round"/>
<path d="M39.8932 21.4102C39.8932 21.4102 43.5914 22.2512 45.5489 23.8989C47.061 25.1711 47.328 26.192 47.328 26.192L46.8083 27.6541C46.8083 27.6541 43.9783 24.9555 41.7894 24.1102C39.6005 23.2649 38.8638 23.0193 38.8638 23.0193L39.8918 21.4102H39.8932Z" fill="#F6F7F7" stroke="#083A55" stroke-width="0.296296" stroke-linecap="round" stroke-linejoin="round"/>
<path d="M0.209229 50.3418C0.209229 50.3418 1.01454 44.6575 1.77272 40.017C2.53091 35.3751 5.5151 32.4394 6.08338 27.986C6.65166 23.534 7.01149 19.5703 9.19752 17.9311C11.3836 16.2919 33.0925 8.0918 33.0925 8.0918" stroke="#083A55" stroke-width="0.296296" stroke-linecap="round" stroke-linejoin="round"/>
<path d="M54.8887 8.0918C54.8887 8.0918 58.8195 11.1659 62.9074 13.0736C66.9954 14.9812 78.7808 19.3418 79.1892 23.1556C79.5975 26.9708 83.2086 32.8292 83.6169 37.8024C84.0253 42.7756 84.5022 49.6564 84.5022 49.6564" stroke="#083A55" stroke-width="0.296296" stroke-linecap="round" stroke-linejoin="round"/>
</svg>
