<svg width="121" height="120" viewBox="0 0 121 120" fill="none" xmlns="http://www.w3.org/2000/svg">
<path d="M116.802 57.5525V86.9275C116.802 88.2257 116.286 89.4708 115.368 90.3888C114.45 91.3068 113.205 91.8225 111.907 91.8225H9.09422C7.79598 91.8225 6.55092 91.3068 5.63293 90.3888C4.71494 89.4708 4.19922 88.2257 4.19922 86.9275V57.5525H38.4692V62.4475C38.4765 65.0424 39.5105 67.5289 41.3454 69.3638C43.1803 71.1987 45.6668 72.2327 48.2617 72.24H72.7417C75.3366 72.2327 77.8232 71.1987 79.658 69.3638C81.4929 67.5289 82.527 65.0424 82.5342 62.4475V57.5525H116.802Z" fill="#FFDDA1"/>
<path d="M116.804 57.5525H82.5342V62.4475C82.527 65.0424 81.4929 67.5289 79.658 69.3638C77.8232 71.1987 75.3366 72.2327 72.7417 72.24H48.2617C45.6668 72.2327 43.1803 71.1987 41.3454 69.3638C39.5105 67.5289 38.4765 65.0424 38.4692 62.4475V57.5525H4.19922L19.9142 30.625C20.3414 29.8851 20.9547 29.2699 21.6933 28.8405C22.4318 28.4112 23.2699 28.1826 24.1242 28.1775H96.8267C97.6895 28.1738 98.5379 28.3983 99.286 28.8281C100.034 29.2579 100.655 29.8778 101.087 30.625L116.804 57.5525Z" fill="#FFBC44"/>
<path d="M116.802 86.9275C116.802 88.2257 116.286 89.4708 115.368 90.3888C114.45 91.3068 113.205 91.8225 111.907 91.8225H9.09422C7.79598 91.8225 6.55092 91.3068 5.63293 90.3888C4.71494 89.4708 4.19922 88.2257 4.19922 86.9275V57.5525H38.4692V62.4475C38.4765 65.0424 39.5105 67.5289 41.3454 69.3638C43.1803 71.1987 45.6668 72.2327 48.2617 72.24H72.7417C75.3366 72.2327 77.8232 71.1987 79.658 69.3638C81.4929 67.5289 82.527 65.0424 82.5342 62.4475V57.5525H116.804L116.802 86.9275Z" stroke="#191919" stroke-linecap="round" stroke-linejoin="round"/>
<path d="M4.19922 57.5525L19.9192 30.625C20.3476 29.8829 20.9633 29.2663 21.7048 28.8368C22.4462 28.4073 23.2874 28.18 24.1442 28.1775H96.8567C97.7136 28.18 98.5547 28.4073 99.2962 28.8368C100.038 29.2663 100.653 29.8829 101.082 30.625L116.802 57.5525" stroke="#191919" stroke-linecap="round" stroke-linejoin="round"/>
</svg>
