<svg width="34" height="37" viewBox="0 0 34 37" fill="none" xmlns="http://www.w3.org/2000/svg">
<path d="M0.913254 2.30044C0.521587 2.70019 0.294922 3.32257 0.294922 4.12857V32.8781C0.294922 33.6841 0.521587 34.3064 0.913254 34.7062L1.00992 34.7939L17.5332 18.6902V18.3099L1.00992 2.2062L0.913254 2.30044Z" fill="white"/>
<path d="M25.0349 24.0608L19.5332 18.6902V18.3099L25.0415 12.9393L25.1649 13.0092L31.6882 16.628C33.5499 17.655 33.5499 19.345 31.6882 20.3785L25.1649 23.9909L25.0349 24.0608Z" fill="white"/>
<path d="M24.1647 24.991L18.5331 19.5001L1.91309 35.7062C2.53142 36.34 3.53975 36.4163 4.68642 35.7826L24.1647 24.991Z" fill="white"/>
<path d="M24.1647 12.0091L4.68642 1.21751C3.53975 0.590255 2.53142 0.666628 1.91309 1.30038L18.5331 17.5L24.1647 12.0091Z" fill="white"/>
</svg>
