<svg width="16" height="21" viewBox="0 0 16 21" fill="none" xmlns="http://www.w3.org/2000/svg">
<path d="M14.3862 8.6082C14.4342 8.58413 14.4746 8.54718 14.5028 8.50147C14.531 8.45577 14.546 8.40311 14.546 8.3494C14.546 8.29568 14.531 8.24303 14.5028 8.19732C14.4746 8.15162 14.4342 8.11466 14.3862 8.0906L8.36483 5.07992C8.26028 5.02737 8.14488 5 8.02787 5C7.91085 5 7.79546 5.02737 7.6909 5.07992L1.66954 8.0906C1.62152 8.11466 1.58115 8.15162 1.55293 8.19732C1.52471 8.24303 1.50977 8.29568 1.50977 8.3494C1.50977 8.40311 1.52471 8.45577 1.55293 8.50147C1.58115 8.54718 1.62152 8.58413 1.66954 8.6082L7.90165 11.7243C7.94196 11.7443 7.98634 11.7547 8.03134 11.7547C8.07634 11.7547 8.12072 11.7443 8.16103 11.7243L14.3862 8.6082Z" fill="#6B6C7E"/>
<path d="M8.60986 20.7119C8.60996 20.7612 8.62266 20.8097 8.64675 20.8527C8.67084 20.8957 8.70553 20.9319 8.74752 20.9578C8.78951 20.9836 8.83741 20.9983 8.88668 21.0005C8.93595 21.0027 8.98495 20.9922 9.02904 20.9701L15.1419 17.9143C15.2669 17.8516 15.3721 17.7554 15.4455 17.6364C15.5189 17.5173 15.5578 17.3802 15.5576 17.2403V9.79006C15.5577 9.74064 15.5451 9.69203 15.5211 9.64884C15.4971 9.60565 15.4624 9.56932 15.4204 9.54332C15.3784 9.51732 15.3304 9.5025 15.2811 9.50029C15.2317 9.49808 15.1826 9.50854 15.1384 9.53068L8.76966 12.715C8.72172 12.7394 8.68142 12.7765 8.65323 12.8222C8.62503 12.868 8.61002 12.9207 8.60986 12.9744V20.7119Z" fill="#6B6C7E"/>
<path d="M0.928945 9.53068C0.884767 9.50854 0.835657 9.49808 0.786291 9.50029C0.736926 9.5025 0.688948 9.51732 0.646927 9.54332C0.604906 9.56932 0.570241 9.60565 0.546232 9.64884C0.522222 9.69203 0.509669 9.74064 0.509766 9.79006V17.2403C0.509599 17.3802 0.548406 17.5173 0.621834 17.6364C0.695262 17.7554 0.800407 17.8516 0.925472 17.9143L7.03831 20.9701C7.0824 20.9922 7.1314 21.0027 7.18067 21.0005C7.22994 20.9983 7.27784 20.9836 7.31983 20.9578C7.36182 20.9319 7.39651 20.8957 7.4206 20.8527C7.44469 20.8097 7.45739 20.7612 7.45749 20.7119V12.9744C7.45733 12.9207 7.44232 12.868 7.41412 12.8222C7.38593 12.7765 7.34563 12.7394 7.29769 12.715L0.928945 9.53068Z" fill="#6B6C7E"/>
</svg>
