<svg width="20" height="20" viewBox="0 0 20 20" fill="none" xmlns="http://www.w3.org/2000/svg">
<path d="M5.41406 7.08398H2.08073C1.85061 7.08398 1.66406 7.27053 1.66406 7.50065V18.334C1.66406 18.5641 1.85061 18.7507 2.08073 18.7507H5.41406C5.64418 18.7507 5.83073 18.5641 5.83073 18.334V7.50065C5.83073 7.27053 5.64418 7.08398 5.41406 7.08398Z" fill="white"/>
<path d="M3.73073 5.41667C4.87212 5.41667 5.7974 4.48393 5.7974 3.33333C5.7974 2.18274 4.87212 1.25 3.73073 1.25C2.58934 1.25 1.66406 2.18274 1.66406 3.33333C1.66406 4.48393 2.58934 5.41667 3.73073 5.41667Z" fill="white"/>
<path d="M15.4167 18.7497H17.9167C18.0272 18.7497 18.1332 18.7058 18.2113 18.6277C18.2894 18.5496 18.3333 18.4436 18.3333 18.3331V11.3331C18.3333 8.19141 16.5583 6.66641 14.075 6.66641C13.5852 6.64849 13.097 6.73341 12.642 6.9157C12.187 7.09798 11.7753 7.37359 11.4333 7.72474C11.3877 7.77751 11.3269 7.81502 11.2593 7.83224C11.1917 7.84946 11.1204 7.84555 11.055 7.82105C10.9897 7.79654 10.9334 7.75262 10.8938 7.69517C10.8541 7.63773 10.833 7.56953 10.8333 7.49974C10.8333 7.38923 10.7894 7.28325 10.7113 7.20511C10.6332 7.12697 10.5272 7.08307 10.4167 7.08307H7.91667C7.80616 7.08307 7.70018 7.12697 7.62204 7.20511C7.5439 7.28325 7.5 7.38923 7.5 7.49974V18.3331C7.5 18.4436 7.5439 18.5496 7.62204 18.6277C7.70018 18.7058 7.80616 18.7497 7.91667 18.7497H10.4167C10.5272 18.7497 10.6332 18.7058 10.7113 18.6277C10.7894 18.5496 10.8333 18.4436 10.8333 18.3331V12.0831C10.8333 11.5305 11.0528 11.0006 11.4435 10.6099C11.8342 10.2192 12.3641 9.99974 12.9167 9.99974C13.4692 9.99974 13.9991 10.2192 14.3898 10.6099C14.7805 11.0006 15 11.5305 15 12.0831V18.3331C15 18.4436 15.0439 18.5496 15.122 18.6277C15.2002 18.7058 15.3062 18.7497 15.4167 18.7497Z" fill="white"/>
</svg>
