<svg width="20" height="20" viewBox="0 0 20 20" fill="none" xmlns="http://www.w3.org/2000/svg">
<path d="M5.41406 7.07422H2.08073C1.85061 7.07422 1.66406 7.26077 1.66406 7.49089V18.3242C1.66406 18.5543 1.85061 18.7409 2.08073 18.7409H5.41406C5.64418 18.7409 5.83073 18.5543 5.83073 18.3242V7.49089C5.83073 7.26077 5.64418 7.07422 5.41406 7.07422Z" fill="white"/>
<path d="M3.73073 5.4069C4.87212 5.4069 5.7974 4.47416 5.7974 3.32357C5.7974 2.17297 4.87212 1.24023 3.73073 1.24023C2.58934 1.24023 1.66406 2.17297 1.66406 3.32357C1.66406 4.47416 2.58934 5.4069 3.73073 5.4069Z" fill="white"/>
<path d="M15.4167 18.74H17.9167C18.0272 18.74 18.1332 18.6961 18.2113 18.6179C18.2894 18.5398 18.3333 18.4338 18.3333 18.3233V11.3233C18.3333 8.18164 16.5583 6.65664 14.075 6.65664C13.5852 6.63873 13.097 6.72365 12.642 6.90593C12.187 7.08822 11.7753 7.36382 11.4333 7.71497C11.3877 7.76774 11.3269 7.80526 11.2593 7.82248C11.1917 7.83969 11.1204 7.83579 11.055 7.81128C10.9897 7.78678 10.9334 7.74285 10.8938 7.68541C10.8541 7.62797 10.833 7.55976 10.8333 7.48997C10.8333 7.37947 10.7894 7.27349 10.7113 7.19535C10.6332 7.11721 10.5272 7.07331 10.4167 7.07331H7.91667C7.80616 7.07331 7.70018 7.11721 7.62204 7.19535C7.5439 7.27349 7.5 7.37947 7.5 7.48997V18.3233C7.5 18.4338 7.5439 18.5398 7.62204 18.6179C7.70018 18.6961 7.80616 18.74 7.91667 18.74H10.4167C10.5272 18.74 10.6332 18.6961 10.7113 18.6179C10.7894 18.5398 10.8333 18.4338 10.8333 18.3233V12.0733C10.8333 11.5208 11.0528 10.9909 11.4435 10.6002C11.8342 10.2095 12.3641 9.98997 12.9167 9.98997C13.4692 9.98997 13.9991 10.2095 14.3898 10.6002C14.7805 10.9909 15 11.5208 15 12.0733V18.3233C15 18.4338 15.0439 18.5398 15.122 18.6179C15.2002 18.6961 15.3062 18.74 15.4167 18.74Z" fill="white"/>
</svg>
