<svg width="24" height="24" viewBox="0 0 24 24" fill="none" xmlns="http://www.w3.org/2000/svg">
<g clip-path="url(#clip0_19481_533)">
<path d="M22.7219 10.35L20.8819 8.87005C20.7343 8.75228 20.6199 8.5982 20.5497 8.4229C20.4796 8.2476 20.4562 8.0571 20.4819 7.87005L20.7319 5.53005C20.7666 5.21912 20.7311 4.90436 20.6279 4.60899C20.5247 4.31363 20.3566 4.04519 20.1358 3.82348C19.9151 3.60178 19.6474 3.43246 19.3525 3.32802C19.0576 3.22358 18.7429 3.18668 18.4319 3.22005L16.0819 3.47005C15.8948 3.49569 15.7043 3.47231 15.529 3.40219C15.3537 3.33207 15.1996 3.21762 15.0819 3.07005L13.6319 1.26005C13.4291 1.02686 13.1787 0.83989 12.8975 0.711763C12.6163 0.583636 12.3109 0.517334 12.0019 0.517334C11.6929 0.517334 11.3874 0.583636 11.1063 0.711763C10.8251 0.83989 10.5746 1.02686 10.3719 1.26005L8.89187 3.10005C8.7741 3.24762 8.62002 3.36207 8.44473 3.43219C8.26943 3.50231 8.07892 3.52569 7.89187 3.50005L5.57187 3.25005C5.26079 3.21668 4.94619 3.25358 4.65128 3.35802C4.35636 3.46246 4.08866 3.63178 3.86791 3.85348C3.64716 4.07519 3.47901 4.34363 3.37585 4.63899C3.27269 4.93436 3.23715 5.24912 3.27187 5.56005L3.52187 7.90005C3.54751 8.0871 3.52413 8.27761 3.45401 8.4529C3.38389 8.6282 3.26944 8.78228 3.12187 8.90005L1.28187 10.35C1.03784 10.5459 0.840903 10.794 0.705579 11.0761C0.570254 11.3583 0.5 11.6672 0.5 11.98C0.5 12.2929 0.570254 12.6018 0.705579 12.884C0.840903 13.1661 1.03784 13.4142 1.28187 13.61L3.12187 15.09C3.26868 15.2085 3.38258 15.3626 3.45263 15.5377C3.52268 15.7129 3.54652 15.9031 3.52187 16.09L3.27187 18.44C3.23721 18.7503 3.27318 19.0644 3.37708 19.3588C3.48099 19.6532 3.65014 19.9203 3.87187 20.14C4.08849 20.3662 4.35516 20.5382 4.65043 20.6425C4.9457 20.7467 5.26132 20.7801 5.57187 20.74L7.92187 20.49C8.10892 20.4644 8.29943 20.4878 8.47473 20.5579C8.65002 20.628 8.8041 20.7425 8.92187 20.89L10.4019 22.73C10.5977 22.9741 10.8458 23.171 11.128 23.3063C11.4101 23.4417 11.719 23.5119 12.0319 23.5119C12.3448 23.5119 12.6537 23.4417 12.9358 23.3063C13.2179 23.171 13.466 22.9741 13.6619 22.73L15.1419 20.89C15.2596 20.7425 15.4137 20.628 15.589 20.5579C15.7643 20.4878 15.9548 20.4644 16.1419 20.49L18.4919 20.74C18.8024 20.7801 19.118 20.7467 19.4133 20.6425C19.7086 20.5382 19.9753 20.3662 20.1919 20.14C20.4136 19.9203 20.5828 19.6532 20.6867 19.3588C20.7906 19.0644 20.8265 18.7503 20.7919 18.44L20.5419 16.09C20.5172 15.9031 20.5411 15.7129 20.6111 15.5377C20.6812 15.3626 20.7951 15.2085 20.9419 15.09L22.7819 13.61C23.0259 13.4142 23.2228 13.1661 23.3582 12.884C23.4935 12.6018 23.5637 12.2929 23.5637 11.98C23.5637 11.6672 23.4935 11.3583 23.3582 11.0761C23.2228 10.794 23.0259 10.5459 22.7819 10.35H22.7219ZM12.4019 15.05C12.2478 15.2506 12.0529 15.4162 11.8302 15.536C11.6074 15.6557 11.3618 15.7269 11.1096 15.7449C10.8573 15.7628 10.6041 15.7271 10.3666 15.6401C10.1291 15.5531 9.91281 15.4167 9.73187 15.24L7.29187 12.8C7.19863 12.7068 7.12467 12.5961 7.07421 12.4743C7.02375 12.3525 6.99778 12.2219 6.99778 12.09C6.99778 11.9582 7.02375 11.8276 7.07421 11.7058C7.12467 11.584 7.19863 11.4733 7.29187 11.38C7.38511 11.2868 7.4958 11.2128 7.61762 11.1624C7.73944 11.1119 7.87001 11.086 8.00187 11.086C8.13373 11.086 8.2643 11.1119 8.38612 11.1624C8.50794 11.2128 8.61863 11.2868 8.71187 11.38L11.0019 13.63L14.9119 8.42005C15.071 8.20787 15.3079 8.06761 15.5704 8.0301C15.7005 8.01153 15.8328 8.01874 15.9601 8.05133C16.0873 8.08393 16.2068 8.14125 16.3119 8.22005C16.4169 8.29884 16.5054 8.39756 16.5723 8.51055C16.6393 8.62355 16.6832 8.74862 16.7018 8.87863C16.7204 9.00863 16.7132 9.14102 16.6806 9.26823C16.648 9.39544 16.5907 9.51499 16.5119 9.62005L12.4019 15.05Z" fill="#1FB01C"/>
</g>
<defs>
<clipPath id="clip0_19481_533">
<rect width="24" height="24" fill="white"/>
</clipPath>
</defs>
</svg>
