<svg width="29" height="20" viewBox="0 0 29 20" fill="none" xmlns="http://www.w3.org/2000/svg">
<path d="M16.1552 9.99994C16.1552 13.2216 13.5613 15.8332 10.3619 15.8332C7.16239 15.8332 4.56836 13.2216 4.56836 9.99994C4.56836 6.77832 7.16219 4.1665 10.3619 4.1665C13.5615 4.1665 16.1552 6.77832 16.1552 9.99994Z" fill="white"/>
<path d="M22.5103 10C22.5103 13.0325 21.2134 15.4918 19.6136 15.4918C18.0137 15.4918 16.7168 13.0325 16.7168 10C16.7168 6.96757 18.0135 4.5083 19.6134 4.5083C21.2132 4.5083 22.5101 6.96678 22.5101 10" fill="white"/>
<path d="M25.1097 9.9998C25.1097 12.7161 24.6536 14.9195 24.0909 14.9195C23.5281 14.9195 23.0723 12.7167 23.0723 9.9998C23.0723 7.28287 23.5283 5.08008 24.0909 5.08008C24.6534 5.08008 25.1097 7.28267 25.1097 9.9998Z" fill="white"/>
</svg>
