<svg width="172" height="34" viewBox="0 0 172 34" fill="none" xmlns="http://www.w3.org/2000/svg">
<g clip-path="url(#clip0_23424_89207)">
<path d="M1.04826 11.335L1.62785 9.94413C1.40939 10.4005 1.22214 10.8699 1.04826 11.335ZM17.4685 0.00390975C14.1288 0.00744292 10.8605 0.946143 8.05223 2.70834C5.244 4.47053 3.01412 6.98207 1.62785 9.94413L12.5152 15.9204L14.3789 16.9548L14.8247 16.7115L23.251 12.1738L23.3714 12.1086L31.9004 7.48406C30.3079 5.17963 28.1588 3.29216 25.6422 1.98778C23.1255 0.683406 20.3187 0.00212555 17.4685 0.00390975ZM14.3476 14.9338L4.12455 9.31824C5.36803 7.25394 7.09731 5.50756 9.16963 4.22326C11.2419 2.93896 13.5979 2.15358 16.043 1.93194C18.488 1.71031 20.9521 2.05877 23.2318 2.94859C25.5114 3.83839 27.5413 5.24401 29.154 7.04942L14.3476 14.9338Z" fill="#00B0ED"/>
<path d="M30.1992 25.5796L3.31065 10.8627L1.63876 9.92383C1.35132 10.5411 1.10413 11.1755 0.898668 11.8232C-0.290381 15.5451 -0.129363 19.5525 1.35467 23.1723C2.83871 26.7921 5.55535 29.8038 9.04825 31.7013C12.5412 33.5989 16.5976 34.2669 20.5359 33.5929C24.4744 32.919 28.0549 30.9443 30.6762 28.0005C31.1036 27.5264 31.5026 27.0286 31.8711 26.5096L30.1992 25.5796ZM17.524 31.9948C15.1274 31.9921 12.7639 31.4484 10.619 30.4063C8.47403 29.3641 6.6058 27.8517 5.16073 25.9877C3.71565 24.1239 2.73301 21.959 2.28982 19.6629C1.84662 17.3668 1.95492 15.0019 2.60623 12.7534L28.9642 27.0704C27.5142 28.6226 25.7476 29.8625 23.7776 30.7105C21.8075 31.5585 19.6775 31.996 17.524 31.9948Z" fill="#FF0000"/>
<path d="M30.977 11.0475L20.6157 16.511L19.8265 16.9456L20.6781 17.3803L30.977 22.8611L31.8687 23.3391V10.5781L30.977 11.0475ZM30.977 22.0482L21.445 16.9847L30.977 11.9168V22.0482Z" fill="#FFCC2E"/>
<path fill-rule="evenodd" clip-rule="evenodd" d="M164.347 22.4496V18.9186H171.444V15.5556H164.347V12.5795H171.789V9.27539H164.347H159.25V12.5795V15.5556V18.9186V22.4496V25.762H164.347H171.996V22.4496H164.347Z" fill="#131515"/>
<path fill-rule="evenodd" clip-rule="evenodd" d="M107.673 22.4581V18.9186H114.779V15.5556H107.673V12.5795H115.124V9.27539H107.673H102.576V12.5795V15.5556V18.9186V22.4581V25.7621H107.673H115.331V22.4581H107.673Z" fill="#131515"/>
<path fill-rule="evenodd" clip-rule="evenodd" d="M148.482 16.6708V20.0337H150.715V21.9085C150.336 22.001 145.257 23.136 143.635 19.193C143.635 19.193 142.031 15.3593 146.326 13.0389C146.326 13.0389 149.948 11.2986 154.881 14.1066V10.2308C154.881 10.2308 146.308 7.22101 141.204 10.9202C141.204 10.9202 138.219 12.7951 138.16 17.478C138.109 18.961 138.475 20.4293 139.218 21.7242C139.962 23.0191 141.053 24.0917 142.376 24.8258C142.376 24.8258 147.249 27.5582 155.234 24.6325V16.6708H148.482Z" fill="#131515"/>
<path fill-rule="evenodd" clip-rule="evenodd" d="M132.057 10.5388C129.28 8.9919 123.813 9.26934 123.813 9.26934H123.27H118.742V25.7728H127.866C128.942 25.7982 130.014 25.6506 131.039 25.3357C132.36 24.8726 133.524 24.0659 134.407 23.0033C135.292 21.9407 135.86 20.6626 136.05 19.3076C136.381 17.6235 136.176 15.8809 135.462 14.3135C134.749 12.7461 133.56 11.429 132.057 10.5388ZM130.72 19.6187C129.858 22.5193 126.012 22.3511 126.012 22.3511H123.813V12.6154H126.555C127.146 12.6605 127.727 12.7879 128.28 12.9938C128.892 13.2639 129.444 13.6497 129.901 14.1288C131.496 16.323 130.918 18.3661 130.72 19.6187Z" fill="#131515"/>
<path fill-rule="evenodd" clip-rule="evenodd" d="M97.1183 9.14258H96.3853V22.0562L84.8723 9.14258H82.8975V25.7638H85.2173V24.5279V12.9595L96.6095 25.7638H98.7137V9.14258H97.1183Z" fill="#131515"/>
<path fill-rule="evenodd" clip-rule="evenodd" d="M79.4357 18.5756V9.14258H76.9778V18.5756L76.9002 20.4588C76.775 21.1385 76.4707 21.775 76.0171 22.3056C75.5636 22.8362 74.9763 23.2428 74.313 23.4854C72.8301 23.9699 71.2254 23.9699 69.7424 23.4854C68.2074 22.6447 67.9227 22.1318 67.9227 22.1318C67.3277 21.4172 67.1983 19.6938 67.1811 18.5756V9.14258H64.7318V19.0632C64.7318 19.5844 64.8268 20.5597 64.8268 20.5597C64.9298 21.4504 65.2367 22.307 65.7248 23.0667C66.2128 23.8262 66.8696 24.4692 67.6467 24.9482C69.5172 25.8433 71.6251 26.1545 73.6835 25.8394C74.5915 25.7296 75.4676 25.4422 76.2589 24.9944C77.0502 24.5466 77.7406 23.9474 78.2886 23.2332C79.6081 21.5938 79.4357 18.5756 79.4357 18.5756Z" fill="#131515"/>
<path fill-rule="evenodd" clip-rule="evenodd" d="M62.1417 23.1437L60.0807 20.0414C59.4478 19.2152 58.7054 18.4745 57.8729 17.8387C58.7255 17.5092 59.4561 16.9364 59.9691 16.1952C60.4821 15.4541 60.7536 14.5792 60.748 13.6851C60.7424 12.7909 60.4601 11.9194 59.9378 11.1844C59.4155 10.4494 58.6778 9.88531 57.8212 9.56594C56.702 9.24329 55.5382 9.09295 54.3716 9.12036H50.853V25.7584H53.2678V18.5197C55.1736 18.4104 55.1995 18.5953 55.6048 18.7888C56.0126 19.0304 56.394 19.3121 56.7432 19.6294C57.2951 19.8396 61.0551 25.7248 61.0551 25.7248H63.9614L62.1417 23.1437ZM55.1219 16.4179H53.2678V11.2054H55.1995C58.649 11.3062 58.1661 14.0554 58.1661 14.0554C57.9678 16.6365 55.1219 16.4179 55.1219 16.4179Z" fill="#131515"/>
<path fill-rule="evenodd" clip-rule="evenodd" d="M43.7764 9.11719H40.3872H37.9035V25.7636H40.3269V18.5417H42.5519C43.503 18.572 44.4526 18.4498 45.3632 18.1802C46.2726 17.9249 47.0749 17.3934 47.6534 16.6631C48.2318 15.9329 48.5564 15.0419 48.5799 14.1195C48.8645 9.26851 43.7764 9.11719 43.7764 9.11719ZM46.1567 14.0775C46.0444 16.5997 43.0607 16.4315 43.0607 16.4315H40.3872V11.219H42.9141C43.572 11.1569 44.2351 11.2641 44.8371 11.5301C45.3046 11.7627 45.6824 12.1364 45.9139 12.5956C46.1456 13.0547 46.2186 13.5746 46.1222 14.0775H46.1567Z" fill="#131515"/>
</g>
<defs>
<clipPath id="clip0_23424_89207">
<rect width="171.889" height="34" fill="white" transform="translate(0.111084)"/>
</clipPath>
</defs>
</svg>
