<svg width="16" height="24" viewBox="0 0 16 24" fill="none" xmlns="http://www.w3.org/2000/svg">
<rect width="16" height="16" transform="translate(0 4)" fill="white" fill-opacity="0.01"/>
<path d="M8.00003 11.0564L4.47136 7.52774C4.34563 7.40631 4.17722 7.33911 4.00243 7.34063C3.82763 7.34215 3.66042 7.41226 3.53682 7.53587C3.41321 7.65947 3.3431 7.82668 3.34158 8.00148C3.34006 8.17627 3.40726 8.34468 3.52869 8.47041L7.05736 11.9991L3.52869 15.5277C3.40726 15.6535 3.34006 15.8219 3.34158 15.9967C3.3431 16.1715 3.41321 16.3387 3.53682 16.4623C3.66042 16.5859 3.82763 16.656 4.00243 16.6575C4.17722 16.659 4.34563 16.5919 4.47136 16.4704L8.00003 12.9417L11.5287 16.4704C11.6544 16.5919 11.8228 16.659 11.9976 16.6575C12.1724 16.656 12.3396 16.5859 12.4632 16.4623C12.5868 16.3387 12.657 16.1715 12.6585 15.9967C12.66 15.8219 12.5928 15.6535 12.4714 15.5277L8.94269 11.9991L12.4714 8.47041C12.535 8.40891 12.5858 8.33535 12.6208 8.25401C12.6557 8.17268 12.6741 8.0852 12.6749 7.99668C12.6756 7.90816 12.6588 7.82037 12.6252 7.73844C12.5917 7.65651 12.5422 7.58208 12.4796 7.51948C12.417 7.45689 12.3426 7.40738 12.2607 7.37386C12.1787 7.34034 12.0909 7.32347 12.0024 7.32424C11.9139 7.32501 11.8264 7.3434 11.7451 7.37834C11.6638 7.41328 11.5902 7.46407 11.5287 7.52774L8.00003 11.0564Z" fill="white"/>
</svg>
