<svg width="20" height="16" viewBox="0 0 20 16" fill="none" xmlns="http://www.w3.org/2000/svg">
<path d="M19.4325 3.36615C19.4918 3.31686 19.5362 3.25208 19.5609 3.17903C19.5856 3.10598 19.5895 3.02751 19.5722 2.95237C19.5549 2.87722 19.5171 2.80834 19.4631 2.75339C19.409 2.69845 19.3407 2.65959 19.2658 2.64115L18.6075 2.47448C18.5476 2.45949 18.4918 2.4314 18.4442 2.39222C18.3965 2.35305 18.3581 2.30378 18.3318 2.24796C18.3055 2.19215 18.2919 2.13118 18.292 2.06948C18.2921 2.00777 18.3059 1.94686 18.3325 1.89115L18.6991 1.14948C18.7338 1.07761 18.7471 0.997308 18.7374 0.918115C18.7277 0.838922 18.6955 0.764168 18.6446 0.702735C18.5937 0.641303 18.5263 0.595775 18.4502 0.571562C18.3742 0.547349 18.2929 0.545469 18.2158 0.566146L16.5491 1.03281C16.487 1.05092 16.4216 1.05433 16.3579 1.04276C16.2943 1.03119 16.2342 1.00496 16.1825 0.966146C15.4612 0.42522 14.584 0.132813 13.6825 0.132812C12.5774 0.132813 11.5176 0.571799 10.7362 1.3532C9.95479 2.1346 9.51581 3.19441 9.51581 4.29948V4.59948C9.51618 4.65066 9.49769 4.70019 9.46388 4.73861C9.43006 4.77704 9.38329 4.80167 9.33247 4.80781C6.99081 5.08281 4.74914 3.89115 2.33247 1.10781C2.27997 1.04991 2.21253 1.00761 2.13755 0.985559C2.06257 0.963506 1.98296 0.962555 1.90747 0.982812C1.83947 1.01407 1.78114 1.06307 1.73862 1.12465C1.69609 1.18624 1.67094 1.25815 1.66581 1.33281C1.33202 2.70393 1.46697 4.14733 2.04914 5.43281C2.06636 5.46691 2.07388 5.50508 2.07088 5.54316C2.06787 5.58124 2.05445 5.61776 2.03208 5.64873C2.00971 5.6797 1.97927 5.70392 1.94406 5.71875C1.90886 5.73358 1.87025 5.73844 1.83247 5.73281L0.899139 5.54948C0.832857 5.53882 0.764982 5.54434 0.701291 5.56556C0.6376 5.58678 0.57998 5.62308 0.533335 5.67136C0.48669 5.71964 0.452402 5.77848 0.43339 5.84286C0.414377 5.90724 0.411204 5.97527 0.424139 6.04114C0.496088 6.68068 0.71095 7.29586 1.05282 7.84112C1.39469 8.38638 1.85482 8.84778 2.39914 9.19115C2.43436 9.20821 2.46407 9.23484 2.48485 9.268C2.50564 9.30116 2.51666 9.33951 2.51666 9.37864C2.51666 9.41778 2.50564 9.45613 2.48485 9.48929C2.46407 9.52245 2.43436 9.54909 2.39914 9.56614L1.95747 9.74115C1.90383 9.76265 1.85526 9.79507 1.81482 9.83636C1.77439 9.87765 1.74299 9.92689 1.72261 9.98097C1.70224 10.035 1.69333 10.0928 1.69646 10.1505C1.6996 10.2082 1.7147 10.2646 1.74081 10.3161C1.98505 10.8506 2.35527 11.3178 2.81972 11.6778C3.28417 12.0377 3.829 12.2796 4.40747 12.3828C4.44769 12.3974 4.48244 12.424 4.507 12.4591C4.53155 12.4941 4.54473 12.5359 4.54473 12.5786C4.54473 12.6214 4.53155 12.6632 4.507 12.6982C4.48244 12.7333 4.44769 12.7599 4.40747 12.7745C3.27444 13.2431 2.05853 13.4783 0.832472 13.4661C0.721965 13.444 0.607205 13.4667 0.513436 13.5293C0.419668 13.5918 0.354573 13.689 0.332472 13.7995C0.310371 13.91 0.333073 14.0247 0.395585 14.1185C0.458097 14.2123 0.555299 14.2774 0.665805 14.2995C2.78876 15.3063 5.10012 15.8544 7.44914 15.9078C9.51535 15.9393 11.5448 15.3595 13.2825 14.2411C14.7118 13.287 15.8829 11.9941 16.6913 10.4775C17.4998 8.96101 17.9204 7.26802 17.9158 5.54948V4.82448C17.9163 4.76397 17.93 4.7043 17.9559 4.64961C17.9818 4.59492 18.0193 4.54654 18.0658 4.50781L19.4325 3.36615Z" fill="white"/>
</svg>
