<svg width="209" height="52" viewBox="0 0 209 52" fill="none" xmlns="http://www.w3.org/2000/svg">
<g clip-path="url(#clip0_23424_89201)">
<path d="M71.8034 32.0665L77.4194 15.8887H74.5305L70.2087 28.854L65.9101 15.8887H62.9981L68.6141 32.0665H71.8034ZM88.7713 27.3518C88.8406 26.9127 88.8637 26.566 88.8637 26.3118C88.8637 24.6247 88.3105 23.1687 87.2243 21.99C86.1381 20.8113 84.7514 20.2104 83.0643 20.2104C81.2833 20.2104 79.8042 20.7882 78.6732 21.9669C77.5407 23.1224 76.963 24.5553 76.963 26.2887C76.963 28.0451 77.5407 29.5011 78.6963 30.6567C79.8519 31.7891 81.3757 32.3669 83.2477 32.3669C85.491 32.3669 87.1766 31.5349 88.3105 29.8478L86.2522 28.646C85.5834 29.5936 84.5896 30.0789 83.2723 30.0789C81.3541 30.0789 79.9429 29.1082 79.5745 27.3518H88.7713ZM79.55 25.318C79.8966 23.5616 81.1909 22.4753 83.0397 22.4753C84.6806 22.4753 85.998 23.446 86.3446 25.318H79.55ZM97.139 20.2104C95.4981 20.2104 94.3194 20.8113 93.5567 21.99V20.5109H91.0607V32.0665H93.5567V25.8727C93.5567 23.6309 94.7354 22.5447 96.4919 22.5447C98.0865 22.5447 99.0803 23.4922 99.0803 25.2256V32.0665H101.576V24.9713C101.576 22.0131 99.7967 20.2104 97.139 20.2104ZM110.712 20.5109H107.847V17.2753L105.351 18.0149V20.5109H103.224V22.9145H105.351V28.4611C105.351 31.4887 106.899 32.5287 110.712 32.0665V29.8247C108.817 29.9171 107.847 29.9402 107.847 28.4611V22.9145H110.712V20.5109ZM120.877 26.7047C120.877 28.9465 119.698 30.0327 117.942 30.0327C116.347 30.0327 115.353 29.0851 115.353 27.3518V20.5109H112.857V27.606C112.857 30.5642 114.637 32.3669 117.295 32.3669C118.936 32.3669 120.114 31.766 120.877 30.5873V32.0665H123.373V20.5109H120.877V26.7047ZM128.788 20.5109H126.292V32.0665H128.788V26.2424C128.788 25.0638 129.135 24.2087 129.851 23.7002C130.568 23.1687 131.4 22.9376 132.347 23.0069V20.3029C130.614 20.3029 129.412 21.0193 128.788 22.4522V20.5109ZM144.811 27.3518C144.881 26.9127 144.904 26.566 144.904 26.3118C144.904 24.6247 144.349 23.1687 143.263 21.99C142.177 20.8113 140.79 20.2104 139.103 20.2104C137.323 20.2104 135.844 20.7882 134.712 21.9669C133.579 23.1224 133.002 24.5553 133.002 26.2887C133.002 28.0451 133.579 29.5011 134.735 30.6567C135.891 31.7891 137.416 32.3669 139.288 32.3669C141.53 32.3669 143.217 31.5349 144.349 29.8478L142.292 28.646C141.622 29.5936 140.628 30.0789 139.311 30.0789C137.393 30.0789 135.983 29.1082 135.613 27.3518H144.811ZM135.59 25.318C135.937 23.5616 137.231 22.4753 139.08 22.4753C140.721 22.4753 142.038 23.446 142.385 25.318H135.59ZM148.891 23.7002C148.891 22.8913 149.63 22.4753 150.578 22.4753C151.618 22.4753 152.357 22.9144 152.75 23.7927L154.853 22.614C154.044 21.1118 152.496 20.2104 150.578 20.2104C149.376 20.2104 148.359 20.534 147.55 21.1811C146.741 21.8282 146.348 22.6833 146.348 23.7465C146.302 26.1731 148.636 26.8664 150.37 27.3056C151.595 27.606 152.565 28.0451 152.565 28.7847C152.565 29.6398 151.918 30.0789 150.601 30.0789C149.283 30.0789 148.428 29.5242 148.035 28.4149L145.886 29.6629C146.626 31.35 148.313 32.3669 150.601 32.3669C151.895 32.3669 152.958 32.0433 153.813 31.4193C154.668 30.7953 155.107 29.9171 155.107 28.8078C155.154 26.3349 152.843 25.5953 151.063 25.2024C149.861 24.8558 148.891 24.4629 148.891 23.7002ZM163.241 15.8887V32.0665H165.899V26.5198H169.204C170.729 26.5198 172 26.0113 173.017 24.9945C174.057 23.9545 174.566 22.7064 174.566 21.2042C174.566 19.702 174.057 18.4309 173.017 17.414C172 16.3971 170.729 15.8887 169.204 15.8887H163.241ZM165.899 24.0238V18.3847H169.204C170.775 18.3847 171.908 19.5633 171.908 21.2042C171.908 22.8451 170.775 24.0238 169.204 24.0238H165.899ZM185.051 22.1518C184.103 20.8576 182.763 20.2104 181.006 20.2104C179.412 20.2104 178.071 20.7882 176.939 21.9669C175.806 23.1456 175.252 24.5785 175.252 26.2887C175.252 27.9758 175.806 29.4318 176.939 30.6104C178.071 31.7891 179.412 32.3669 181.006 32.3669C182.763 32.3669 184.103 31.7198 185.051 30.4024V32.0665H187.547V20.5109H185.051V22.1518ZM178.788 28.9465C178.094 28.23 177.748 27.3518 177.748 26.2887C177.748 25.2256 178.094 24.3473 178.788 23.654C179.481 22.9376 180.359 22.5909 181.399 22.5909C182.439 22.5909 183.317 22.9376 184.011 23.654C184.704 24.3473 185.051 25.2256 185.051 26.2887C185.051 27.3518 184.704 28.23 184.011 28.9465C183.317 29.6398 182.439 29.9865 181.399 29.9865C180.359 29.9865 179.481 29.6398 178.788 28.9465ZM192.952 20.5109H190.457V32.0665H192.952V26.2424C192.952 25.0638 193.299 24.2087 194.015 23.7002C194.733 23.1687 195.565 22.9376 196.512 23.0069V20.3029C194.779 20.3029 193.576 21.0193 192.952 22.4522V20.5109ZM203.301 26.1731L208.386 20.5109H205.335L200.852 25.6184V15.8887H198.356V32.0665H200.852V26.7278L205.589 32.0665H208.571L203.301 26.1731Z" fill="black"/>
<path fill-rule="evenodd" clip-rule="evenodd" d="M2.65929 1.46558C2.75398 1.43658 2.85547 1.43875 2.94883 1.47178C3.04219 1.5048 3.12247 1.56694 3.17785 1.64903L26.887 36.7404L46.8059 7.19714H38.7704L27.2726 24.7038C27.2306 24.7676 27.1734 24.8201 27.1062 24.8564C27.039 24.8927 26.9638 24.9118 26.8874 24.912C26.8109 24.9121 26.7357 24.8933 26.6683 24.8572C26.6009 24.8212 26.5435 24.7689 26.5013 24.7052L11.4646 2.16469C11.418 2.0951 11.3912 2.01416 11.3871 1.93052C11.3829 1.84688 11.4016 1.76368 11.441 1.68981C11.4805 1.61594 11.5393 1.55418 11.6111 1.51113C11.6829 1.46807 11.7651 1.44534 11.8489 1.44536H50.9789C51.0397 1.44517 51.0999 1.45699 51.1562 1.48013C51.2124 1.50327 51.2635 1.53729 51.3066 1.58023C51.3497 1.62317 51.3839 1.67419 51.4072 1.73036C51.4305 1.78654 51.4425 1.84676 51.4425 1.90758V50.0278C51.4425 50.1504 51.3938 50.268 51.3071 50.3547C51.2204 50.4413 51.1029 50.49 50.9803 50.49H2.79363C2.67104 50.49 2.55347 50.4413 2.46679 50.3547C2.3801 50.268 2.33141 50.1504 2.33141 50.0278V1.90758C2.33146 1.80849 2.36336 1.71205 2.4224 1.63247C2.48144 1.55288 2.56448 1.49438 2.65929 1.46558ZM12.7141 2.37125L26.8841 23.6089L38.1334 6.47925C38.1756 6.41518 38.2331 6.36261 38.3007 6.3263C38.3682 6.28999 38.4438 6.27107 38.5205 6.27125H47.6754C47.7593 6.27132 47.8415 6.29419 47.9134 6.33742C47.9852 6.38066 48.0439 6.44262 48.0833 6.51668C48.1226 6.59073 48.141 6.67409 48.1366 6.75783C48.1322 6.84157 48.1051 6.92252 48.0582 6.99203L27.2712 37.8266C27.2289 37.8894 27.1718 37.9409 27.1049 37.9766C27.038 38.0122 26.9634 38.0308 26.8877 38.0308C26.8119 38.0308 26.7373 38.0122 26.6704 37.9766C26.6036 37.9409 26.5465 37.8894 26.5042 37.8266L3.25585 3.41992V49.5656H50.5152V2.3698H12.717L12.7141 2.37125Z" fill="black" stroke="black" stroke-width="1.44444" stroke-linecap="round" stroke-linejoin="round"/>
</g>
<defs>
<clipPath id="clip0_23424_89201">
<rect width="208" height="52" fill="white" transform="translate(0.886963)"/>
</clipPath>
</defs>
</svg>
