<svg width="24" height="24" viewBox="0 0 24 24" fill="none" xmlns="http://www.w3.org/2000/svg">
<g clip-path="url(#clip0_6858_1927)">
<path d="M12 0.0900053C8.83294 0.0899162 5.79426 1.34184 3.54639 3.57285C1.29852 5.80385 0.0237631 8.83303 1.00785e-05 12C-0.00316605 14.4236 0.744425 16.7886 2.14001 18.77L0.78001 22.77C0.752009 22.8579 0.748381 22.9518 0.769514 23.0416C0.790646 23.1314 0.835746 23.2138 0.90001 23.28C0.965601 23.3452 1.048 23.391 1.13803 23.4122C1.22807 23.4333 1.32222 23.4291 1.41001 23.4L5.60001 22.07C7.16272 23.0758 8.93864 23.7029 10.7864 23.9015C12.6342 24.1001 14.5028 23.8646 16.2435 23.2137C17.9843 22.5629 19.549 21.5147 20.8133 20.1526C22.0776 18.7906 23.0065 17.1522 23.526 15.3678C24.0456 13.5835 24.1414 11.7026 23.806 9.87468C23.4706 8.04679 22.7131 6.32243 21.5938 4.83886C20.4746 3.35529 19.0245 2.15346 17.3589 1.32903C15.6934 0.504605 13.8584 0.0803394 12 0.0900053ZM19.2 16.81C18.8662 17.4473 18.3625 17.9798 17.7448 18.3487C17.1271 18.7176 16.4194 18.9084 15.7 18.9C14.4989 18.7625 13.3293 18.4245 12.24 17.9C9.80374 16.789 7.74084 14.997 6.30001 12.74C4.38001 10.21 4.30001 7.84001 6.13001 5.88001C6.38348 5.64228 6.68943 5.46769 7.02304 5.37039C7.35664 5.27308 7.70849 5.25582 8.05001 5.32001C8.30839 5.35245 8.55421 5.45029 8.7642 5.60429C8.9742 5.75828 9.14141 5.96333 9.25001 6.20001L9.64001 7.12001L10.27 8.63001C10.349 8.78483 10.3902 8.95618 10.3902 9.13001C10.3902 9.30383 10.349 9.47518 10.27 9.63001C10.0141 10.1384 9.67622 10.6013 9.27001 11C9.79025 11.7768 10.3938 12.4944 11.07 13.14C11.8753 13.8446 12.7998 14.4 13.8 14.78C14.08 14.41 14.62 13.78 14.8 13.5C14.935 13.28 15.1499 13.1207 15.3996 13.0555C15.6494 12.9903 15.9147 13.0241 16.14 13.15C16.52 13.28 18.65 14.33 18.65 14.33C18.9223 14.4183 19.1601 14.5896 19.33 14.82C19.4843 15.1341 19.5535 15.4832 19.5307 15.8324C19.5079 16.1816 19.3939 16.5187 19.2 16.81Z" fill="#434F61"/>
</g>
<defs>
<clipPath id="clip0_6858_1927">
<rect width="24" height="24" fill="white"/>
</clipPath>
</defs>
</svg>
