<svg width="18" height="15" viewBox="0 0 18 15" fill="none" xmlns="http://www.w3.org/2000/svg">
<g clip-path="url(#clip0_19378_8279)">
<path fill-rule="evenodd" clip-rule="evenodd" d="M14.0622 3.05001C12.8851 1.72235 11.1873 0.888916 9.29971 0.888916C7.41215 0.888916 5.71439 1.72235 4.5372 3.05001H14.0622ZM4.5372 11.9289C5.71439 13.2566 7.41215 14.09 9.29971 14.09C11.1873 14.09 12.8851 13.2566 14.0622 11.9289H4.5372ZM3.54202 3.61123C1.96334 3.61123 0.683594 4.92378 0.683594 6.54295V8.436C0.683594 10.0552 1.96334 11.3677 3.54202 11.3677H15.0574C16.6361 11.3677 17.9159 10.0552 17.9159 8.436V6.54295C17.9159 4.92378 16.6361 3.61123 15.0574 3.61123H3.54202ZM17.6218 6.50944C17.6218 5.07532 16.4884 3.91278 15.0901 3.91278H12.2317C10.8334 3.91278 9.69989 5.07532 9.69989 6.50944V8.47788C9.69989 9.912 8.5664 11.0745 7.16814 11.0745H15.0901C16.4884 11.0745 17.6218 9.912 17.6218 8.47788V6.50944ZM7.69082 6.68535V9.45792H8.50752V6.68535H7.69082ZM7.60915 5.81002C7.60915 6.08528 7.82671 6.30841 8.09509 6.30841C8.36346 6.30841 8.58102 6.08528 8.58102 5.81002C8.58102 5.53476 8.36346 5.31162 8.09509 5.31162C7.82671 5.31162 7.60915 5.53476 7.60915 5.81002ZM2.16181 5.41214L3.21534 9.45792H3.8932L4.68539 6.66022L5.47758 9.45792H6.17994L7.21714 5.41214H6.42495L5.8206 8.07582L5.06924 5.41214H4.34238L3.59102 8.00881L3.01934 5.41214H2.16181ZM10.9985 5.41214V9.45792H11.8642V7.87479H13.8242V7.0539H11.8642V6.23302H13.9549V5.41214H10.9985ZM14.5429 6.68535V9.45792H15.3596V6.68535H14.5429ZM14.4694 5.80164C14.4694 6.0769 14.687 6.30003 14.9553 6.30003C15.2237 6.30003 15.4413 6.0769 15.4413 5.80164C15.4413 5.52638 15.2237 5.30325 14.9553 5.30325C14.687 5.30325 14.4694 5.52638 14.4694 5.80164Z" fill="black"/>
</g>
<defs>
<clipPath id="clip0_19378_8279">
<rect width="18" height="14" fill="white" transform="translate(0 0.5)"/>
</clipPath>
</defs>
</svg>
