<svg width="58" height="65" viewBox="0 0 58 65" fill="none" xmlns="http://www.w3.org/2000/svg">
<path d="M40.4756 61.2145L54.6478 56.9991L54.4457 54.9824L41.608 59.2167L40.4756 61.2145Z" fill="#083244"/>
<path d="M42.9047 10.1348C42.9047 10.1348 49.8909 26.3603 52.1783 35.2273C54.4645 44.0942 58.4056 53.7308 57.454 54.7686C56.5024 55.8065 50.3874 55.9046 49.7751 54.7686C49.1627 53.6326 42.8562 30.3026 42.8562 30.3026L42.9035 10.1359L42.9047 10.1348Z" fill="#267939" stroke="#083A55" stroke-width="0.296296" stroke-linecap="round" stroke-linejoin="round"/>
<path d="M39.6353 12.4922L38.595 23.7517L31.74 64.1761C31.74 64.1761 31.6856 64.1549 31.5828 64.1147C31.5816 64.1147 31.5816 64.1135 31.5804 64.1135C31.1915 63.961 30.1217 63.539 28.6973 62.9396C28.6973 62.9396 28.6961 62.9396 28.6937 62.9385C28.689 62.9361 28.6796 62.9326 28.6665 62.9266C28.1393 62.7068 27.5648 62.4609 26.9596 62.1985C26.8225 62.1382 26.683 62.0779 26.5423 62.0152C26.7078 62.0838 26.8638 62.15 27.0116 62.2115C27.0045 62.0472 26.2397 45.5734 24.1155 36.97C23.8424 37.2549 23.6071 37.4535 23.4594 37.5256C22.6414 37.9228 21.3552 37.7597 21.3552 36.2324C21.3552 35.2938 22.087 34.1448 22.8518 33.2688C22.7052 32.9851 22.5527 32.7393 22.3955 32.5371C18.9367 28.0688 13.4943 26.6337 9.90657 29.6232C6.31888 32.614 1.47935 40.6534 2.55152 48.3419C3.17094 52.7842 3.58822 54.5964 3.82819 55.3352C3.74781 55.3293 3.67215 55.3234 3.60004 55.3186C3.44755 55.308 3.30452 55.269 3.16976 55.204C1.17437 54.2465 1.05261 47.6539 1.35405 42.4621C1.39069 41.8344 1.43325 41.2279 1.47935 40.6534C1.8789 35.6768 3.79154 22.397 4.23956 19.3177C4.29985 18.9027 4.33413 18.6734 4.33413 18.6734L18.3066 16.2265L20.9368 15.7666L39.0537 12.5938L39.1104 12.5844L39.6353 12.4922Z" fill="#D4F7DC" stroke="#083A55" stroke-width="0.296296" stroke-linecap="round" stroke-linejoin="round"/>
<path d="M38.6741 14.0182C38.6741 14.0182 34.805 40.1403 33.7518 44.4786C32.6985 48.817 30.1074 64.1276 31.7399 64.1772C33.3723 64.2269 41.1931 62.4454 42.4308 58.8814C43.6685 55.3174 44.613 24.455 44.3553 21.6865C44.0976 18.918 43.1743 10.4837 42.7145 9.42573C42.2547 8.36775 42.3244 8.38075 41.7818 8.29682C41.2392 8.21289 39.9271 8.79212 39.4519 10.9116C38.9767 13.0311 38.6741 14.0194 38.6741 14.0194V14.0182Z" fill="#3EBB5A"/>
<path d="M43.3211 51.5405C44.0788 41.1699 44.5457 23.7363 44.3554 21.6865C44.0977 18.9168 43.1745 10.4837 42.7147 9.42573C42.2548 8.36775 42.3246 8.38075 41.782 8.29682C41.2394 8.21289 39.9273 8.79212 39.4521 10.9116C38.9769 13.0311 38.6742 14.0194 38.6742 14.0194C38.6742 14.0194 34.8052 40.1415 33.752 44.4798" stroke="#083A55" stroke-width="0.296296" stroke-linecap="round" stroke-linejoin="round"/>
<path d="M42.2546 8.3671C41.9366 8.22171 41.5394 8.29736 41.2451 8.48177C40.9507 8.66618 40.7415 8.94279 40.5559 9.22177C39.0085 11.5375 38.94 14.475 37.4907 16.7198C36.3937 18.4197 35.7578 19.6184 32.2351 20.7827C30.2338 21.4447 3.21681 23.4649 3.60572 17.8795C3.83505 14.5909 5.22166 10.3211 10.125 9.16739C15.0284 8.01365 41.3101 7.71222 41.6848 7.93564C42.0596 8.15905 42.2546 8.3671 42.2546 8.3671Z" fill="#267939"/>
<path d="M4.44263 14.0625C5.32684 11.8756 7.02079 9.89793 10.125 9.16739C15.0284 8.01365 41.3101 7.71222 41.6848 7.93564C42.0595 8.15905 42.2546 8.3671 42.2546 8.3671C41.9366 8.22171 41.5394 8.29736 41.2451 8.48177C40.9507 8.66618 40.7415 8.94279 40.5559 9.22177C39.0085 11.5375 38.94 14.475 37.4907 16.7198C36.3937 18.4197 35.7577 19.6184 32.2351 20.7827C31.066 21.1693 21.3562 22.0192 13.5637 21.5464" stroke="#083A55" stroke-width="0.296296" stroke-linecap="round" stroke-linejoin="round"/>
<path d="M36.1254 7.86668L30.7575 7.96125C30.7575 7.96125 25.0172 2.5283 23.6968 2.23987L22.3953 1.62045C21.1813 1.0424 20.2758 1.31192 20.1611 1.34974C20.5595 1.18307 20.9567 1.07668 21.3432 1.0424C25.1413 0.71259 28.982 2.36399 31.1287 4.01539C33.2766 5.66679 36.1254 7.86668 36.1254 7.86668Z" fill="#3EBB5A" stroke="#083A55" stroke-width="0.296296" stroke-linecap="round" stroke-linejoin="round"/>
<path d="M23.6967 2.23963C22.3751 1.95002 17.2117 8.44804 17.2117 8.44804L12.9277 8.76839C12.9277 8.76839 16.6407 2.81886 20.148 1.35424C20.148 1.35424 20.1528 1.35306 20.161 1.34951C20.2757 1.31168 21.1812 1.04216 22.3952 1.62021L23.6967 2.23963Z" fill="#267939" stroke="#083A55" stroke-width="0.296296" stroke-linecap="round" stroke-linejoin="round"/>
<path d="M33.7744 7.90818C33.7744 7.90818 27.2894 3.2306 25.4725 2.44568C23.6556 1.66076 23.2017 1.45508 23.2017 1.45508" stroke="#083A55" stroke-width="0.296296" stroke-linecap="round" stroke-linejoin="round"/>
<path d="M21.9223 1.95117C21.9223 1.95117 18.6999 4.38749 17.1313 5.91477C15.5626 7.44204 14.7363 8.59932 14.7363 8.59932" stroke="#083A55" stroke-width="0.296296" stroke-linecap="round" stroke-linejoin="round"/>
<path d="M40.0771 10.6155C40.0771 10.6155 41.6943 10.4252 41.6623 11.1226C41.6304 11.8201 40.0771 14.3876 40.0771 16.4799C40.0771 18.5723 40.2356 20.4743 40.2356 20.4743" stroke="#083A55" stroke-width="0.296296" stroke-linecap="round" stroke-linejoin="round"/>
<path d="M41.4238 10.5922C41.4238 10.5922 41.5905 10.4397 41.9593 10.2281C42.3281 10.0165 42.8577 9.91602 42.8577 9.91602" stroke="#083A55" stroke-width="0.296296" stroke-linecap="round" stroke-linejoin="round"/>
<path d="M28.6972 62.9415C28.6972 62.9415 28.696 62.9415 28.6936 62.9403C28.6889 62.9379 28.6794 62.9344 28.6664 62.9285C28.5731 62.8859 28.2728 62.7511 27.7964 62.5455C27.573 62.4497 27.3094 62.3386 27.0115 62.2133C27.0044 62.049 26.2396 45.5752 24.1153 36.9718C23.8423 37.2567 23.607 37.4553 23.4593 37.5274C22.6413 37.9246 21.3551 37.7615 21.3551 36.2342C21.3551 35.2956 22.0869 34.1466 22.8517 33.2707C22.7051 32.987 22.5526 32.7411 22.3954 32.5389C18.9365 28.0706 13.4941 26.6355 9.90646 29.6251C6.31877 32.6158 1.47924 40.6553 2.55141 48.3437C3.17083 52.786 3.58811 54.5982 3.82808 55.337C3.96993 55.7767 4.05032 55.837 4.0716 55.8453C3.80326 55.8264 3.55974 55.759 3.33987 55.6526C1.25701 54.6549 1.231 50.2421 1.231 50.2421C1.231 50.2421 0.636402 46.7183 1.35512 42.4639C1.63055 40.8338 2.09866 39.0961 2.86821 37.408C5.64498 31.3155 8.49266 25.2229 16.4955 26.0527C19.9283 26.4074 22.4675 28.1782 24.2808 30.4348C24.2891 30.4466 24.2986 30.4584 24.308 30.4703C24.3577 30.5329 24.4073 30.5956 24.4546 30.6582C24.7159 30.9951 24.9594 31.3426 25.1887 31.6961C25.2253 31.7517 25.2608 31.8072 25.2963 31.8628C25.3696 31.9798 25.4417 32.0968 25.5114 32.215C25.5244 32.2375 25.5386 32.26 25.5516 32.2836C25.593 32.3522 25.6332 32.4219 25.6722 32.4917C25.6734 32.494 25.6745 32.4952 25.6734 32.4952C25.7561 32.6382 25.8353 32.7813 25.9133 32.9255C26.0209 33.1276 26.1237 33.3298 26.223 33.5331C27.1108 35.3594 27.6487 37.2319 27.8993 38.7887C27.8993 38.7923 27.9004 38.7946 27.9016 38.797C27.9607 39.1646 28.0033 39.5145 28.0317 39.842C28.1061 40.7179 28.1771 42.1494 28.2444 43.8824C28.3118 45.6603 28.3745 47.7573 28.43 49.8969L28.4347 50.0861C28.5967 56.3607 28.6984 62.9415 28.6984 62.9415H28.6972Z" fill="#267939" stroke="#083A55" stroke-width="0.296296" stroke-linecap="round" stroke-linejoin="round"/>
<path d="M28.4302 49.8965L31.4918 50.601L30.2482 59.7931H28.6973L28.4302 49.8965Z" fill="#F6F7F7" stroke="#083A55" stroke-width="0.296296" stroke-linecap="round" stroke-linejoin="round"/>
<path d="M29.3876 50.9071C29.6004 50.8917 29.7777 51.0974 29.8096 51.309C29.8415 51.5206 29.767 51.731 29.6926 51.9319C29.6181 52.1329 29.5436 52.3433 29.5732 52.5549C29.624 52.9166 29.9751 53.2098 29.9408 53.5739C29.8982 54.0243 29.293 54.2808 29.2954 54.7323C29.2977 55.1839 29.9195 55.5114 29.7989 55.9464C29.7327 56.184 29.4691 56.3093 29.3521 56.5256C29.2256 56.7597 29.2954 57.0516 29.4029 57.2952C29.5105 57.5387 29.6559 57.7751 29.6772 58.0411C29.6985 58.307 29.5377 58.6144 29.2717 58.6333" stroke="#083A55" stroke-width="0.296296" stroke-linecap="round" stroke-linejoin="round"/>
<path d="M27.0117 62.2124C26.8639 62.1509 26.7079 62.0847 26.5424 62.0162C22.2147 60.2288 12.1869 56.4165 4.07886 55.8456C4.07886 55.8456 4.07649 55.8456 4.07176 55.8444C4.05049 55.8361 3.9701 55.7758 3.82825 55.3361C3.58828 54.5973 3.171 52.7851 2.55158 48.3428C1.47941 40.6544 6.31894 32.6149 9.90663 29.6242C13.4943 26.6346 18.9367 28.0697 22.3956 32.538C22.5528 32.7402 22.7053 32.9861 22.8518 33.2698C22.087 34.1457 21.3553 35.2947 21.3553 36.2333C21.3553 37.7606 22.6414 37.9237 23.4594 37.5265C23.6072 37.4544 23.8424 37.2558 24.1155 36.9709C26.2398 45.5743 27.0046 62.0481 27.0117 62.2124Z" fill="#3EBB5A"/>
<path d="M7.54478 56.255C6.36623 56.0647 5.20422 55.9228 4.07886 55.8436C4.07886 55.8436 4.07649 55.8436 4.07176 55.8424C4.05049 55.8342 3.9701 55.7739 3.82825 55.3341C3.58828 54.5953 3.171 52.7832 2.55158 48.3408C1.47941 40.6524 6.31894 32.6129 9.90663 29.6222C13.4943 26.6327 18.9367 28.0677 22.3956 32.5361C22.5528 32.7382 22.7053 32.9841 22.8518 33.2678C22.087 34.1438 21.3553 35.2928 21.3553 36.2313C21.3553 37.7586 22.6414 37.9218 23.4594 37.5246C23.6072 37.4525 23.8424 37.2539 24.1155 36.969C26.2398 45.5723 27.0046 62.0461 27.0117 62.2104C26.8639 62.149 26.7079 62.0828 26.5424 62.0142" stroke="#083A55" stroke-width="0.296296" stroke-linecap="round" stroke-linejoin="round"/>
<path d="M24.1154 36.9707C23.8424 37.2556 23.6071 37.4542 23.4594 37.5263C22.6414 37.9235 21.3552 37.7603 21.3552 36.2331C21.3552 35.2945 22.0869 34.1455 22.8518 33.2695C23.3187 34.1656 23.7383 35.4434 24.1154 36.9707Z" fill="#3CAE5C" stroke="#083A55" stroke-width="0.296296" stroke-linecap="round" stroke-linejoin="round"/>
<path d="M27.0118 62.2119L26.9598 62.1988C26.8226 62.1386 26.6832 62.0783 26.5425 62.0156C26.708 62.0842 26.864 62.1504 27.0118 62.2119Z" fill="#3CAE5C" stroke="#083A55" stroke-width="0.296296" stroke-linecap="round" stroke-linejoin="round"/>
<path d="M27.7973 62.545C27.7973 62.545 26.9959 39.3285 25.8622 36.2314C24.7274 33.1343 21.5464 27.8396 16.8428 27.3538C12.1392 26.8679 8.4664 28.8125 6.57503 31.6212C4.68367 34.431 1.86789 40.4349 1.80879 44.9116C1.74968 49.3882 2.70128 53.9393 2.93415 54.5694C3.16703 55.1994 3.3408 55.651 3.3408 55.651" stroke="#083A55" stroke-width="0.296296" stroke-linecap="round" stroke-linejoin="round"/>
<path d="M23.1179 31.0877C23.1179 31.0877 23.0493 31.7284 23.06 31.8028C23.0706 31.8773 24.1191 33.8148 24.3875 34.1469C24.6546 34.4791 25.6748 34.5134 25.9715 33.9117C26.2682 33.31 24.6333 30.3027 24.6333 30.3027L23.1179 31.0877Z" fill="#083244"/>
<path d="M24.2527 36.8265C24.2527 36.8265 24.7326 37.2202 24.8236 37.7107C24.9147 38.2013 24.9371 38.6186 24.9371 38.6186L27.3321 38.076L25.793 34.3027L24.2539 36.8253L24.2527 36.8265Z" fill="#083244"/>
<path d="M24.6331 30.302C24.6331 30.302 23.1165 30.8386 23.1177 31.0869C23.1189 31.3351 23.9073 32.4238 23.9073 32.4238L25.5634 31.7524L24.6331 30.3008V30.302Z" fill="#083244"/>
<path d="M25.5636 31.7542C25.5565 31.7506 25.5234 31.7364 25.4678 31.7222C25.4323 31.714 25.3862 31.7057 25.3307 31.701C25.2893 31.6962 25.242 31.6939 25.1888 31.6962C25.0505 31.6986 24.8767 31.7246 24.6711 31.7991C24.5174 31.8546 24.3472 31.9374 24.1616 32.058C24.0635 32.1218 23.95 32.2057 23.8282 32.3062C23.8282 32.3074 23.8282 32.3086 23.8259 32.3097C23.7183 32.3984 23.6024 32.5001 23.4819 32.6147C23.2797 32.8051 23.0658 33.0273 22.853 33.2708C22.0882 34.1467 21.3564 35.2957 21.3564 36.2343C21.3564 37.7616 22.6426 37.9247 23.4606 37.5276C23.6084 37.4554 23.8436 37.2569 24.1167 36.972C24.1616 36.9259 24.2065 36.8786 24.2526 36.8277C24.6391 36.4057 25.0813 35.8407 25.456 35.2343C25.4713 35.2095 25.4855 35.1858 25.5009 35.161C25.5009 35.161 25.5009 35.161 25.5021 35.1586C25.6357 34.9387 25.7586 34.7141 25.8674 34.4895C25.9075 34.408 25.9442 34.3252 25.9797 34.2437C26.0837 34.0025 26.1676 33.7637 26.2232 33.5332C26.4099 32.7625 26.2823 32.0911 25.5647 31.7542H25.5636ZM23.4121 36.9897C22.9216 37.2238 21.9404 36.92 22.0338 36.0547C22.1272 35.1905 23.1556 35.7981 23.1556 35.7981C23.1556 35.7981 23.9039 36.7556 23.4121 36.9897ZM25.8839 33.0852C25.8059 33.3866 25.5967 33.6845 25.19 33.7389C24.9879 33.7661 24.8141 33.7401 24.6722 33.6751H24.6711C24.398 33.551 24.2443 33.2826 24.2514 32.9623C24.255 32.8263 24.2869 32.6845 24.3495 32.5391C24.4453 32.3168 24.5682 32.1927 24.6912 32.1265C24.9418 31.9906 25.19 32.0934 25.19 32.0934C25.19 32.0934 25.3449 32.1336 25.5104 32.2152C25.521 32.2199 25.5328 32.2258 25.5435 32.2317C25.5517 32.2365 25.5612 32.2412 25.5706 32.2459C25.6735 32.3027 25.7751 32.3748 25.839 32.4622C25.904 32.5509 25.9347 32.7294 25.9123 32.9256C25.9064 32.9776 25.8969 33.0308 25.8839 33.0852Z" fill="#F6F7F7" stroke="#083A55" stroke-width="0.296296" stroke-linecap="round" stroke-linejoin="round"/>
<path d="M28.2232 40.6987C28.1618 40.259 28.0566 39.5284 27.9005 38.7967C27.8993 38.7944 27.8982 38.792 27.8982 38.7885C27.6511 37.643 27.2752 36.4964 26.7314 36.4621C26.7243 36.4621 26.7172 36.4609 26.7101 36.4609C26.696 36.4609 26.683 36.4609 26.67 36.4585C26.3177 36.4408 26.0919 36.4692 25.9465 36.5082C25.8531 36.5318 25.794 36.5614 25.7574 36.5862C25.716 36.6122 25.7042 36.6323 25.7042 36.6323C25.7042 36.6323 25.2183 37.0496 25.1722 37.8629C25.1616 38.0626 25.1758 38.2991 25.2041 38.5603C25.2916 39.3665 25.5056 40.3997 25.489 41.252C25.4678 42.33 25.476 45.2593 26.9194 45.1671C26.9891 45.1635 27.0624 45.1517 27.1381 45.1328C27.7492 44.9803 28.079 44.4933 28.2433 43.8821C28.527 42.8324 28.3225 41.4127 28.2232 40.6987ZM25.7444 38.4374C25.6616 38.24 25.6297 37.9858 25.6474 37.7116C25.6652 37.4349 25.755 37.2186 25.8484 37.0685C25.898 36.9857 25.9501 36.9231 25.9914 36.8817C26.0033 36.8699 26.0163 36.8593 26.0293 36.8486C26.1049 36.7907 26.2007 36.7623 26.2988 36.7659C26.4063 36.7706 26.5636 36.7848 26.6948 36.8463C26.7905 36.89 26.8733 36.9586 26.917 37.0649C26.9998 37.2683 27.1617 37.7246 27.1227 38.1253C27.0967 38.3984 26.9773 38.6454 26.6747 38.7695C26.5553 38.818 26.4454 38.844 26.3484 38.8499C26.0541 38.8665 25.8543 38.701 25.7444 38.4374ZM27.4655 44.5335C27.2291 44.576 27.0364 44.5867 26.8745 44.5441C26.5588 44.459 26.3685 44.1694 26.2196 43.5121C26.0907 42.9365 26.4158 42.6197 26.7125 42.4542C26.8047 42.4033 26.8934 42.3667 26.9655 42.3419C27.0813 42.3017 27.209 42.2958 27.3272 42.3312C27.5353 42.3939 27.7043 42.5381 27.8993 42.8407C28.1511 43.232 28.1641 44.407 27.4655 44.5335Z" fill="#F6F7F7" stroke="#083A55" stroke-width="0.296296" stroke-linecap="round" stroke-linejoin="round"/>
<path d="M23.9048 30.9726C23.9048 30.9726 24.7287 31.332 24.6968 32.0542C24.6649 32.7753 24.419 33.429 24.964 33.4716C25.5089 33.5141 25.6378 33.3002 25.6271 33.0437C25.6165 32.7871 25.4191 30.7622 25.0857 30.6251C24.7524 30.488 23.8622 30.8083 23.9048 30.9738V30.9726Z" fill="#083A55" stroke="#083A55" stroke-width="0.296296" stroke-linecap="round" stroke-linejoin="round"/>
<path d="M25.9783 34.2422C25.9783 34.2422 26.7573 35.3498 26.7171 36.3262C26.6769 37.3027 26.6627 37.6975 26.5811 37.7105C26.4996 37.7235 26.0551 37.8594 25.9783 37.6561C25.9014 37.4528 25.4995 35.1595 25.4995 35.1595C25.4995 35.1595 25.7288 34.4183 25.9783 34.2434V34.2422Z" fill="#083A55" stroke="#083A55" stroke-width="0.296296" stroke-linecap="round" stroke-linejoin="round"/>
<path d="M44.6709 24.248L52.6962 51.1563" stroke="#083A55" stroke-width="0.296296" stroke-linecap="round" stroke-linejoin="round"/>
<path d="M52.1748 56.6007C52.1748 56.6007 52.7186 64.2702 52.8652 64.4167C53.0117 64.5633 55.9315 64.5952 55.9315 64.178C55.9315 63.7607 54.5591 56.1172 54.5591 56.1172L52.1748 56.6018V56.6007Z" fill="#083A55" stroke="#083A55" stroke-width="0.296296" stroke-linecap="round" stroke-linejoin="round"/>
<path d="M54.9243 55.509C54.8628 54.3033 54.312 51.9509 53.0814 51.9131C51.2775 51.8587 51.3284 54.0787 51.6842 55.4866C51.7173 55.619 51.7539 55.7431 51.7906 55.8578C51.9206 56.2538 52.0648 56.5363 52.1747 56.6001C52.5412 56.8153 53.955 56.6474 54.5839 56.3696C54.5898 56.3661 54.5969 56.3637 54.6016 56.3613C54.7281 56.3034 54.8203 56.2408 54.8629 56.1769C54.9184 56.0942 54.9397 55.8459 54.9243 55.509ZM52.1937 55.5386C52.1913 55.5256 52.1889 55.5114 52.1854 55.4972C52.1854 55.4949 52.1842 55.4913 52.1842 55.489C52.1724 55.4334 52.1629 55.379 52.1547 55.3294C52.1535 55.3235 52.1523 55.3175 52.1511 55.3128C52.1476 55.2927 52.1452 55.2738 52.1416 55.2561C52.1381 55.2324 52.1334 55.2088 52.1298 55.184C52.1286 55.1792 52.1275 55.1733 52.1275 55.1674C52.1263 55.1627 52.1263 55.1568 52.1251 55.1509C52.1239 55.1485 52.1239 55.1473 52.1239 55.1461C52.1145 55.087 52.105 55.0244 52.0967 54.9594C52.0908 54.9121 52.0849 54.8648 52.079 54.8163C52.0684 54.7277 52.0589 54.6355 52.0518 54.5409C52.0483 54.4936 52.0447 54.4463 52.0423 54.3991C52.04 54.353 52.0376 54.3057 52.0364 54.2584C52.0211 53.7383 52.0825 53.2146 52.3402 52.9474C52.3509 52.9368 52.3615 52.9262 52.3722 52.9167C52.4585 52.8387 52.5648 52.789 52.6949 52.7725C52.7528 52.7654 52.8084 52.7642 52.8615 52.7677C52.8769 52.7677 52.8923 52.7701 52.9077 52.7713C52.9124 52.7725 52.9183 52.7725 52.923 52.7737C52.9384 52.776 52.9549 52.7784 52.9703 52.7819C53.0318 52.7938 53.0897 52.8127 53.1453 52.8387C53.1594 52.8446 53.1736 52.8517 53.1878 52.8588C53.2599 52.8966 53.3285 52.9451 53.3923 53.003C53.403 53.0124 53.4136 53.0219 53.4242 53.0325C53.4845 53.0916 53.5424 53.159 53.5945 53.2335C53.6098 53.2536 53.624 53.2737 53.637 53.295C53.6512 53.3151 53.6642 53.3363 53.6772 53.3588C53.7044 53.4025 53.7292 53.4475 53.7529 53.4947C53.7659 53.5172 53.7777 53.5408 53.7895 53.5657C53.7919 53.5716 53.7954 53.5775 53.799 53.5846C53.8167 53.6236 53.8344 53.6626 53.8521 53.7028C53.864 53.7312 53.8758 53.7595 53.8864 53.7879C53.8971 53.8139 53.9065 53.8399 53.916 53.8659C53.9349 53.9179 53.9538 53.9699 53.9704 54.0231C53.9798 54.0491 53.9881 54.0763 53.9964 54.1023C54.007 54.1366 54.0176 54.1721 54.0271 54.2064C54.046 54.2702 54.0637 54.3352 54.0791 54.3991C54.0803 54.4073 54.0827 54.4156 54.085 54.4239C54.0921 54.4499 54.098 54.4759 54.1039 54.5031C54.1098 54.5291 54.1158 54.5563 54.1217 54.5823C54.1217 54.5823 54.1229 54.5823 54.1229 54.5846C54.1288 54.6106 54.1347 54.6355 54.1394 54.6603C54.1453 54.691 54.1512 54.7218 54.1571 54.7513C54.1595 54.7631 54.1619 54.7738 54.1642 54.7844V54.7868C54.1642 54.7868 54.1654 54.7915 54.1654 54.7927C54.1654 54.7939 54.1654 54.7962 54.1666 54.7986C54.1713 54.8258 54.176 54.8506 54.1808 54.8766C54.1855 54.9026 54.1902 54.9275 54.1938 54.9523C54.1938 54.9523 54.195 54.9558 54.195 54.957C54.2009 54.9913 54.2068 55.0256 54.2115 55.0587C54.2174 55.0953 54.2233 55.132 54.2281 55.1674C54.2316 55.1887 54.234 55.21 54.2375 55.2301C54.2541 55.3577 54.2671 55.4689 54.2765 55.5575C54.2801 55.593 54.2824 55.6237 54.2848 55.6509C54.286 55.6604 54.2872 55.6698 54.2872 55.6781C54.2872 55.6911 54.2895 55.7017 54.2907 55.7124V55.7242C54.2907 55.7325 54.2895 55.7419 54.286 55.7502C54.2836 55.7597 54.2801 55.7691 54.2742 55.7786C54.2742 55.7809 54.2718 55.7833 54.2706 55.7857C54.2683 55.7892 54.2659 55.7939 54.2623 55.7975C54.2576 55.8034 54.2517 55.8105 54.2458 55.8164C54.2257 55.8389 54.1985 55.8601 54.1654 55.8802C54.156 55.8861 54.1465 55.8921 54.1359 55.898C54.0992 55.9192 54.0555 55.9393 54.0082 55.9582C53.9928 55.9642 53.9775 55.9701 53.9609 55.976C53.9491 55.9795 53.9373 55.9831 53.9254 55.9878C53.9042 55.9949 53.8817 56.002 53.8581 56.0091C53.8569 56.0091 53.8545 56.0091 53.8521 56.0091C53.8072 56.0221 53.7599 56.0339 53.7115 56.0445C53.7079 56.0445 53.7056 56.0445 53.702 56.0445C53.6784 56.0505 53.6536 56.0552 53.6287 56.0599C53.6216 56.0611 53.6157 56.0623 53.6098 56.0635C53.5661 56.0717 53.5212 56.0788 53.4751 56.0847C53.4502 56.0883 53.4254 56.0918 53.3994 56.0942H53.3959C53.3699 56.0977 53.3438 56.1001 53.3167 56.1025C53.0956 56.1214 52.871 56.1155 52.6842 56.0765C52.663 56.0729 52.6417 56.0682 52.6228 56.0623C52.605 56.0575 52.5885 56.0528 52.5719 56.0469C52.5542 56.0422 52.5365 56.0363 52.5187 56.0292C52.5176 56.0292 52.5164 56.0292 52.5152 56.0292C52.4939 56.0221 52.4726 56.0126 52.4537 56.002C52.449 55.9996 52.4443 55.9973 52.4395 55.9961C52.4277 55.989 52.4159 55.9831 52.4053 55.9748C52.3993 55.9724 52.3923 55.9677 52.3863 55.963C52.3863 55.9618 52.3852 55.9618 52.3852 55.9618C52.3733 55.9547 52.3627 55.9464 52.3532 55.9382C52.345 55.9322 52.3367 55.9251 52.3284 55.9169C52.3201 55.9098 52.3131 55.9015 52.3071 55.8944C52.2965 55.8826 52.287 55.8708 52.28 55.8589C52.2788 55.8578 52.2776 55.8554 52.2764 55.8542C52.2681 55.8412 52.261 55.827 52.2551 55.8128C52.2504 55.8022 52.2469 55.7916 52.2433 55.7798C52.2409 55.7715 52.2386 55.7632 52.2374 55.7537C52.2339 55.7407 52.2327 55.7254 52.2315 55.7112C52.2315 55.7112 52.2161 55.6474 52.1937 55.5374V55.5386Z" fill="#F6F7F7" stroke="#083A55" stroke-width="0.296296" stroke-linecap="round" stroke-linejoin="round"/>
<path d="M54.2911 55.7123C54.3218 56.0859 52.2733 56.3932 52.2319 55.7123C52.2319 55.7123 51.5593 52.9107 52.6953 52.7724C54.0039 52.614 54.2533 55.269 54.2911 55.7123Z" stroke="#083A55" stroke-width="0.296296" stroke-linecap="round" stroke-linejoin="round"/>
<path d="M52.1843 55.4902C52.2233 55.6711 52.2813 55.8614 52.3853 55.9643C52.2943 55.904 52.2375 55.8212 52.2316 55.7137C52.2316 55.7137 52.2115 55.6297 52.1843 55.4902Z" stroke="#083A55" stroke-width="0.296296" stroke-linecap="round" stroke-linejoin="round"/>
<path d="M53.7019 56.0476C53.2858 56.1399 52.7503 56.1517 52.4536 56.0039C52.664 56.0807 53.248 56.1186 53.7019 56.0476Z" stroke="#083A55" stroke-width="0.296296" stroke-linecap="round" stroke-linejoin="round"/>
<path d="M52.1548 55.3284C52.1501 55.3024 52.1454 55.2775 52.1418 55.2539C52.1466 55.2799 52.1501 55.3036 52.1548 55.3284Z" stroke="#083A55" stroke-width="0.296296" stroke-linecap="round" stroke-linejoin="round"/>
<path d="M52.1428 55.2542C52.1428 55.2542 52.1416 55.2458 52.1404 55.2422C52.1404 55.2458 52.1416 55.2494 52.1428 55.2542Z" stroke="#083A55" stroke-width="0.296296" stroke-linecap="round" stroke-linejoin="round"/>
<path d="M54.1218 54.5822C54.0403 54.4321 53.8157 54.2631 53.2081 54.3056C52.1607 54.3801 52.0922 54.97 52.1312 55.1887C51.9988 54.3706 51.8723 52.8729 52.695 52.7724C53.5249 52.672 53.928 53.7016 54.1218 54.5822Z" stroke="#083A55" stroke-width="0.296296" stroke-linecap="round" stroke-linejoin="round"/>
<path d="M52.1311 55.1906C52.1311 55.1906 52.1311 55.1906 52.1311 55.1895C52.1346 55.2084 52.137 55.2261 52.1406 55.245C52.137 55.2261 52.1346 55.2084 52.1311 55.1906Z" stroke="#083A55" stroke-width="0.296296" stroke-linecap="round" stroke-linejoin="round"/>
<path d="M54.1638 54.7871C54.1638 54.7871 54.1662 54.7955 54.1662 54.7992C54.165 54.7931 54.1638 54.7907 54.1638 54.7907V54.7871Z" stroke="#083A55" stroke-width="0.296296" stroke-linecap="round" stroke-linejoin="round"/>
<path d="M54.291 55.7109C54.2933 55.7334 54.2874 55.7559 54.2744 55.7771C54.2839 55.7559 54.2898 55.7346 54.291 55.7109Z" stroke="#083A55" stroke-width="0.296296" stroke-linecap="round" stroke-linejoin="round"/>
<path d="M54.291 55.7114C54.2898 55.7351 54.2839 55.7564 54.2744 55.7776C54.2744 55.78 54.2721 55.7824 54.2709 55.7847C54.2035 55.8899 53.9836 55.9845 53.7118 56.0448C53.7082 56.0448 53.7058 56.0448 53.7023 56.0448C53.2484 56.1157 52.6644 56.0779 52.454 56.0011C52.4493 55.9987 52.4445 55.9963 52.4398 55.9951C52.4209 55.9845 52.402 55.9739 52.3854 55.9609C52.2814 55.858 52.2235 55.6677 52.1845 55.4868C52.1727 55.4313 52.1632 55.3769 52.1549 55.3273C52.1455 55.2764 52.1384 55.2291 52.1313 55.1878C52.0923 54.9703 52.1585 54.378 53.2082 54.3036C53.8158 54.261 54.0404 54.43 54.1219 54.5802C54.1219 54.5802 54.1231 54.5802 54.1231 54.5825C54.1385 54.6511 54.1527 54.7185 54.1645 54.7847V54.7882C54.1645 54.7882 54.1657 54.7906 54.1669 54.7965C54.2461 55.215 54.2792 55.5719 54.291 55.7103V55.7114Z" fill="#083A55" stroke="#083A55" stroke-width="0.296296" stroke-linecap="round" stroke-linejoin="round"/>
<path d="M52.3853 55.9629C52.4018 55.9759 52.4207 55.9865 52.4396 55.9972C52.416 55.9877 52.3983 55.9771 52.3876 55.9664C52.3864 55.9653 52.3853 55.9641 52.3853 55.9629Z" stroke="#083A55" stroke-width="0.296296" stroke-linecap="round" stroke-linejoin="round"/>
<path d="M54.2706 55.7852C54.2044 55.9199 53.9821 56.0015 53.7114 56.0452C53.9833 55.9849 54.2032 55.8904 54.2706 55.7852Z" stroke="#083A55" stroke-width="0.296296" stroke-linecap="round" stroke-linejoin="round"/>
<path d="M54.1644 54.7861C54.1526 54.7199 54.1384 54.6525 54.123 54.584C54.1739 54.6797 54.1668 54.7672 54.1644 54.7861Z" stroke="#083A55" stroke-width="0.296296" stroke-linecap="round" stroke-linejoin="round"/>
<path d="M54.2911 55.7126C54.2793 55.5743 54.2462 55.2173 54.167 54.7988C54.1883 54.8615 54.3195 55.2764 54.2911 55.7126Z" stroke="#083A55" stroke-width="0.296296" stroke-linecap="round" stroke-linejoin="round"/>
<path d="M21.341 16.332C21.341 16.332 21.6247 16.8368 21.4793 17.3179C21.302 17.903 20.2511 18.8948 19.0359 18.792C17.8207 18.6891 17.6221 17.8168 17.6221 17.8168L21.341 16.332Z" fill="#083A55" stroke="#083A55" stroke-width="0.296296" stroke-linecap="round" stroke-linejoin="round"/>
<path d="M21.3066 16.1861C21.1931 15.9769 20.8964 15.6778 20.6647 15.6246C20.0488 15.4804 18.5866 15.4485 17.8206 16.8788C16.8512 18.6886 19.3076 18.7407 20.251 18.1461C21.0477 17.6448 21.6506 16.8209 21.3066 16.1873V16.1861Z" fill="#3EBB5A" stroke="#083A55" stroke-width="0.296296" stroke-linecap="round" stroke-linejoin="round"/>
<path d="M52.559 64.1774C52.6536 63.8796 56.0758 63.4658 56.2176 63.915C56.3595 64.3642 56.3772 64.6136 55.9304 64.6609C55.4835 64.7082 52.7363 65.1704 52.6417 64.9328C52.5472 64.6952 52.5094 64.3335 52.559 64.1763V64.1774Z" fill="#083244"/>
</svg>
