<svg width="95" height="65" viewBox="0 0 95 65" fill="none" xmlns="http://www.w3.org/2000/svg">
<path d="M24.5623 3.67435L24.7503 1.44092C24.7503 1.44092 47.4144 1.42673 54.1773 1.08622C60.9403 0.745708 64.9791 1.52368 64.9791 1.52368V52.2919L25.9421 53.0132L24.5623 3.67435Z" fill="#D4F7DC" stroke="#083A55" stroke-width="0.296296" stroke-linecap="round" stroke-linejoin="round"/>
<path d="M64.2009 51.3245L64.3203 1.88281L25.1497 2.14766L26.3119 52.3307L64.2009 51.3245Z" fill="#F6F7F7"/>
<path d="M26.7034 26.4892C26.7034 26.4892 25.9148 3.63824 26.0969 3.57439C26.279 3.51055 62.9254 3.11328 62.9254 3.11328L63.5745 52.9782L27.1184 53.7893L26.7034 26.4892Z" fill="#083A55" stroke="#083A55" stroke-width="0.296296" stroke-linecap="round" stroke-linejoin="round"/>
<path d="M45.9622 1.88281L25.1497 2.14766V7.67034" stroke="#083A55" stroke-width="0.296296" stroke-linecap="round" stroke-linejoin="round"/>
<path d="M47.0442 1.88281H63.9575" stroke="#083A55" stroke-width="0.296296" stroke-linecap="round" stroke-linejoin="round"/>
<path d="M25.6675 5.05711L25.8318 2.66406L63.722 2.69244" stroke="#083A55" stroke-width="0.296296" stroke-linecap="round" stroke-linejoin="round"/>
<path d="M63.7219 2.69141L63.4263 52.0976" stroke="#083A55" stroke-width="0.296296" stroke-linecap="round" stroke-linejoin="round"/>
<path d="M64.3203 2.30273L64.2009 51.3235" stroke="#083A55" stroke-width="0.296296" stroke-linecap="round" stroke-linejoin="round"/>
<path d="M62.802 3.80731C63.7621 4.17738 64.6926 4.15374 64.9952 3.82268C65.2211 3.57557 65.0555 3.2256 64.9952 3.11328" stroke="#083A55" stroke-width="0.296296" stroke-linecap="round" stroke-linejoin="round"/>
<path d="M62.802 5.53973C63.7621 5.9098 64.6926 5.88616 64.9952 5.5551C65.2211 5.308 65.0555 4.95802 64.9952 4.8457" stroke="#083A55" stroke-width="0.296296" stroke-linecap="round" stroke-linejoin="round"/>
<path d="M62.802 7.2702C63.7621 7.64027 64.6926 7.61663 64.9952 7.28557C65.2211 7.03846 65.0555 6.68849 64.9952 6.57617" stroke="#083A55" stroke-width="0.296296" stroke-linecap="round" stroke-linejoin="round"/>
<path d="M62.802 9.00067C63.7621 9.37074 64.6926 9.34709 64.9952 9.01604C65.2211 8.76893 65.0555 8.41896 64.9952 8.30664" stroke="#083A55" stroke-width="0.296296" stroke-linecap="round" stroke-linejoin="round"/>
<path d="M62.802 10.7311C63.7621 11.1012 64.6926 11.0776 64.9952 10.7465C65.2211 10.4994 65.0555 10.1494 64.9952 10.0371" stroke="#083A55" stroke-width="0.296296" stroke-linecap="round" stroke-linejoin="round"/>
<path d="M62.802 12.4616C63.7621 12.8317 64.6926 12.808 64.9952 12.477C65.2211 12.2299 65.0555 11.8799 64.9952 11.7676" stroke="#083A55" stroke-width="0.296296" stroke-linecap="round" stroke-linejoin="round"/>
<path d="M62.802 14.1921C63.7621 14.5621 64.6926 14.5385 64.9952 14.2074C65.2211 13.9603 65.0555 13.6104 64.9952 13.498" stroke="#083A55" stroke-width="0.296296" stroke-linecap="round" stroke-linejoin="round"/>
<path d="M62.802 15.9245C63.7621 16.2946 64.6926 16.2709 64.9952 15.9399C65.2211 15.6928 65.0555 15.3428 64.9952 15.2305" stroke="#083A55" stroke-width="0.296296" stroke-linecap="round" stroke-linejoin="round"/>
<path d="M62.802 17.655C63.7621 18.025 64.6926 18.0014 64.9952 17.6703C65.2211 17.4232 65.0555 17.0733 64.9952 16.9609" stroke="#083A55" stroke-width="0.296296" stroke-linecap="round" stroke-linejoin="round"/>
<path d="M62.802 19.3854C63.7621 19.7555 64.6926 19.7319 64.9952 19.4008C65.2211 19.1537 65.0555 18.8037 64.9952 18.6914" stroke="#083A55" stroke-width="0.296296" stroke-linecap="round" stroke-linejoin="round"/>
<path d="M62.802 21.1179C63.7621 21.4879 64.6926 21.4643 64.9952 21.1332C65.2211 20.8861 65.0555 20.5361 64.9952 20.4238" stroke="#083A55" stroke-width="0.296296" stroke-linecap="round" stroke-linejoin="round"/>
<path d="M62.802 22.8483C63.7621 23.2184 64.6926 23.1948 64.9952 22.8637C65.2211 22.6166 65.0555 22.2666 64.9952 22.1543" stroke="#083A55" stroke-width="0.296296" stroke-linecap="round" stroke-linejoin="round"/>
<path d="M62.9502 42.6354C63.9102 43.0055 64.8408 42.9819 65.1434 42.6508C65.3693 42.4037 65.2037 42.0537 65.1434 41.9414" stroke="#083A55" stroke-width="0.296296" stroke-linecap="round" stroke-linejoin="round"/>
<path d="M62.9502 44.0788C63.9102 44.4489 64.8408 44.4252 65.1434 44.0942C65.3693 43.8471 65.2037 43.4971 65.1434 43.3848" stroke="#083A55" stroke-width="0.296296" stroke-linecap="round" stroke-linejoin="round"/>
<path d="M62.9502 45.5222C63.9102 45.8922 64.8408 45.8686 65.1434 45.5375C65.3693 45.2904 65.2037 44.9404 65.1434 44.8281" stroke="#083A55" stroke-width="0.296296" stroke-linecap="round" stroke-linejoin="round"/>
<path d="M62.9502 46.9636C63.9102 47.3336 64.8408 47.31 65.1434 46.9789C65.3693 46.7318 65.2037 46.3819 65.1434 46.2695" stroke="#083A55" stroke-width="0.296296" stroke-linecap="round" stroke-linejoin="round"/>
<path d="M62.9502 48.405C63.9102 48.775 64.8408 48.7514 65.1434 48.4203C65.3693 48.1732 65.2037 47.8233 65.1434 47.7109" stroke="#083A55" stroke-width="0.296296" stroke-linecap="round" stroke-linejoin="round"/>
<path d="M62.9502 49.8483C63.9102 50.2184 64.8408 50.1948 65.1434 49.8637C65.3693 49.6166 65.2037 49.2666 65.1434 49.1543" stroke="#083A55" stroke-width="0.296296" stroke-linecap="round" stroke-linejoin="round"/>
<path d="M62.9502 51.2917C63.9102 51.6618 64.8408 51.6381 65.1434 51.3071C65.3693 51.0599 65.2037 50.71 65.1434 50.5977" stroke="#083A55" stroke-width="0.296296" stroke-linecap="round" stroke-linejoin="round"/>
<path d="M67.2634 29.0805C67.2634 29.0805 68.1643 30.2309 68.1324 30.9285C68.1004 31.626 66.9961 35.3717 66.9961 35.3717H67.2492C67.2492 35.3717 67.5767 35.4119 67.4632 37.1747C67.3839 38.4067 67.1002 39.0062 67.1002 39.0062L65.88 40.8021L62.5068 43.7048L62.6546 27.7988L67.2634 29.0793V29.0805Z" fill="#3EBB5A"/>
<path d="M66.3599 35.976C66.3599 35.976 66.6141 35.9086 67.5599 34.867C68.695 33.6161 68.6737 31.2112 68.2812 30.6023C67.8886 29.9934 67.651 29.9414 67.651 29.9414" fill="#3EBB5A"/>
<path d="M66.3599 35.976C66.3599 35.976 66.6141 35.9086 67.5599 34.867C68.695 33.6161 68.6737 31.2112 68.2812 30.6023C67.8886 29.9934 67.651 29.9414 67.651 29.9414" stroke="#083A55" stroke-width="0.296296" stroke-linecap="round" stroke-linejoin="round"/>
<path d="M67.4616 36.8047C67.4616 36.8047 74.1843 37.4881 79.5427 38.6751C82.1532 39.2533 83.9705 39.6742 85.1493 39.9544C86.5303 40.2831 87.8486 40.8294 89.051 41.5837C92.1771 43.5428 97.1346 47.5947 92.2267 51.3238C85.4366 56.4835 67.4616 52.473 67.4616 52.473C67.4616 52.473 51.9588 50.2845 46.8949 50.2455C41.831 50.2064 40.7231 51.3474 40.7231 51.3474" fill="#3EBB5A"/>
<path d="M67.4619 36.8047C67.4619 36.8047 74.1846 37.4881 79.543 38.6751C84.9013 39.8622 86.9231 40.3883 86.9231 40.3883" stroke="#083A55" stroke-width="0.296296" stroke-linecap="round" stroke-linejoin="round"/>
<path d="M65.2578 40.3009C65.2578 40.3009 66.9592 40.0905 67.2891 38.4387C67.6189 36.787 67.6213 35.4297 67.1637 35.3398" stroke="#083A55" stroke-width="0.296296" stroke-linecap="round" stroke-linejoin="round"/>
<path d="M40.7246 51.3451C40.7246 51.3451 41.8324 50.2041 46.8964 50.2432C51.9603 50.2822 67.4631 52.4707 67.4631 52.4707" stroke="#083A55" stroke-width="0.296296" stroke-linecap="round" stroke-linejoin="round"/>
<path d="M22.2639 6.53555V5.16641C22.2639 5.16641 44.8087 4.43455 51.5716 4.09403C58.3345 3.75352 62.3734 4.5315 62.3734 4.5315V55.2998L23.3363 56.021L22.2639 6.53555Z" fill="#D4F7DC" stroke="#083A55" stroke-width="0.296296" stroke-linecap="round" stroke-linejoin="round"/>
<path d="M61.6473 54.8913L61.7773 5.05469L22.531 5.38456L23.3362 56.0216L61.6473 54.8913Z" fill="#F6F7F7"/>
<path d="M21.7188 29.4984C21.7188 29.4984 20.8794 6.64738 21.0733 6.58353C21.2672 6.51969 61.3518 5.48633 61.3518 5.48633L60.9451 55.9874L22.161 56.7985L21.7188 29.4984Z" fill="#D4F7DC" stroke="#083A55" stroke-width="0.296296" stroke-linecap="round" stroke-linejoin="round"/>
<path d="M22.7073 5.38477H43.3567" stroke="#083A55" stroke-width="0.296296" stroke-linecap="round" stroke-linejoin="round"/>
<path d="M44.4385 5.36515C44.4385 5.36515 54.6408 4.88867 57.7492 4.88867H61.3517" stroke="#083A55" stroke-width="0.296296" stroke-linecap="round" stroke-linejoin="round"/>
<path d="M61.6474 5.48633L61.3518 54.8914" stroke="#083A55" stroke-width="0.296296" stroke-linecap="round" stroke-linejoin="round"/>
<path d="M62.0318 4.89062L61.9124 53.9102" stroke="#083A55" stroke-width="0.296296" stroke-linecap="round" stroke-linejoin="round"/>
<path d="M60.1965 6.81512C61.1566 7.1852 62.0871 7.16155 62.3898 6.83049C62.6156 6.58339 62.4501 6.23342 62.3898 6.12109" stroke="#083A55" stroke-width="0.296296" stroke-linecap="round" stroke-linejoin="round"/>
<path d="M60.1965 8.54755C61.1566 8.91762 62.0871 8.89397 62.3898 8.56292C62.6156 8.31581 62.4501 7.96584 62.3898 7.85352" stroke="#083A55" stroke-width="0.296296" stroke-linecap="round" stroke-linejoin="round"/>
<path d="M60.1965 10.278C61.1566 10.6481 62.0871 10.6244 62.3898 10.2934C62.6156 10.0463 62.4501 9.69631 62.3898 9.58398" stroke="#083A55" stroke-width="0.296296" stroke-linecap="round" stroke-linejoin="round"/>
<path d="M60.1965 12.0085C61.1566 12.3786 62.0871 12.3549 62.3898 12.0239C62.6156 11.7767 62.4501 11.4268 62.3898 11.3145" stroke="#083A55" stroke-width="0.296296" stroke-linecap="round" stroke-linejoin="round"/>
<path d="M60.1965 13.739C61.1566 14.109 62.0871 14.0854 62.3898 13.7543C62.6156 13.5072 62.4501 13.1572 62.3898 13.0449" stroke="#083A55" stroke-width="0.296296" stroke-linecap="round" stroke-linejoin="round"/>
<path d="M60.1965 15.4694C61.1566 15.8395 62.0871 15.8158 62.3898 15.4848C62.6156 15.2377 62.4501 14.8877 62.3898 14.7754" stroke="#083A55" stroke-width="0.296296" stroke-linecap="round" stroke-linejoin="round"/>
<path d="M60.1968 17.1999C61.1568 17.57 62.0873 17.5463 62.39 17.2153C62.6158 16.9682 62.4503 16.6182 62.39 16.5059" stroke="#083A55" stroke-width="0.296296" stroke-linecap="round" stroke-linejoin="round"/>
<path d="M60.1965 18.9323C61.1566 19.3024 62.0871 19.2787 62.3898 18.9477C62.6156 18.7006 62.4501 18.3506 62.3898 18.2383" stroke="#083A55" stroke-width="0.296296" stroke-linecap="round" stroke-linejoin="round"/>
<path d="M60.1968 20.6628C61.1568 21.0329 62.0873 21.0092 62.39 20.6782C62.6158 20.431 62.4503 20.0811 62.39 19.9688" stroke="#083A55" stroke-width="0.296296" stroke-linecap="round" stroke-linejoin="round"/>
<path d="M60.1965 22.3932C61.1566 22.7633 62.0871 22.7397 62.3898 22.4086C62.6156 22.1615 62.4501 21.8115 62.3898 21.6992" stroke="#083A55" stroke-width="0.296296" stroke-linecap="round" stroke-linejoin="round"/>
<path d="M60.1965 24.1257C61.1566 24.4957 62.0871 24.4721 62.3898 24.141C62.6156 23.8939 62.4501 23.544 62.3898 23.4316" stroke="#083A55" stroke-width="0.296296" stroke-linecap="round" stroke-linejoin="round"/>
<path d="M60.1965 25.8561C61.1566 26.2262 62.0871 26.2026 62.3898 25.8715C62.6156 25.6244 62.4501 25.2744 62.3898 25.1621" stroke="#083A55" stroke-width="0.296296" stroke-linecap="round" stroke-linejoin="round"/>
<path d="M60.3442 45.6432C61.3043 46.0133 62.2348 45.9897 62.5375 45.6586C62.7633 45.4115 62.5978 45.0615 62.5375 44.9492" stroke="#083A55" stroke-width="0.296296" stroke-linecap="round" stroke-linejoin="round"/>
<path d="M60.3442 47.0866C61.3043 47.4567 62.2348 47.433 62.5375 47.102C62.7633 46.8549 62.5978 46.5049 62.5375 46.3926" stroke="#083A55" stroke-width="0.296296" stroke-linecap="round" stroke-linejoin="round"/>
<path d="M60.3442 48.53C61.3043 48.9 62.2348 48.8764 62.5375 48.5453C62.7633 48.2982 62.5978 47.9483 62.5375 47.8359" stroke="#083A55" stroke-width="0.296296" stroke-linecap="round" stroke-linejoin="round"/>
<path d="M60.3442 49.9714C61.3043 50.3414 62.2348 50.3178 62.5375 49.9867C62.7633 49.7396 62.5978 49.3897 62.5375 49.2773" stroke="#083A55" stroke-width="0.296296" stroke-linecap="round" stroke-linejoin="round"/>
<path d="M60.3445 51.4128C61.3045 51.7829 62.235 51.7592 62.5377 51.4282C62.7635 51.181 62.598 50.8311 62.5377 50.7188" stroke="#083A55" stroke-width="0.296296" stroke-linecap="round" stroke-linejoin="round"/>
<path d="M60.3445 52.8561C61.3045 53.2262 62.235 53.2026 62.5377 52.8715C62.7635 52.6244 62.598 52.2744 62.5377 52.1621" stroke="#083A55" stroke-width="0.296296" stroke-linecap="round" stroke-linejoin="round"/>
<path d="M60.3442 54.2995C61.3043 54.6696 62.2348 54.6459 62.5375 54.3149C62.7633 54.0678 62.5978 53.7178 62.5375 53.6055" stroke="#083A55" stroke-width="0.296296" stroke-linecap="round" stroke-linejoin="round"/>
<path d="M66.3599 39.3022C66.3599 39.3022 67.0031 40.7694 65.258 42.8255C62.411 46.1786 55.0107 45.6596 51.1977 46.972C48.5173 47.8942 43.6923 48.7868 40.7234 51.3431C37.7546 53.8993 23.6517 59.7554 23.6517 59.7554C23.6517 59.7554 10.0383 67.2537 4.03209 64.3121C-1.97416 61.3704 -1.68685 53.2667 7.72924 48.4948C7.72924 48.4948 27.1561 41.1407 34.9489 39.7148C42.7417 38.2889 56.2723 29.2807 57.6603 28.3821C59.0484 27.4835 64.4599 25.8969 65.3171 25.8555" fill="#3EBB5A"/>
<path d="M38.2378 38.8109L37.0921 39.1857C37.0921 39.1857 37.0803 39.1892 37.0744 39.1904C36.3319 39.4151 35.6189 39.5936 34.9497 39.7166C31.424 40.3621 25.5182 42.2207 20.1067 44.0616C20.1067 44.0616 18.7387 42.1616 18.5909 40.2935C18.4443 38.4254 18.8641 37.2703 18.8641 37.2703C18.8641 37.2703 18.8109 37.1568 18.7305 36.9617L18.7198 36.9369C18.708 36.9097 18.6974 36.8825 18.6855 36.8541C18.6808 36.8447 18.6773 36.8352 18.6737 36.8257C18.3912 36.1199 17.8957 34.6975 17.9407 33.4916C17.9986 31.9309 18.2386 31.5667 18.2717 31.523C17.8023 30.7793 17.716 30.0758 18.4325 29.5839C20.6175 28.0847 24.2378 30.3324 25.6731 31.2688C27.1097 32.2052 26.392 31.9238 30.4486 33.0789C34.5063 34.2341 38.2378 38.8109 38.2378 38.8109Z" fill="#3EBB5A" stroke="#083A55" stroke-width="0.296296" stroke-linecap="round" stroke-linejoin="round"/>
<path d="M19.7756 36.2305L20.1079 37.79" stroke="#083A55" stroke-width="0.296296" stroke-linecap="round" stroke-linejoin="round"/>
<path d="M19.9409 41.2559L20.6172 42.8792" stroke="#083A55" stroke-width="0.296296" stroke-linecap="round" stroke-linejoin="round"/>
<path d="M20.2792 39.6642C20.2792 39.6642 18.9089 37.4556 18.6748 36.8242" stroke="#083A55" stroke-width="0.296296" stroke-linecap="round" stroke-linejoin="round"/>
<path d="M24.0178 36.1016L22.6545 36.2316" stroke="#083A55" stroke-width="0.296296" stroke-linecap="round" stroke-linejoin="round"/>
<path d="M18.6405 31.2515C19.1655 31.8048 20.3927 33.025 20.7498 32.7412C21.2073 32.3759 22.5126 30.7951 22.0693 30.3127C21.6259 29.8303 18.8876 29.3869 18.5364 30.1933C18.3615 30.5953 18.3591 30.9535 18.6417 31.2527L18.6405 31.2515Z" fill="#F6F7F7" stroke="#083A55" stroke-width="0.296296" stroke-linecap="round" stroke-linejoin="round"/>
<path d="M65.3181 25.8555C64.4609 25.8957 59.0506 27.4835 57.6613 28.3821C56.453 29.1625 46.052 36.085 38.238 38.8091C37.849 38.9451 37.4671 39.0704 37.0923 39.1839C37.0864 39.1851 37.0804 39.1875 37.0745 39.1887C36.332 39.4133 35.6191 39.5918 34.9499 39.7148C31.4242 40.3603 25.5184 42.219 20.1069 44.0599C13.5568 46.2898 7.73022 48.4948 7.73022 48.4948" stroke="#083A55" stroke-width="0.296296" stroke-linecap="round" stroke-linejoin="round"/>
<path d="M23.6528 59.7579C23.6528 59.7579 37.7557 53.903 40.7245 51.3456C43.6934 48.7894 48.5185 47.8967 51.1988 46.9745C55.0118 45.6621 62.4121 46.1811 65.2591 42.828C67.0043 40.772 66.361 39.3047 66.361 39.3047" stroke="#083A55" stroke-width="0.296296" stroke-linecap="round" stroke-linejoin="round"/>
<path d="M60.9448 37.4727C60.9448 37.4727 56.4354 40.8305 55.0627 41.7125C53.69 42.5945 53.4204 43.3051 53.4204 43.3051" stroke="#083A55" stroke-width="0.296296" stroke-linecap="round" stroke-linejoin="round"/>
<path d="M65.649 29.9414L64.8154 31.2715" stroke="#083A55" stroke-width="0.296296" stroke-linecap="round" stroke-linejoin="round"/>
<path d="M65.487 34.7734L64.8154 35.9735" stroke="#083A55" stroke-width="0.296296" stroke-linecap="round" stroke-linejoin="round"/>
<path d="M57.2842 29.5017C57.2842 29.5017 61.0003 28.0758 62.289 27.3936C63.5777 26.7114 66.7559 24.9107 67.8495 25.2287C68.9432 25.5468 69.668 27.435 68.7493 28.7946C67.8306 30.1543 67.107 30.9311 67.107 30.9311" fill="#3EBB5A"/>
<path d="M57.2842 29.5017C57.2842 29.5017 61.0003 28.0758 62.289 27.3936C63.5777 26.7114 66.7559 24.9107 67.8495 25.2287C68.9432 25.5468 69.668 27.435 68.7493 28.7946C67.8306 30.1543 67.107 30.9311 67.107 30.9311" stroke="#083A55" stroke-width="0.296296" stroke-linecap="round" stroke-linejoin="round"/>
<path d="M64.2765 41.3398C64.2765 41.3398 64.228 42.197 63.8354 42.4181" stroke="#083A55" stroke-width="0.296296" stroke-linecap="round" stroke-linejoin="round"/>
<path d="M38.2393 38.8102C38.2393 38.8102 34.5079 34.2334 30.4501 33.0794C26.3923 31.9243 27.11 32.2057 25.6747 31.2693C24.2393 30.3329 20.6178 28.0853 18.4341 29.5833C16.2491 31.0813 21.5235 34.5455 22.3984 35.1391C23.2722 35.7326 26.0506 37.2082 26.4562 37.4683C26.8617 37.7296 29.2654 39.3033 29.2654 39.3033" stroke="#083A55" stroke-width="0.296296" stroke-linecap="round" stroke-linejoin="round"/>
</svg>
